SplineFontDB: 3.0
FontName: CheckbookLightning
FullName: CheckbookLightning
FamilyName: CheckbookLightning
Weight: Book
Copyright: Copyright (c) 2021-2022 Bleskomat s.r.o.
Version: 09-06-22
ItalicAngle: 0
UnderlinePosition: -132
UnderlineWidth: 19
Ascent: 3276
Descent: 820
InvalidEm: 0
sfntRevision: 0x00010000
LayerCount: 2
Layer: 0 1 "Back" 1
Layer: 1 1 "Fore" 0
XUID: [1021 283 1905561628 12017640]
StyleMap: 0x0040
FSType: 0
OS2Version: 0
OS2_WeightWidthSlopeOnly: 0
OS2_UseTypoMetrics: 0
CreationTime: -2082844800
ModificationTime: 1654769336
PfmFamily: 17
TTFWeight: 400
TTFWidth: 5
LineGap: 0
VLineGap: 0
Panose: 2 11 0 0 0 0 0 0 0 0
OS2TypoAscent: 3412
OS2TypoAOffset: 0
OS2TypoDescent: -639
OS2TypoDOffset: 0
OS2TypoLinegap: 0
OS2WinAscent: 3461
OS2WinAOffset: 0
OS2WinDescent: 639
OS2WinDOffset: 0
HheadAscent: 3412
HheadAOffset: 0
HheadDescent: -659
HheadDOffset: 0
OS2SubXSize: 819
OS2SubYSize: 737
OS2SubXOff: 0
OS2SubYOff: 0
OS2SupXSize: 819
OS2SupYSize: 737
OS2SupXOff: 0
OS2SupYOff: 1706
OS2StrikeYSize: 204
OS2StrikeYPos: 1060
OS2Vendor: '    '
OS2UnicodeRanges: 00000000.00000000.00000000.00000000
Lookup: 258 0 0 "'kern' Horizontal Kerning in Latin lookup 0" { "'kern' Horizontal Kerning in Latin lookup 0 subtable"  } ['kern' ('latn' <'dflt' > ) ]
MarkAttachClasses: 1
DEI: 91125
TtTable: prep
NPUSHB
 16
 54
 52
 1
 52
 124
 12
 13
 88
 124
 1
 124
 124
 66
 13
 48
 0
SCANTYPE
PUSHW_1
 828
SCANCTRL
SCVTCI
CALL
CALL
EndTTInstrs
TtTable: fpgm
NPUSHB
 22
 21
 20
 19
 18
 17
 16
 15
 14
 13
 12
 11
 10
 9
 8
 7
 6
 5
 4
 3
 2
 1
 0
FDEF
PUSHB_3
 0
 128
 0
RS
DUP
ROLL
DIV
ROLL
SWAP
WS
FLOOR
ODD
ENDF
FDEF
PUSHB_3
 42
 0
 0
RS
EQ
JROT
PUSHB_1
 0
CALL
IF
SLOOP
IP
EIF
PUSHB_1
 0
CALL
IF
SLOOP
ALIGNRP
EIF
PUSHB_1
 0
CALL
IF
PUSHB_1
 10
LOOPCALL
EIF
PUSHB_1
 1
RS
SRP0
PUSHB_1
 0
CALL
IF
SLOOP
ALIGNRP
EIF
PUSHB_1
 0
CALL
IF
PUSHB_1
 10
LOOPCALL
EIF
ENDF
FDEF
CALL
ENDF
FDEF
CALL
PUSHB_1
 2
LOOPCALL
ENDF
FDEF
PUSHB_1
 2
LOOPCALL
ENDF
FDEF
PUSHB_1
 1
DIV
PUSHB_1
 0
SWAP
WS

StartChar: .notdef
Encoding: 65536 -1 0
Width: 3072
Flags: W
LayerCount: 2
Fore
SplineSet
512 0 m 1,0,-1
 512 2560 l 1,1,-1
 2560 2560 l 1,2,-1
 2560 0 l 1,3,-1
 512 0 l 1,0,-1
2496 64 m 1,4,-1
 2496 2496 l 1,5,-1
 576 2496 l 1,6,-1
 576 64 l 1,7,-1
 2496 64 l 1,4,-1
EndSplineSet
Validated: 1
EndChar

StartChar: exclam
Encoding: 33 33 4
Width: 1102
Flags: W
LayerCount: 2
Fore
SplineSet
209 725 m 0,0,1
 229 741 229 741 262 749.5 c 128,-1,2
 295 758 295 758 332 758 c 2,3,-1
 733 758 l 2,4,5
 770 758 770 758 811 758 c 1,6,7
 848 754 848 754 885 725 c 0,8,9
 938 676 938 676 938 586 c 2,10,-1
 938 172 l 2,11,12
 938 111 938 111 934 82 c 0,13,14
 926 53 926 53 901 25 c 0,15,16
 872 -4 872 -4 844 -8 c 0,17,18
 811 -16 811 -16 741 -16 c 2,19,-1
 340 -16 l 2,20,21
 299 -16 299 -16 262 -12 c 1,22,23
 221 -12 221 -12 188 29 c 1,24,25
 152 66 152 66 152 152 c 2,26,-1
 152 586 l 2,27,28
 152 676 152 676 209 725 c 0,0,1
127 2716 m 2,29,30
 111 2818 111 2818 111 2916 c 0,31,32
 111 2974 111 2974 115 3002 c 1,33,34
 115 3183 115 3183 246 3301 c 0,35,36
 373 3416 373 3416 553 3416 c 0,37,38
 729 3416 729 3416 860 3297 c 0,39,40
 987 3178 987 3178 1004 3006 c 0,41,42
 1008 2982 1008 2982 1008 2937 c 0,43,44
 1008 2888 1008 2888 999 2818 c 0,45,46
 991 2748 991 2748 983 2687 c 2,47,-1
 688 1081 l 1,48,49
 672 926 672 926 549 926 c 0,50,51
 492 926 492 926 455 971 c 1,52,53
 414 1012 414 1012 401 1081 c 2,54,-1
 127 2716 l 2,29,30
EndSplineSet
Validated: 1
EndChar

StartChar: dollar
Encoding: 36 36 5
Width: 2011
Flags: W
LayerCount: 2
Fore
SplineSet
209 3105 m 1,0,1
 258 3154 258 3154 356 3154 c 2,2,-1
 496 3154 l 2,3,4
 561 3154 561 3154 590 3174 c 1,5,6
 623 3207 623 3207 623 3240 c 2,7,-1
 623 3359 l 2,8,9
 623 3404 623 3404 655 3432 c 0,10,11
 688 3461 688 3461 733 3461 c 0,12,13
 844 3461 844 3461 844 3367 c 2,14,-1
 844 3244 l 2,15,16
 844 3203 844 3203 876.5 3182.5 c 128,-1,17
 909 3162 909 3162 963 3162 c 0,18,19
 1077 3162 1077 3162 1077 3236 c 2,20,-1
 1077 3367 l 2,21,22
 1077 3408 1077 3408 1114 3437 c 0,23,24
 1147 3461 1147 3461 1192 3461 c 0,25,26
 1303 3461 1303 3461 1303 3371 c 2,27,-1
 1303 3265 l 2,28,29
 1303 3195 1303 3195 1323 3174 c 0,30,31
 1343 3154 1343 3154 1405 3154 c 2,32,-1
 1663 3154 l 2,33,34
 1741 3154 1741 3154 1806 3109 c 1,35,36
 1868 3060 1868 3060 1868 2978 c 256,37,38
 1868 2896 1868 2896 1806 2839 c 0,39,40
 1745 2781 1745 2781 1663 2781 c 2,41,-1
 1421 2781 l 2,42,43
 1352 2781 1352 2781 1331 2761 c 0,44,45
 1307 2740 1307 2740 1307 2679 c 2,46,-1
 1307 1921 l 2,47,48
 1307 1884 1307 1884 1311 1847 c 1,49,50
 1311 1806 1311 1806 1335 1786 c 0,51,52
 1360 1765 1360 1765 1442 1765 c 2,53,-1
 1634 1765 l 2,54,55
 1761 1765 1761 1765 1823 1704 c 0,56,57
 1843 1688 1843 1688 1864 1638 c 0,58,59
 1884 1589 1884 1589 1884 1524 c 2,60,-1
 1884 193 l 2,61,62
 1884 98 1884 98 1835 45 c 0,63,64
 1810 16 1810 16 1778 8 c 0,65,66
 1741 0 1741 0 1700 0 c 0,67,68
 1663 0 1663 0 1647 0 c 2,69,-1
 1438 -4 l 2,70,71
 1364 -4 1364 -4 1343 -20 c 1,72,73
 1307 -33 1307 -33 1307 -86 c 2,74,-1
 1307 -205 l 2,75,76
 1307 -315 1307 -315 1212 -315 c 0,77,78
 1102 -315 1102 -315 1102 -217 c 2,79,-1
 1102 -82 l 2,80,81
 1102 -20 1102 -20 1020 -20 c 0,82,83
 991 -20 991 -20 975 -20 c 0,84,85
 942 -20 942 -20 913 -20 c 1,86,87
 856 -33 856 -33 856 -106 c 2,88,-1
 856 -213 l 2,89,90
 856 -319 856 -319 750 -319 c 0,91,92
 709 -319 709 -319 680 -287 c 1,93,94
 647 -258 647 -258 647 -217 c 2,95,-1
 647 -119 l 2,96,97
 647 -61 647 -61 635 -33 c 1,98,99
 602 4 602 4 545 4 c 2,100,-1
 311 4 l 2,101,102
 242 4 242 4 193 57 c 1,103,104
 139 106 139 106 139 180 c 256,105,106
 139 254 139 254 196.5 307 c 128,-1,107
 254 360 254 360 332 360 c 2,108,-1
 516 360 l 2,109,110
 590 360 590 360 614 377 c 1,111,112
 639 385 639 385 639 471 c 0,113,114
 639 500 639 500 639 512 c 2,115,-1
 639 1253 l 2,116,117
 639 1339 639 1339 618 1368 c 1,118,119
 594 1393 594 1393 508 1393 c 2,120,-1
 332 1393 l 2,121,122
 283 1393 283 1393 242 1413 c 0,123,124
 197 1434 197 1434 180 1462 c 0,125,126
 143 1520 143 1520 143 1606 c 2,127,-1
 143 2949 l 2,128,129
 143 3047 143 3047 209 3105 c 1,0,1
1081 2671 m 2,130,131
 1081 2732 1081 2732 1053 2757 c 1,132,133
 1020 2777 1020 2777 971 2777 c 0,134,135
 918 2777 918 2777 889 2756.5 c 128,-1,136
 860 2736 860 2736 860 2666 c 2,137,-1
 860 1892 l 2,138,139
 860 1802 860 1802 893 1778 c 0,140,141
 909 1765 909 1765 979 1765 c 0,142,143
 1036 1765 1036 1765 1061 1786 c 0,144,145
 1081 1802 1081 1802 1081 1880 c 2,146,-1
 1081 2671 l 2,130,131
1090 1270 m 2,147,148
 1090 1352 1090 1352 1065 1372 c 0,149,150
 1040 1393 1040 1393 979 1393 c 0,151,152
 909 1393 909 1393 885 1376 c 0,153,154
 860 1356 860 1356 860 1262 c 2,155,-1
 860 492 l 2,156,157
 860 406 860 406 881 381 c 0,158,159
 897 356 897 356 995 356 c 0,160,161
 1065 356 1065 356 1077 393 c 0,162,163
 1090 426 1090 426 1090 508 c 2,164,-1
 1090 1270 l 2,147,148
1393 1376 m 256,165,166
 1352 1376 1352 1376 1343 1372 c 0,167,168
 1307 1356 1307 1356 1307 1270 c 2,169,-1
 1307 508 l 2,170,171
 1307 430 1307 430 1319 405.5 c 128,-1,172
 1331 381 1331 381 1360 381 c 0,173,174
 1372 381 1372 381 1417 393 c 0,175,176
 1458 401 1458 401 1479 446 c 1,177,178
 1495 492 1495 492 1495 549 c 2,179,-1
 1495 1253 l 2,180,181
 1495 1286 1495 1286 1466 1331 c 0,182,183
 1434 1376 1434 1376 1393 1376 c 256,165,166
618 2646 m 2,184,185
 618 2728 618 2728 594 2728 c 0,186,187
 565 2728 565 2728 540.5 2679 c 128,-1,188
 516 2630 516 2630 516 2576 c 2,189,-1
 516 1950 l 2,190,191
 516 1896 516 1896 537 1851 c 1,192,193
 553 1802 553 1802 590 1802 c 1,194,195
 618 1806 618 1806 618 1888 c 2,196,-1
 618 2646 l 2,184,185
EndSplineSet
Validated: 1
EndChar

StartChar: percent
Encoding: 37 37 6
Width: 2523
Flags: W
LayerCount: 2
Fore
SplineSet
168 3371 m 0,0,1
 184 3391 184 3391 225 3400 c 0,2,3
 262 3408 262 3408 303 3408 c 2,4,-1
 905 3408 l 2,5,6
 967 3408 967 3408 1008 3387 c 0,7,8
 1044 3367 1044 3367 1061 3330 c 1,9,10
 1073 3293 1073 3293 1073 3236 c 2,11,-1
 1073 2159 l 2,12,13
 1073 2085 1073 2085 1049 2040 c 1,14,15
 995 1974 995 1974 897 1974 c 2,16,-1
 324 1974 l 2,17,18
 262 1974 262 1974 229 1982 c 0,19,20
 197 1987 197 1987 172 2007 c 0,21,22
 147 2028 147 2028 139 2064 c 0,23,24
 131 2097 131 2097 131 2142 c 2,25,-1
 131 3224 l 2,26,27
 131 3281 131 3281 139 3314 c 0,28,29
 143 3346 143 3346 168 3371 c 0,0,1
291 246 m 2,30,-1
 2003 3289 l 2,31,32
 2052 3383 2052 3383 2146 3383 c 0,33,34
 2175 3383 2175 3383 2204 3367 c 0,35,36
 2261 3326 2261 3326 2261 3269 c 0,37,38
 2261 3232 2261 3232 2228 3166 c 2,39,-1
 492 98 l 1,40,41
 459 29 459 29 369 29 c 0,42,43
 332 29 332 29 295 57 c 0,44,45
 258 82 258 82 258 135 c 0,46,47
 258 180 258 180 291 246 c 2,30,-1
1475 1401 m 1,48,49
 1511 1438 1511 1438 1614 1438 c 2,50,-1
 2216 1438 l 2,51,52
 2273 1438 2273 1438 2314 1417 c 0,53,54
 2351 1397 2351 1397 2367 1360 c 1,55,56
 2380 1319 2380 1319 2380 1262 c 2,57,-1
 2380 184 l 2,58,59
 2380 98 2380 98 2355 70 c 0,60,61
 2306 4 2306 4 2208 4 c 2,62,-1
 1630 4 l 2,63,64
 1524 4 1524 4 1483 33 c 1,65,66
 1458 57 1458 57 1450 94 c 128,-1,67
 1442 131 1442 131 1442 172 c 2,68,-1
 1442 1253 l 2,69,70
 1442 1307 1442 1307 1450 1339 c 1,71,72
 1454 1372 1454 1372 1475 1401 c 1,48,49
676 2200 m 0,73,74
 696 2228 696 2228 696 2290 c 2,75,-1
 696 2638 l 2,76,77
 696 2712 696 2712 721 2740 c 0,78,79
 745 2765 745 2765 782 2785 c 0,80,81
 815 2806 815 2806 860 2830 c 0,82,83
 872 2839 872 2839 872 2875 c 0,84,85
 872 2904 872 2904 872 2920 c 2,86,-1
 872 3109 l 2,87,88
 872 3162 872 3162 851.5 3186.5 c 128,-1,89
 831 3211 831 3211 786 3211 c 1,90,91
 745 3207 745 3207 725 3207 c 2,92,-1
 471 3207 l 2,93,94
 377 3207 377 3207 348 3178 c 0,95,96
 319 3146 319 3146 319 3076 c 2,97,-1
 319 2302 l 2,98,99
 319 2224 319 2224 332 2208 c 0,100,101
 360 2175 360 2175 418 2175 c 2,102,-1
 590 2175 l 2,103,104
 655 2175 655 2175 676 2200 c 0,73,74
1982 229 m 1,105,106
 2007 254 2007 254 2007 319 c 2,107,-1
 2007 668 l 2,108,109
 2007 737 2007 737 2036 774 c 0,110,111
 2052 791 2052 791 2109 823 c 0,112,113
 2167 852 2167 852 2171 856 c 0,114,115
 2183 868 2183 868 2183 897 c 0,116,117
 2179 930 2179 930 2179 946 c 2,118,-1
 2179 1139 l 2,119,120
 2179 1192 2179 1192 2158.5 1216.5 c 128,-1,121
 2138 1241 2138 1241 2093 1241 c 1,122,123
 2052 1237 2052 1237 2032 1237 c 2,124,-1
 1778 1237 l 2,125,126
 1745 1237 1745 1237 1712 1237 c 0,127,128
 1679 1233 1679 1233 1659 1204 c 1,129,130
 1626 1171 1626 1171 1626 1102 c 2,131,-1
 1626 332 l 2,132,133
 1626 250 1626 250 1651 229 c 1,134,135
 1671 205 1671 205 1724 205 c 2,136,-1
 1901 205 l 2,137,138
 1966 205 1966 205 1982 229 c 1,105,106
EndSplineSet
Validated: 1
EndChar

StartChar: ampersand
Encoding: 38 38 7
Width: 2601
Flags: W
LayerCount: 2
Fore
SplineSet
2404 25 m 1,0,-1
 2478 -82 l 1,1,2
 2494 -115 2494 -115 2494 -164 c 0,3,4
 2494 -197 2494 -197 2486 -221 c 0,5,6
 2478 -250 2478 -250 2445 -266 c 0,7,8
 2408 -283 2408 -283 2367 -283 c 0,9,10
 2290 -283 2290 -283 2257 -238 c 1,11,-1
 2130 -90 l 1,12,-1
 2077 -33 l 1,13,14
 2023 0 2023 0 1942 0 c 2,15,-1
 360 0 l 2,16,17
 279 0 279 0 233 16 c 0,18,19
 184 29 184 29 152 78 c 0,20,21
 135 102 135 102 135 147 c 0,22,23
 131 193 131 193 131 217 c 2,24,-1
 131 1454 l 2,25,26
 131 1524 131 1524 139 1548 c 0,27,28
 143 1565 143 1565 172 1606 c 0,29,30
 201 1642 201 1642 328 1675 c 128,-1,31
 455 1708 455 1708 487 1774 c 0,32,33
 520 1835 520 1835 520 1954 c 2,34,-1
 520 3199 l 2,35,36
 520 3301 520 3301 590 3355 c 1,37,38
 618 3383 618 3383 672 3391 c 0,39,40
 725 3400 725 3400 795 3400 c 2,41,-1
 2175 3400 l 2,42,43
 2318 3400 2318 3400 2376 3355 c 1,44,45
 2425 3305 2425 3305 2425 3224 c 2,46,-1
 2425 1868 l 2,47,48
 2425 1802 2425 1802 2421 1765 c 0,49,50
 2413 1724 2413 1724 2396 1704 c 0,51,52
 2339 1622 2339 1622 2224 1622 c 2,53,-1
 1520 1622 l 2,54,55
 1487 1622 1487 1622 1470 1622 c 0,56,57
 1372 1622 1372 1622 1356 1597 c 1,58,59
 1348 1573 1348 1573 1348 1561 c 0,60,61
 1348 1528 1348 1528 1376 1483 c 2,62,-1
 1888 750 l 2,63,64
 1950 655 1950 655 1958 647 c 0,65,66
 1999 594 1999 594 2028 594 c 0,67,68
 2032 594 2032 594 2032 594 c 1,69,70
 2060 598 2060 598 2097 709 c 0,71,72
 2130 815 2130 815 2241 815 c 0,73,74
 2302 815 2302 815 2355 774 c 1,75,76
 2404 729 2404 729 2404 668 c 2,77,-1
 2404 25 l 1,0,-1
1872 213 m 0,78,79
 1880 221 1880 221 1880 238 c 0,80,81
 1880 250 1880 250 1876 266 c 0,82,83
 1860 303 1860 303 1839 332 c 2,84,-1
 1053 1438 l 2,85,86
 1024 1483 1024 1483 1004 1503 c 0,87,88
 971 1536 971 1536 942 1536 c 0,89,90
 930 1536 930 1536 922 1532 c 0,91,92
 881 1516 881 1516 864 1479 c 0,93,94
 844 1438 844 1438 844 1384 c 2,95,-1
 844 393 l 2,96,97
 844 356 844 356 844 340 c 0,98,99
 844 229 844 229 868 213 c 1,100,101
 889 193 889 193 913 188 c 0,102,103
 934 184 934 184 1020 184 c 2,104,-1
 1733 184 l 2,105,106
 1769 184 1769 184 1810 188 c 0,107,108
 1851 188 1851 188 1872 213 c 0,78,79
2011 3011 m 0,109,110
 1970 3043 1970 3043 1925 3056 c 1,111,112
 1880 3064 1880 3064 1802 3064 c 2,113,-1
 1098 3064 l 2,114,115
 1065 3064 1065 3064 1028 3064 c 0,116,117
 987 3060 987 3060 942 3027 c 0,118,119
 893 2994 893 2994 877 2945 c 1,120,121
 856 2896 856 2896 856 2826 c 2,122,-1
 856 2335 l 2,123,124
 856 2253 856 2253 864 2220 c 0,125,126
 872 2183 872 2183 942 2085 c 0,127,128
 1028 1966 1028 1966 1081 1950 c 0,129,130
 1130 1933 1130 1933 1249 1933 c 2,131,-1
 1815 1933 l 2,132,133
 1958 1933 1958 1933 2028 2015 c 0,134,135
 2093 2093 2093 2093 2093 2200 c 2,136,-1
 2093 2839 l 2,137,138
 2093 2888 2093 2888 2068 2937 c 0,139,140
 2044 2982 2044 2982 2011 3011 c 0,109,110
EndSplineSet
Validated: 1
EndChar

StartChar: quotesingle
Encoding: 39 39 8
Width: 799
Flags: W
LayerCount: 2
Fore
SplineSet
135 3355 m 1,0,1
 160 3387 160 3387 205 3400 c 0,2,3
 246 3408 246 3408 307 3408 c 2,4,-1
 557 3408 l 2,5,6
 655 3408 655 3408 696 3371 c 0,7,8
 733 3334 733 3334 733 3236 c 2,9,-1
 733 2789 l 2,10,11
 733 2642 733 2642 651 2527 c 0,12,13
 569 2408 569 2408 446 2351 c 0,14,15
 406 2335 406 2335 344 2322 c 0,16,17
 283 2310 283 2310 209 2310 c 1,18,19
 180 2314 180 2314 152 2347 c 0,20,21
 127 2376 127 2376 127 2400 c 0,22,23
 127 2404 127 2404 127 2408 c 0,24,25
 127 2429 127 2429 246 2511 c 128,-1,26
 365 2593 365 2593 365 2716 c 0,27,28
 365 2789 365 2789 319 2814 c 1,29,30
 238 2843 238 2843 156 2871 c 1,31,32
 131 2892 131 2892 123 2937 c 1,33,34
 111 2978 111 2978 111 3035 c 2,35,-1
 111 3252 l 2,36,37
 111 3310 111 3310 135 3355 c 1,0,1
EndSplineSet
Validated: 1
EndChar

StartChar: parenleft
Encoding: 40 40 9
Width: 1356
Flags: W
LayerCount: 2
Fore
SplineSet
1188 -246 m 0,0,1
 1180 -254 1180 -254 1163 -254 c 0,2,3
 1094 -254 1094 -254 897 -115 c 0,4,5
 594 102 594 102 401 459 c 0,6,7
 139 946 139 946 139 1593 c 0,8,9
 139 2109 139 2109 356 2564 c 0,10,11
 532 2929 532 2929 803 3174 c 0,12,13
 1036 3387 1036 3387 1176 3387 c 0,14,15
 1208 3387 1208 3387 1225 3371 c 1,16,17
 1225 3351 1225 3351 1098 3146 c 0,18,19
 913 2851 913 2851 811 2560 c 0,20,21
 651 2101 651 2101 651 1585 c 0,22,23
 651 930 651 930 811 467 c 0,24,25
 913 172 913 172 1090 -61 c 0,26,27
 1192 -193 1192 -193 1192 -233 c 0,28,29
 1192 -242 1192 -242 1188 -246 c 0,0,1
EndSplineSet
Validated: 1
EndChar

StartChar: parenright
Encoding: 41 41 10
Width: 1319
Flags: W
LayerCount: 2
Fore
SplineSet
1217 1593 m 0,0,1
 1217 946 1217 946 958 463 c 0,2,3
 766 106 766 106 467 -111 c 0,4,5
 266 -254 266 -254 197 -254 c 0,6,7
 180 -254 180 -254 172 -246 c 1,8,9
 336 -70 336 -70 508 369 c 0,10,11
 705 864 705 864 705 1585 c 0,12,13
 705 2097 705 2097 545 2556 c 0,14,15
 446 2843 446 2843 258 3142 c 0,16,17
 131 3346 131 3346 131 3371 c 1,18,19
 147 3387 147 3387 184 3387 c 0,20,21
 328 3387 328 3387 557 3178 c 0,22,23
 823 2937 823 2937 999 2568 c 0,24,25
 1217 2114 1217 2114 1217 1593 c 0,0,1
EndSplineSet
Validated: 1
EndChar

StartChar: asterisk
Encoding: 42 42 11
Width: 1343
Flags: W
LayerCount: 2
Fore
SplineSet
1024 2744 m 0,0,1
 1020 2736 1020 2736 1020 2728 c 256,2,3
 1020 2720 1020 2720 1024 2712 c 0,4,5
 1040 2695 1040 2695 1044 2687 c 2,6,-1
 1122 2564 l 1,7,8
 1143 2523 1143 2523 1143 2519 c 0,9,10
 1143 2474 1143 2474 1118 2462 c 1,11,-1
 971 2351 l 2,12,13
 950 2335 950 2335 922 2335 c 0,14,15
 905 2335 905 2335 889 2339 c 0,16,17
 856 2343 856 2343 831 2388 c 2,18,-1
 770 2482 l 1,19,20
 737 2523 737 2523 705 2523 c 0,21,22
 664 2523 664 2523 643 2486 c 1,23,-1
 561 2380 l 1,24,25
 541 2347 541 2347 508 2339 c 0,26,27
 496 2335 496 2335 487 2335 c 0,28,29
 467 2335 467 2335 451 2347 c 2,30,-1
 295 2470 l 2,31,32
 274 2482 274 2482 274 2515 c 0,33,34
 274 2531 274 2531 291 2564 c 1,35,-1
 356 2658 l 1,36,37
 385 2707 385 2707 385 2724 c 0,38,39
 385 2732 385 2732 385 2740 c 0,40,41
 385 2773 385 2773 356 2781 c 2,42,-1
 197 2843 l 1,43,44
 172 2847 172 2847 160 2892 c 0,45,46
 152 2925 152 2925 152 2941 c 0,47,48
 152 2949 152 2949 152 2953 c 2,49,-1
 205 3101 l 2,50,51
 221 3146 221 3146 254 3154 c 0,52,53
 266 3158 266 3158 279 3158 c 0,54,55
 299 3158 299 3158 324 3150 c 2,56,-1
 438 3109 l 2,57,58
 467 3101 467 3101 487 3101 c 0,59,60
 504 3101 504 3101 516 3105 c 1,61,62
 541 3125 541 3125 541 3166 c 2,63,-1
 541 3310 l 2,64,65
 541 3351 541 3351 557 3379 c 0,66,67
 573 3404 573 3404 627 3404 c 2,68,-1
 795 3404 l 2,69,70
 860 3404 860 3404 877 3383 c 0,71,72
 889 3363 889 3363 889 3326 c 2,73,-1
 889 3183 l 2,74,75
 889 3138 889 3138 897 3121 c 0,76,77
 905 3109 905 3109 934 3105 c 0,78,79
 950 3105 950 3105 958 3105 c 2,80,-1
 1073 3142 l 1,81,82
 1130 3150 1130 3150 1139 3150 c 0,83,84
 1184 3150 1184 3150 1196 3109 c 1,85,-1
 1253 2966 l 1,86,87
 1257 2945 1257 2945 1257 2929 c 0,88,89
 1257 2908 1257 2908 1253 2892 c 0,90,91
 1245 2847 1245 2847 1208 2843 c 1,92,-1
 1061 2785 l 2,93,94
 1036 2777 1036 2777 1024 2744 c 0,0,1
EndSplineSet
Validated: 1
EndChar

StartChar: comma
Encoding: 44 44 12
Width: 995
Flags: W
LayerCount: 2
Fore
SplineSet
418 -115 m 0,0,1
 418 -74 418 -74 397 -53 c 0,2,3
 377 -33 377 -33 340 -25 c 2,4,-1
 217 12 l 1,5,-1
 160 29 l 1,6,7
 139 41 139 41 131 66 c 0,8,9
 123 86 123 86 123 160 c 2,10,-1
 123 590 l 2,11,12
 123 643 123 643 135 672 c 0,13,14
 143 700 143 700 172 725 c 0,15,16
 201 745 201 745 233 754 c 0,17,18
 266 762 266 762 299 762 c 2,19,-1
 696 762 l 2,20,21
 733 762 733 762 774 762 c 1,22,23
 811 758 811 758 856 725 c 0,24,25
 901 688 901 688 901 590 c 2,26,-1
 901 25 l 2,27,28
 901 -250 901 -250 729 -442 c 0,29,30
 553 -639 553 -639 315 -639 c 0,31,32
 229 -639 229 -639 188 -610.5 c 128,-1,33
 147 -582 147 -582 147 -532 c 0,34,35
 147 -483 147 -483 209 -434 c 0,36,37
 266 -389 266 -389 324 -348 c 0,38,39
 377 -307 377 -307 397 -266 c 0,40,41
 418 -229 418 -229 418 -115 c 0,0,1
EndSplineSet
Validated: 1
EndChar

StartChar: period
Encoding: 46 46 13
Width: 967
Flags: W
LayerCount: 2
Fore
SplineSet
172 725 m 0,0,1
 193 741 193 741 225 750 c 0,2,3
 258 758 258 758 291 758 c 2,4,-1
 692 758 l 2,5,6
 729 758 729 758 770 758 c 1,7,8
 807 754 807 754 844 725 c 0,9,10
 897 676 897 676 897 590 c 2,11,-1
 897 172 l 2,12,13
 897 115 897 115 893 86 c 0,14,15
 885 57 885 57 860 29 c 0,16,17
 836 0 836 0 803 -4 c 0,18,19
 766 -12 766 -12 696 -12 c 2,20,-1
 303 -12 l 2,21,22
 274 -12 274 -12 258 -12 c 0,23,24
 184 -12 184 -12 156 25 c 0,25,26
 127 57 127 57 123 90 c 0,27,28
 115 123 115 123 115 156 c 2,29,-1
 115 590 l 2,30,31
 115 639 115 639 127 668 c 0,32,33
 135 696 135 696 172 725 c 0,0,1
EndSplineSet
Validated: 1
EndChar

StartChar: slash
Encoding: 47 47 14
Width: 2212
Flags: W
LayerCount: 2
Fore
SplineSet
143 246 m 1,0,-1
 1855 3289 l 2,1,2
 1905 3383 1905 3383 1999 3383 c 0,3,4
 2028 3383 2028 3383 2056 3367 c 0,5,6
 2114 3326 2114 3326 2114 3273 c 0,7,8
 2114 3240 2114 3240 2105 3219 c 0,9,10
 2097 3203 2097 3203 2077 3166 c 2,11,-1
 344 98 l 1,12,13
 311 29 311 29 221 29 c 0,14,15
 184 29 184 29 147 57 c 0,16,17
 111 82 111 82 111 135 c 0,18,19
 111 180 111 180 143 246 c 1,0,-1
EndSplineSet
Validated: 1
EndChar

StartChar: zero
Encoding: 48 48 15
Width: 2875
Flags: W
LayerCount: 2
Fore
SplineSet
340 3187 m 0,0,1
 426 3269 426 3269 549 3322 c 0,2,3
 696 3387 696 3387 844 3387 c 2,4,-1
 2040 3387 l 2,5,6
 2183 3387 2183 3387 2310 3338 c 0,7,8
 2437 3285 2437 3285 2531 3203 c 0,9,10
 2736 3023 2736 3023 2736 2736 c 2,11,-1
 2736 770 l 2,12,13
 2736 602 2736 602 2699 463 c 0,14,15
 2658 324 2658 324 2580 238 c 0,16,17
 2474 123 2474 123 2347 57 c 0,18,19
 2191 -25 2191 -25 2023 -25 c 2,20,-1
 885 -25 l 2,21,22
 705 -25 705 -25 553 41 c 1,23,24
 401 102 401 102 303 213 c 0,25,26
 131 410 131 410 131 684 c 2,27,-1
 131 2748 l 2,28,29
 131 2875 131 2875 209 3015 c 0,30,31
 266 3117 266 3117 340 3187 c 0,0,1
934 2978 m 2,32,33
 758 2978 758 2978 639 2879 c 1,34,35
 569 2826 569 2826 553 2757 c 0,36,37
 532 2683 532 2683 532 2572 c 2,38,-1
 532 692 l 2,39,40
 532 618 532 618 553 569 c 1,41,42
 569 520 569 520 618 475 c 0,43,44
 688 410 688 410 758 393 c 1,45,46
 823 373 823 373 942 373 c 2,47,-1
 1925 373 l 2,48,49
 2032 373 2032 373 2101 401 c 0,50,51
 2171 426 2171 426 2228 492 c 1,52,53
 2286 553 2286 553 2306 614 c 1,54,55
 2322 676 2322 676 2322 774 c 2,56,-1
 2322 2568 l 2,57,58
 2322 2707 2322 2707 2301.5 2764.5 c 128,-1,59
 2281 2822 2281 2822 2236 2867 c 0,60,61
 2179 2925 2179 2925 2101 2953 c 0,62,63
 2023 2978 2023 2978 1921 2978 c 2,64,-1
 934 2978 l 2,32,33
1102 1483 m 0,65,66
 1126 1499 1126 1499 1159 1507 c 0,67,68
 1192 1516 1192 1516 1225 1516 c 2,69,-1
 1622 1516 l 2,70,71
 1659 1516 1659 1516 1700 1516 c 1,72,73
 1737 1511 1737 1511 1782 1478.5 c 128,-1,74
 1827 1446 1827 1446 1827 1348 c 2,75,-1
 1827 930 l 2,76,77
 1827 877 1827 877 1823 848 c 0,78,79
 1815 815 1815 815 1790 786 c 0,80,81
 1765 758 1765 758 1737 754 c 0,82,83
 1704 745 1704 745 1630 745 c 2,84,-1
 1237 745 l 2,85,86
 1208 745 1208 745 1192 745 c 0,87,88
 1122 745 1122 745 1094 778 c 0,89,90
 1061 811 1061 811 1053 844 c 0,91,92
 1049 860 1049 860 1049 913 c 2,93,-1
 1049 1348 l 2,94,95
 1049 1401 1049 1401 1061 1430 c 0,96,97
 1069 1458 1069 1458 1102 1483 c 0,65,66
EndSplineSet
Validated: 1
EndChar

StartChar: one
Encoding: 49 49 16
Width: 1749
Flags: W
LayerCount: 2
Fore
SplineSet
225 3367 m 1,0,1
 283 3420 283 3420 365 3420 c 2,2,-1
 668 3420 l 2,3,4
 741 3420 741 3420 774 3416 c 1,5,6
 803 3408 803 3408 840 3379 c 1,7,8
 922 3301 922 3301 922 3162 c 2,9,-1
 922 1716 l 2,10,11
 922 1622 922 1622 950 1589 c 0,12,13
 999 1536 999 1536 1106 1536 c 2,14,-1
 1401 1536 l 2,15,16
 1491 1536 1491 1536 1556 1483 c 1,17,18
 1618 1425 1618 1425 1618 1307 c 2,19,-1
 1618 283 l 2,20,21
 1618 180 1618 180 1610 139 c 0,22,23
 1602 94 1602 94 1556 53 c 0,24,25
 1511 8 1511 8 1475 4 c 0,26,27
 1438 -4 1438 -4 1352 -4 c 2,28,-1
 426 -4 l 2,29,30
 389 -4 389 -4 369 -4 c 0,31,32
 315 -4 315 -4 283 4 c 1,33,34
 250 8 250 8 221 29 c 0,35,36
 180 61 180 61 164 106 c 0,37,38
 147 152 147 152 147 213 c 2,39,-1
 147 1311 l 2,40,41
 147 1409 147 1409 217 1479 c 0,42,43
 250 1511 250 1511 352 1536 c 0,44,45
 455 1561 455 1561 483 1593 c 0,46,47
 508 1622 508 1622 516 1675 c 0,48,49
 520 1724 520 1724 520 1810 c 2,50,-1
 520 2597 l 2,51,52
 520 2687 520 2687 500 2744 c 1,53,54
 475 2802 475 2802 365 2834 c 1,55,56
 250 2863 250 2863 213 2900 c 0,57,58
 164 2957 164 2957 164 3043 c 2,59,-1
 164 3199 l 2,60,61
 164 3318 164 3318 225 3367 c 1,0,1
EndSplineSet
Validated: 1
EndChar

StartChar: two
Encoding: 50 50 17
Width: 1802
Flags: W
LayerCount: 2
Fore
SplineSet
180 3203 m 0,0,1
 180 3293 180 3293 262 3351 c 0,2,3
 340 3404 340 3404 442 3404 c 2,4,-1
 1446 3404 l 2,5,6
 1516 3404 1516 3404 1548 3400 c 1,7,8
 1577 3391 1577 3391 1610 3363 c 1,9,10
 1642 3330 1642 3330 1663 3289 c 1,11,12
 1679 3244 1679 3244 1679 3154 c 2,13,-1
 1679 1745 l 2,14,15
 1679 1683 1679 1683 1667 1638 c 128,-1,16
 1655 1593 1655 1593 1618 1556 c 0,17,18
 1577 1516 1577 1516 1520 1499 c 0,19,20
 1458 1479 1458 1479 1376 1479 c 2,21,-1
 807 1479 l 2,22,23
 705 1479 705 1479 692 1475 c 0,24,25
 668 1466 668 1466 631 1434 c 0,26,27
 569 1376 569 1376 569 1286 c 2,28,-1
 569 561 l 2,29,30
 569 492 569 492 573 479 c 0,31,32
 573 471 573 471 602 442 c 0,33,34
 631 414 631 414 668 410 c 1,35,36
 705 401 705 401 782 401 c 2,37,-1
 1438 401 l 2,38,39
 1528 401 1528 401 1593 344 c 0,40,41
 1659 287 1659 287 1659 193 c 0,42,43
 1659 111 1659 111 1602 57 c 0,44,45
 1540 0 1540 0 1454 0 c 2,46,-1
 451 -4 l 2,47,48
 406 -4 406 -4 385 -4 c 0,49,50
 315 -4 315 -4 283 8 c 1,51,52
 250 16 250 16 221 45 c 0,53,54
 193 74 193 74 184 119 c 0,55,56
 172 160 172 160 172 229 c 2,57,-1
 172 1610 l 2,58,59
 172 1688 172 1688 184 1733 c 0,60,61
 193 1774 193 1774 229 1819 c 1,62,63
 299 1888 299 1888 434 1888 c 2,64,-1
 1102 1888 l 2,65,66
 1139 1888 1139 1888 1180 1888 c 1,67,68
 1221 1896 1221 1896 1249 1929 c 0,69,70
 1274 1958 1274 1958 1274 2040 c 2,71,-1
 1274 2822 l 2,72,73
 1274 2900 1274 2900 1249 2937 c 0,74,75
 1225 2970 1225 2970 1192 2978 c 128,-1,76
 1159 2986 1159 2986 1118 2986 c 2,77,-1
 430 2986 l 2,78,79
 324 2986 324 2986 254 3043 c 0,80,81
 180 3101 180 3101 180 3203 c 0,0,1
EndSplineSet
Validated: 1
EndChar

StartChar: three
Encoding: 51 51 18
Width: 2159
Flags: W
LayerCount: 2
Fore
SplineSet
168 3211 m 0,0,1
 168 3301 168 3301 238 3359 c 0,2,3
 303 3412 303 3412 397 3412 c 2,4,-1
 1364 3412 l 2,5,6
 1466 3412 1466 3412 1511 3408 c 0,7,8
 1556 3400 1556 3400 1602 3363 c 1,9,10
 1642 3322 1642 3322 1655 3269 c 1,11,12
 1663 3215 1663 3215 1663 3125 c 2,13,-1
 1663 1950 l 2,14,15
 1663 1913 1663 1913 1667 1868 c 0,16,17
 1667 1823 1667 1823 1704 1786 c 128,-1,18
 1741 1749 1741 1749 1884 1700 c 0,19,20
 1950 1675 1950 1675 1982 1642 c 0,21,22
 2036 1593 2036 1593 2036 1479 c 2,23,-1
 2036 324 l 2,24,25
 2036 217 2036 217 2032 172 c 1,26,27
 2023 123 2023 123 1987 78 c 0,28,29
 1946 29 1946 29 1888 16 c 0,30,31
 1831 0 1831 0 1749 0 c 2,32,-1
 348 0 l 2,33,34
 262 0 262 0 205 53 c 1,35,36
 143 102 143 102 143 188 c 256,37,38
 143 274 143 274 209 332 c 0,39,40
 270 385 270 385 360 385 c 2,41,-1
 1008 385 l 2,42,43
 1077 385 1077 385 1118 397 c 0,44,45
 1159 406 1159 406 1196 442 c 0,46,47
 1233 479 1233 479 1245 520 c 0,48,49
 1253 561 1253 561 1253 635 c 2,50,-1
 1253 1290 l 2,51,52
 1253 1331 1253 1331 1249 1372 c 1,53,54
 1241 1409 1241 1409 1196 1450 c 1,55,56
 1147 1487 1147 1487 1061 1487 c 2,57,-1
 385 1487 l 2,58,59
 287 1487 287 1487 217 1548 c 1,60,61
 143 1606 143 1606 143 1700 c 0,62,63
 143 1786 143 1786 217 1847 c 0,64,65
 287 1905 287 1905 389 1905 c 2,66,-1
 999 1905 l 2,67,68
 1073 1905 1073 1905 1126 1917 c 0,69,70
 1176 1925 1176 1925 1208 1958 c 0,71,72
 1237 1987 1237 1987 1245 2023 c 0,73,74
 1253 2056 1253 2056 1253 2105 c 2,75,-1
 1253 2798 l 2,76,77
 1253 2867 1253 2867 1249 2884 c 0,78,79
 1241 2920 1241 2920 1208 2953 c 0,80,81
 1176 2982 1176 2982 1130 2990 c 0,82,83
 1085 2998 1085 2998 1032 2998 c 2,84,-1
 397 2998 l 2,85,86
 303 2998 303 2998 238 3060 c 1,87,88
 168 3117 168 3117 168 3211 c 0,0,1
EndSplineSet
Validated: 1
EndChar

StartChar: four
Encoding: 52 52 19
Width: 2535
Flags: W
LayerCount: 2
Fore
SplineSet
238 3355 m 0,0,1
 274 3383 274 3383 315 3396 c 0,2,3
 352 3404 352 3404 414 3404 c 2,4,-1
 733 3404 l 2,5,6
 786 3404 786 3404 819 3400 c 1,7,8
 848 3391 848 3391 877 3371 c 0,9,10
 930 3330 930 3330 942 3289 c 0,11,12
 950 3248 950 3248 950 3154 c 2,13,-1
 950 1339 l 2,14,15
 950 1237 950 1237 987 1188 c 0,16,17
 1020 1139 1020 1139 1102 1139 c 2,18,-1
 1479 1139 l 2,19,20
 1552 1139 1552 1139 1581 1167 c 0,21,22
 1606 1192 1606 1192 1618 1225 c 0,23,24
 1626 1257 1626 1257 1634 1298 c 0,25,26
 1642 1335 1642 1335 1651 1368 c 0,27,28
 1659 1397 1659 1397 1692 1438 c 0,29,30
 1720 1475 1720 1475 1774 1495 c 0,31,32
 1827 1511 1827 1511 1892 1511 c 2,33,-1
 2179 1511 l 2,34,35
 2253 1511 2253 1511 2310 1475 c 0,36,37
 2408 1409 2408 1409 2408 1262 c 2,38,-1
 2408 229 l 2,39,40
 2408 152 2408 152 2404 119 c 0,41,42
 2396 86 2396 86 2367 45 c 0,43,44
 2335 0 2335 0 2302 -12 c 0,45,46
 2265 -25 2265 -25 2195 -25 c 2,47,-1
 1868 -29 l 2,48,49
 1798 -29 1798 -29 1757 -16 c 1,50,51
 1716 -8 1716 -8 1683 33 c 0,52,53
 1651 70 1651 70 1642 115 c 0,54,55
 1634 156 1634 156 1634 213 c 2,56,-1
 1634 487 l 2,57,58
 1634 557 1634 557 1622 606 c 1,59,60
 1606 651 1606 651 1569 676 c 1,61,62
 1532 696 1532 696 1499 705 c 1,63,64
 1466 709 1466 709 1409 709 c 2,65,-1
 422 709 l 2,66,67
 377 709 377 709 356 709 c 0,68,69
 295 709 295 709 262 721 c 1,70,71
 225 729 225 729 193 770 c 0,72,73
 176 791 176 791 168 823 c 0,74,75
 160 852 160 852 160 881 c 0,76,77
 164 942 164 942 164 979 c 2,78,-1
 164 3150 l 2,79,80
 164 3224 164 3224 180 3273 c 0,81,82
 193 3318 193 3318 238 3355 c 0,0,1
EndSplineSet
Validated: 1
EndChar

StartChar: five
Encoding: 53 53 20
Width: 2130
Flags: W
LayerCount: 2
Fore
SplineSet
221 3351 m 0,0,1
 262 3387 262 3387 315 3396 c 1,2,3
 365 3400 365 3400 471 3400 c 2,4,-1
 1761 3400 l 2,5,6
 1851 3400 1851 3400 1917 3346 c 0,7,8
 1982 3289 1982 3289 1982 3199 c 0,9,10
 1982 3101 1982 3101 1921 3043 c 0,11,12
 1860 2986 1860 2986 1765 2986 c 2,13,-1
 844 2986 l 2,14,15
 791 2986 791 2986 766 2986 c 0,16,17
 709 2986 709 2986 692 2982 c 0,18,19
 659 2974 659 2974 623 2945 c 0,20,21
 549 2884 549 2884 549 2777 c 2,22,-1
 549 2114 l 2,23,24
 549 2060 549 2060 553 2015 c 1,25,26
 553 1966 553 1966 590 1937 c 0,27,28
 623 1909 623 1909 668 1905 c 1,29,30
 713 1896 713 1896 791 1896 c 2,31,-1
 1720 1896 l 2,32,33
 1839 1896 1839 1896 1917 1835 c 0,34,35
 1995 1769 1995 1769 1995 1634 c 2,36,-1
 1995 229 l 2,37,38
 1995 172 1995 172 1991 139 c 128,-1,39
 1987 106 1987 106 1958 70 c 0,40,41
 1929 29 1929 29 1880 16 c 0,42,43
 1827 0 1827 0 1749 0 c 2,44,-1
 348 0 l 2,45,46
 254 0 254 0 184 57 c 1,47,48
 111 111 111 111 111 197 c 0,49,50
 111 291 111 291 184 348 c 0,51,52
 258 401 258 401 360 401 c 2,53,-1
 1102 401 l 2,54,55
 1171 401 1171 401 1220.5 409.5 c 128,-1,56
 1270 418 1270 418 1298 446 c 0,57,58
 1327 475 1327 475 1335 520 c 0,59,60
 1343 561 1343 561 1343 614 c 2,61,-1
 1343 1290 l 2,62,63
 1343 1335 1343 1335 1335 1372 c 0,64,65
 1327 1405 1327 1405 1303 1434 c 1,66,67
 1274 1458 1274 1458 1237 1466 c 0,68,69
 1196 1475 1196 1475 1155 1475 c 0,70,71
 1118 1475 1118 1475 1098 1475 c 2,72,-1
 414 1475 l 2,73,74
 324 1475 324 1475 266 1491 c 0,75,76
 209 1503 209 1503 176 1548 c 128,-1,77
 143 1593 143 1593 139 1642 c 0,78,79
 131 1692 131 1692 131 1786 c 2,80,-1
 131 3146 l 2,81,82
 131 3277 131 3277 221 3351 c 0,0,1
EndSplineSet
Validated: 1
EndChar

StartChar: six
Encoding: 54 54 21
Width: 2523
Flags: W
LayerCount: 2
Fore
SplineSet
233 3342 m 0,0,1
 307 3404 307 3404 434 3404 c 2,2,-1
 1401 3404 l 2,3,4
 1544 3404 1544 3404 1614 3355 c 1,5,6
 1708 3281 1708 3281 1708 3146 c 2,7,-1
 1708 2769 l 2,8,9
 1708 2646 1708 2646 1659 2556 c 128,-1,10
 1610 2466 1610 2466 1507 2466 c 0,11,12
 1421 2466 1421 2466 1355.5 2523 c 128,-1,13
 1290 2580 1290 2580 1290 2666 c 2,14,-1
 1290 2793 l 2,15,16
 1290 2855 1290 2855 1270 2900 c 0,17,18
 1249 2941 1249 2941 1217 2961 c 0,19,20
 1184 2978 1184 2978 1102 2978 c 2,21,-1
 758 2978 l 2,22,23
 676 2978 676 2978 639 2945 c 1,24,25
 586 2912 586 2912 586 2814 c 2,26,-1
 586 1765 l 2,27,28
 586 1716 586 1716 590 1675 c 0,29,30
 590 1634 590 1634 627 1602 c 1,31,32
 659 1565 659 1565 713 1556 c 0,33,34
 762 1544 762 1544 852 1544 c 2,35,-1
 2150 1544 l 2,36,37
 2224 1544 2224 1544 2277 1532 c 1,38,39
 2327 1516 2327 1516 2363 1470 c 0,40,41
 2417 1405 2417 1405 2417 1286 c 2,42,-1
 2417 262 l 2,43,44
 2417 188 2417 188 2408 152 c 0,45,46
 2396 111 2396 111 2359 70 c 128,-1,47
 2322 29 2322 29 2277 16 c 0,48,49
 2232 0 2232 0 2163 0 c 2,50,-1
 434 -4 l 2,51,52
 397 -4 397 -4 377 -4 c 0,53,54
 291 -4 291 -4 237.5 33 c 128,-1,55
 184 70 184 70 172 123 c 1,56,57
 156 172 156 172 156 246 c 2,58,-1
 156 3097 l 2,59,60
 156 3187 156 3187 172 3244 c 0,61,62
 184 3297 184 3297 233 3342 c 0,0,1
1929 1090 m 0,63,64
 1909 1118 1909 1118 1864 1130 c 0,65,66
 1819 1139 1819 1139 1749 1139 c 0,67,68
 1696 1139 1696 1139 1671 1139 c 2,69,-1
 819 1139 l 2,70,71
 786 1139 786 1139 741 1139 c 0,72,73
 692 1135 692 1135 651 1106 c 128,-1,74
 610 1077 610 1077 594 1032 c 0,75,76
 578 983 578 983 578 926 c 2,77,-1
 578 618 l 2,78,79
 578 537 578 537 582 516 c 0,80,81
 586 492 586 492 610 459 c 1,82,83
 631 422 631 422 676 414 c 1,84,85
 721 401 721 401 799 401 c 2,86,-1
 1716 401 l 2,87,88
 1798 401 1798 401 1843 414 c 0,89,90
 1884 422 1884 422 1925 471 c 0,91,92
 1954 504 1954 504 1962 549 c 0,93,94
 1970 590 1970 590 1970 643 c 2,95,-1
 1970 926 l 2,96,97
 1970 987 1970 987 1966 1020 c 0,98,99
 1958 1053 1958 1053 1929 1090 c 0,63,64
EndSplineSet
Validated: 1
EndChar

StartChar: seven
Encoding: 55 55 22
Width: 2175
Flags: W
LayerCount: 2
Fore
SplineSet
201 3351 m 0,0,1
 229 3379 229 3379 283 3396 c 0,2,3
 332 3412 332 3412 434 3412 c 2,4,-1
 1782 3412 l 2,5,6
 1872 3412 1872 3412 1913 3408 c 1,7,8
 1950 3400 1950 3400 1986.5 3363 c 128,-1,9
 2023 3326 2023 3326 2036 3285 c 0,10,11
 2048 3240 2048 3240 2048 3187 c 2,12,-1
 2048 2105 l 2,13,14
 2048 2032 2048 2032 2044 1991 c 0,15,16
 2036 1946 2036 1946 2011 1921 c 0,17,18
 1987 1896 1987 1896 1958 1876 c 0,19,20
 1950 1872 1950 1872 1937 1864 c 2,21,-1
 1397 1614 l 2,22,23
 1376 1606 1376 1606 1335 1565 c 0,24,25
 1311 1540 1311 1540 1311 1479 c 2,26,-1
 1311 201 l 2,27,28
 1311 119 1311 119 1257 61 c 0,29,30
 1200 0 1200 0 1114 0 c 256,31,32
 1028 0 1028 0 963 57 c 1,33,34
 893 111 893 111 893 188 c 2,35,-1
 893 1614 l 2,36,37
 893 1692 893 1692 901 1729 c 0,38,39
 905 1761 905 1761 934 1810 c 0,40,41
 946 1831 946 1831 987 1864 c 0,42,43
 1028 1892 1028 1892 1049 1901 c 2,44,-1
 1552 2142 l 1,45,-1
 1610 2183 l 1,46,47
 1626 2208 1626 2208 1630 2273 c 0,48,49
 1630 2335 1630 2335 1630 2372 c 2,50,-1
 1630 2806 l 2,51,52
 1630 2871 1630 2871 1626 2888 c 0,53,54
 1618 2925 1618 2925 1589 2953 c 0,55,56
 1556 2982 1556 2982 1511 2990 c 128,-1,57
 1466 2998 1466 2998 1405 2998 c 2,58,-1
 766 2998 l 2,59,60
 737 2998 737 2998 700 2998 c 1,61,62
 664 2994 664 2994 623 2966 c 0,63,64
 557 2916 557 2916 557 2822 c 2,65,-1
 557 2441 l 2,66,67
 557 2359 557 2359 500 2306 c 0,68,69
 438 2249 438 2249 352 2249 c 0,70,71
 262 2249 262 2249 201 2306 c 1,72,73
 135 2359 135 2359 135 2445 c 2,74,-1
 135 3178 l 2,75,76
 135 3285 135 3285 201 3351 c 0,0,1
EndSplineSet
Validated: 1
EndChar

StartChar: eight
Encoding: 56 56 23
Width: 2892
Flags: W
LayerCount: 2
Fore
SplineSet
639 3371 m 0,0,1
 672 3391 672 3391 729 3395.5 c 128,-1,2
 786 3400 786 3400 815 3400 c 2,3,-1
 2105 3400 l 2,4,5
 2191 3400 2191 3400 2236 3391 c 0,6,7
 2277 3379 2277 3379 2327 3342 c 1,8,9
 2413 3269 2413 3269 2413 3125 c 2,10,-1
 2413 1937 l 2,11,12
 2413 1864 2413 1864 2433 1815 c 1,13,14
 2449 1765 2449 1765 2531 1733 c 0,15,16
 2724 1655 2724 1655 2744 1622 c 0,17,18
 2765 1589 2765 1589 2773 1552 c 0,19,20
 2777 1516 2777 1516 2777 1454 c 2,21,-1
 2777 246 l 2,22,23
 2777 119 2777 119 2724 70 c 0,24,25
 2666 16 2666 16 2613 8 c 0,26,27
 2556 -4 2556 -4 2458 -4 c 2,28,-1
 467 -4 l 2,29,30
 377 -4 377 -4 315 12 c 0,31,32
 254 25 254 25 209 70 c 0,33,34
 184 94 184 94 176 143 c 1,35,36
 164 188 164 188 164 246 c 2,37,-1
 164 1495 l 2,38,39
 164 1585 164 1585 209 1638 c 0,40,41
 238 1675 238 1675 336 1704 c 0,42,43
 430 1729 430 1729 479 1769 c 0,44,45
 508 1794 508 1794 516 1847 c 0,46,47
 524 1896 524 1896 524 1954 c 0,48,49
 524 2003 524 2003 524 2028 c 2,50,-1
 524 3142 l 2,51,52
 524 3305 524 3305 639 3371 c 0,0,1
1946 2945 m 0,53,54
 1921 2966 1921 2966 1855 2970 c 0,55,56
 1790 2974 1790 2974 1778 2974 c 2,57,-1
 1167 2974 l 1,58,59
 1114 2978 1114 2978 1085 2978 c 0,60,61
 1040 2978 1040 2978 1004 2957 c 0,62,63
 963 2933 963 2933 954 2904 c 0,64,65
 942 2871 942 2871 942 2818 c 0,66,67
 942 2777 942 2777 942 2757 c 2,68,-1
 942 2101 l 2,69,70
 942 2007 942 2007 958 1974 c 1,71,72
 995 1917 995 1917 1094 1917 c 2,73,-1
 1835 1917 l 2,74,75
 1905 1917 1905 1917 1946 1950 c 0,76,77
 1982 1982 1982 1982 1991 2028 c 1,78,79
 1995 2073 1995 2073 1995 2109 c 2,80,-1
 1995 2789 l 2,81,82
 1995 2859 1995 2859 1991 2888 c 1,83,84
 1982 2916 1982 2916 1946 2945 c 0,53,54
1958 1446 m 0,85,86
 1933 1475 1933 1475 1901 1483 c 1,87,88
 1864 1487 1864 1487 1794 1487 c 2,89,-1
 1163 1487 l 2,90,91
 1130 1487 1130 1487 1118 1487 c 0,92,93
 1028 1487 1028 1487 999 1462 c 0,94,95
 938 1417 938 1417 938 1348 c 2,96,-1
 938 623 l 2,97,98
 938 578 938 578 942 537 c 0,99,100
 942 496 942 496 971 463 c 0,101,102
 999 426 999 426 1048.5 413.5 c 128,-1,103
 1098 401 1098 401 1151 401 c 2,104,-1
 1774 401 l 2,105,106
 1868 401 1868 401 1900.5 409.5 c 128,-1,107
 1933 418 1933 418 1966 459 c 0,108,109
 1995 500 1995 500 1995 590 c 2,110,-1
 1995 1327 l 2,111,112
 1995 1397 1995 1397 1958 1446 c 0,85,86
EndSplineSet
Validated: 1
EndChar

StartChar: nine
Encoding: 57 57 24
Width: 2527
Flags: W
LayerCount: 2
Fore
SplineSet
229 3318 m 0,0,1
 270 3367 270 3367 328 3387 c 0,2,3
 381 3404 381 3404 463 3404 c 2,4,-1
 2126 3404 l 2,5,6
 2200 3404 2200 3404 2245 3387 c 1,7,8
 2286 3367 2286 3367 2331 3318 c 0,9,10
 2408 3236 2408 3236 2408 3109 c 2,11,-1
 2408 221 l 2,12,13
 2408 176 2408 176 2408 135 c 1,14,15
 2400 86 2400 86 2367 53 c 0,16,17
 2335 20 2335 20 2302 12 c 0,18,19
 2265 0 2265 0 2200 0 c 2,20,-1
 1831 -4 l 2,21,22
 1765 -4 1765 -4 1724 12 c 0,23,24
 1683 29 1683 29 1651 86 c 0,25,26
 1638 106 1638 106 1634 143 c 128,-1,27
 1630 180 1630 180 1630 217 c 2,28,-1
 1630 1290 l 2,29,30
 1630 1348 1630 1348 1622 1380 c 1,31,32
 1610 1409 1610 1409 1581 1442 c 1,33,34
 1548 1470 1548 1470 1516 1479 c 1,35,36
 1479 1483 1479 1483 1405 1483 c 2,37,-1
 426 1483 l 2,38,39
 262 1483 262 1483 205 1561 c 1,40,41
 156 1618 156 1618 156 1724 c 2,42,-1
 156 3105 l 2,43,44
 156 3183 156 3183 168 3224 c 128,-1,45
 180 3265 180 3265 229 3318 c 0,0,1
1954 2920 m 0,46,47
 1925 2961 1925 2961 1876 2974 c 1,48,49
 1823 2982 1823 2982 1794 2982 c 0,50,51
 1749 2982 1749 2982 1724 2982 c 2,52,-1
 807 2982 l 2,53,54
 762 2982 762 2982 721 2982 c 0,55,56
 676 2978 676 2978 635 2945 c 0,57,58
 594 2908 594 2908 586 2871 c 0,59,60
 573 2830 573 2830 573 2761 c 2,61,-1
 573 2122 l 2,62,63
 573 2068 573 2068 582 2036 c 1,64,65
 586 2003 586 2003 606 1970 c 1,66,67
 659 1901 659 1901 770 1901 c 2,68,-1
 1761 1901 l 2,69,70
 1851 1901 1851 1901 1917 1958 c 0,71,72
 1978 2011 1978 2011 1978 2126 c 2,73,-1
 1978 2773 l 2,74,75
 1978 2884 1978 2884 1954 2920 c 0,46,47
EndSplineSet
Validated: 1
EndChar

StartChar: colon
Encoding: 58 58 25
Width: 1020
Flags: W
LayerCount: 2
Fore
SplineSet
184 2171 m 0,0,1
 209 2187 209 2187 242 2195 c 0,2,3
 274 2204 274 2204 307 2204 c 2,4,-1
 705 2204 l 2,5,6
 741 2204 741 2204 782 2204 c 1,7,8
 819 2200 819 2200 864 2167 c 0,9,10
 909 2130 909 2130 909 2032 c 2,11,-1
 909 1614 l 2,12,13
 909 1561 909 1561 905 1532 c 0,14,15
 901 1499 901 1499 877 1475 c 0,16,17
 852 1446 852 1446 819 1442 c 0,18,19
 782 1434 782 1434 713 1434 c 2,20,-1
 319 1434 l 2,21,22
 291 1434 291 1434 274 1434 c 0,23,24
 201 1434 201 1434 164 1475 c 128,-1,25
 127 1516 127 1516 127 1602 c 2,26,-1
 127 2032 l 2,27,28
 127 2126 127 2126 184 2171 c 0,0,1
184 737 m 0,29,30
 209 754 209 754 241.5 762 c 128,-1,31
 274 770 274 770 307 770 c 2,32,-1
 705 770 l 2,33,34
 741 770 741 770 782 770 c 1,35,36
 819 766 819 766 864 733 c 0,37,38
 909 696 909 696 909 598 c 2,39,-1
 909 180 l 2,40,41
 909 127 909 127 905 98 c 0,42,43
 901 66 901 66 877 41 c 0,44,45
 852 12 852 12 819 8 c 0,46,47
 782 0 782 0 713 0 c 2,48,-1
 319 0 l 2,49,50
 291 0 291 0 274 0 c 0,51,52
 201 0 201 0 164 41 c 128,-1,53
 127 82 127 82 127 168 c 2,54,-1
 127 598 l 2,55,56
 127 692 127 692 184 737 c 0,29,30
EndSplineSet
Validated: 1
EndChar

StartChar: semicolon
Encoding: 59 59 26
Width: 991
Flags: W
LayerCount: 2
Fore
SplineSet
180 2130 m 1,0,1
 201 2150 201 2150 233 2159 c 0,2,3
 262 2167 262 2167 299 2167 c 2,4,-1
 696 2167 l 2,5,6
 733 2167 733 2167 774 2167 c 1,7,8
 811 2159 811 2159 856 2126 c 128,-1,9
 901 2093 901 2093 901 1995 c 2,10,-1
 901 1577 l 2,11,12
 901 1524 901 1524 897 1495 c 0,13,14
 889 1462 889 1462 868 1438 c 0,15,16
 844 1409 844 1409 811 1405 c 0,17,18
 774 1397 774 1397 705 1397 c 2,19,-1
 311 1397 l 2,20,21
 283 1397 283 1397 266 1397 c 0,22,23
 193 1397 193 1397 160 1438 c 1,24,25
 123 1475 123 1475 123 1561 c 2,26,-1
 123 1995 l 2,27,28
 123 2093 123 2093 180 2130 c 1,0,1
418 -115 m 0,29,30
 418 -74 418 -74 397 -53 c 0,31,32
 377 -33 377 -33 340 -25 c 2,33,-1
 217 12 l 1,34,-1
 160 29 l 1,35,36
 139 41 139 41 131 66 c 0,37,38
 123 86 123 86 123 160 c 2,39,-1
 123 590 l 2,40,41
 123 643 123 643 135 672 c 0,42,43
 143 700 143 700 172 725 c 0,44,45
 201 745 201 745 233 754 c 0,46,47
 266 762 266 762 299 762 c 2,48,-1
 696 762 l 2,49,50
 733 762 733 762 774 762 c 1,51,52
 811 758 811 758 856 725 c 0,53,54
 901 688 901 688 901 590 c 2,55,-1
 901 25 l 2,56,57
 901 -250 901 -250 729 -442 c 0,58,59
 553 -639 553 -639 315 -639 c 0,60,61
 229 -639 229 -639 188 -610.5 c 128,-1,62
 147 -582 147 -582 147 -532 c 0,63,64
 147 -483 147 -483 209 -434 c 0,65,66
 266 -389 266 -389 324 -348 c 0,67,68
 377 -307 377 -307 397 -266 c 0,69,70
 418 -229 418 -229 418 -115 c 0,29,30
EndSplineSet
Validated: 1
EndChar

StartChar: question
Encoding: 63 63 27
Width: 2073
Flags: W
LayerCount: 2
Fore
SplineSet
205 3346 m 1,0,1
 246 3375 246 3375 287 3387 c 0,2,3
 324 3396 324 3396 381 3396 c 0,4,5
 426 3396 426 3396 451 3396 c 2,6,-1
 1757 3396 l 2,7,8
 1802 3396 1802 3396 1851 3396 c 1,9,10
 1896 3387 1896 3387 1937 3355 c 0,11,12
 1974 3322 1974 3322 1987 3285 c 1,13,14
 1995 3244 1995 3244 1995 3170 c 2,15,-1
 1995 2126 l 2,16,17
 1995 2089 1995 2089 1995 2073 c 0,18,19
 1995 2028 1995 2028 1991 2007 c 0,20,21
 1987 1978 1987 1978 1966 1942 c 0,22,23
 1942 1905 1942 1905 1901 1880 c 128,-1,24
 1860 1855 1860 1855 1851 1851 c 2,25,-1
 1364 1614 l 2,26,27
 1311 1589 1311 1589 1290 1556 c 0,28,29
 1253 1503 1253 1503 1253 1458 c 2,30,-1
 1253 1135 l 2,31,32
 1253 1061 1253 1061 1196 1003.5 c 128,-1,33
 1139 946 1139 946 1061 946 c 0,34,35
 979 946 979 946 922 999 c 0,36,37
 864 1053 864 1053 864 1139 c 2,38,-1
 864 1683 l 2,39,40
 864 1765 864 1765 889 1802 c 0,41,42
 909 1835 909 1835 950 1851 c 2,43,-1
 1458 2097 l 2,44,45
 1487 2109 1487 2109 1524 2129.5 c 128,-1,46
 1561 2150 1561 2150 1573 2179 c 0,47,48
 1581 2208 1581 2208 1581 2294 c 2,49,-1
 1581 2839 l 2,50,51
 1581 2916 1581 2916 1516 2957 c 1,52,53
 1483 2986 1483 2986 1417 2986 c 0,54,55
 1393 2986 1393 2986 1380 2986 c 2,56,-1
 782 2986 l 2,57,58
 729 2986 729 2986 684 2986 c 0,59,60
 635 2982 635 2982 594 2945 c 0,61,62
 541 2892 541 2892 541 2826 c 2,63,-1
 541 2499 l 2,64,65
 541 2392 541 2392 483 2310 c 0,66,67
 426 2228 426 2228 332 2228 c 0,68,69
 233 2228 233 2228 180 2306 c 0,70,71
 123 2384 123 2384 123 2494 c 2,72,-1
 123 3158 l 2,73,74
 123 3277 123 3277 205 3346 c 1,0,1
741 741 m 0,75,76
 791 782 791 782 836 782 c 2,77,-1
 1241 782 l 2,78,79
 1294 782 1294 782 1327 770 c 0,80,81
 1348 762 1348 762 1372 741 c 0,82,83
 1425 700 1425 700 1425 614 c 2,84,-1
 1425 176 l 2,85,86
 1425 94 1425 94 1380 57 c 0,87,88
 1331 16 1331 16 1237 16 c 2,89,-1
 885 16 l 2,90,91
 774 16 774 16 729 74 c 1,92,93
 705 94 705 94 700 123 c 0,94,95
 692 152 692 152 692 205 c 2,96,-1
 692 614 l 2,97,98
 692 696 692 696 741 741 c 0,75,76
EndSplineSet
Validated: 1
EndChar

StartChar: A
Encoding: 65 65 28
Width: 2474
Flags: W
LayerCount: 2
Fore
SplineSet
582 3342 m 0,0,1
 618 3379 618 3379 668 3391 c 0,2,3
 717 3404 717 3404 774 3404 c 2,4,-1
 2093 3404 l 2,5,6
 2154 3404 2154 3404 2216 3404 c 1,7,8
 2273 3396 2273 3396 2331 3351 c 1,9,10
 2388 3293 2388 3293 2388 3199 c 2,11,-1
 2388 184 l 2,12,13
 2388 123 2388 123 2363 78 c 0,14,15
 2322 4 2322 4 2228 4 c 256,16,17
 2134 4 2134 4 2097 66 c 0,18,19
 2056 127 2056 127 2056 188 c 2,20,-1
 2056 1290 l 2,21,22
 2056 1364 2056 1364 2044 1417 c 1,23,24
 2028 1466 2028 1466 1982 1511 c 0,25,26
 1921 1573 1921 1573 1790 1573 c 2,27,-1
 1126 1573 l 2,28,29
 1090 1573 1090 1573 1044 1569 c 0,30,31
 995 1565 995 1565 954 1536 c 0,32,33
 909 1507 909 1507 881 1454 c 1,34,35
 848 1401 848 1401 848 1352 c 2,36,-1
 848 213 l 2,37,38
 848 78 848 78 758 33 c 0,39,40
 692 0 692 0 549 0 c 0,41,42
 496 0 496 0 467 0 c 0,43,44
 434 0 434 0 406 0 c 0,45,46
 373 0 373 0 344 -4 c 1,47,48
 242 -4 242 -4 197 33 c 0,49,50
 135 82 135 82 135 217 c 2,51,-1
 135 1413 l 2,52,53
 135 1470 135 1470 147 1499 c 0,54,55
 156 1528 156 1528 180 1561 c 0,56,57
 188 1569 188 1569 381 1655 c 0,58,59
 524 1716 524 1716 524 1868 c 2,60,-1
 524 3150 l 2,61,62
 524 3219 524 3219 537 3260 c 1,63,64
 545 3301 545 3301 582 3342 c 0,0,1
1094 3117 m 2,65,66
 1044 3117 1044 3117 999 3117 c 0,67,68
 954 3113 954 3113 909 3080 c 0,69,70
 823 3023 823 3023 823 2896 c 2,71,-1
 823 2175 l 2,72,73
 823 2118 823 2118 827 2064 c 0,74,75
 827 2011 827 2011 872 1974 c 1,76,77
 913 1933 913 1933 967 1925 c 1,78,79
 1016 1913 1016 1913 1102 1913 c 2,80,-1
 1790 1913 l 2,81,82
 1876 1913 1876 1913 1942 1933 c 0,83,84
 2003 1950 2003 1950 2032 1995 c 1,85,86
 2056 2040 2056 2040 2064 2085 c 0,87,88
 2068 2130 2068 2130 2068 2204 c 2,89,-1
 2068 2884 l 2,90,91
 2068 2957 2068 2957 2064 2998 c 1,92,93
 2056 3035 2056 3035 2019 3076 c 128,-1,94
 1982 3117 1982 3117 1892 3117 c 0,95,96
 1860 3117 1860 3117 1839 3117 c 2,97,-1
 1094 3117 l 2,65,66
EndSplineSet
Validated: 1
EndChar

StartChar: B
Encoding: 66 66 29
Width: 2503
Flags: W
LayerCount: 2
Fore
SplineSet
2114 1958 m 0,0,1
 2138 1937 2138 1937 2245 1901 c 0,2,3
 2347 1864 2347 1864 2359 1851 c 0,4,5
 2413 1802 2413 1802 2413 1688 c 2,6,-1
 2413 279 l 2,7,8
 2413 188 2413 188 2404 147 c 0,9,10
 2392 102 2392 102 2343 57 c 0,11,12
 2310 25 2310 25 2273 16 c 0,13,14
 2232 4 2232 4 2171 4 c 0,15,16
 2126 4 2126 4 2101 4 c 2,17,-1
 434 4 l 2,18,19
 406 4 406 4 385 4 c 0,20,21
 332 4 332 4 287 16 c 0,22,23
 238 25 238 25 197 61 c 0,24,25
 135 119 135 119 135 246 c 2,26,-1
 135 3195 l 2,27,28
 135 3256 135 3256 152 3293 c 0,29,30
 164 3326 164 3326 193 3355 c 0,31,32
 250 3408 250 3408 365 3408 c 2,33,-1
 1798 3408 l 2,34,35
 1880 3408 1880 3408 1917 3404 c 1,36,37
 1950 3396 1950 3396 1999 3351 c 1,38,39
 2044 3301 2044 3301 2044 3211 c 2,40,-1
 2044 2105 l 2,41,42
 2044 2015 2044 2015 2114 1958 c 0,0,1
1987 1520 m 0,43,44
 1950 1552 1950 1552 1901 1565 c 1,45,46
 1851 1573 1851 1573 1782 1573 c 2,47,-1
 1171 1573 l 2,48,49
 1077 1573 1077 1573 1036 1569 c 0,50,51
 991 1561 991 1561 946 1520 c 0,52,53
 868 1450 868 1450 868 1339 c 2,54,-1
 868 598 l 2,55,56
 868 537 868 537 881 492 c 0,57,58
 893 442 893 442 934 401 c 128,-1,59
 975 360 975 360 1036 344 c 1,60,61
 1094 324 1094 324 1147 324 c 2,62,-1
 1741 324 l 2,63,64
 1831 324 1831 324 1888 340 c 0,65,66
 1942 352 1942 352 1991 397 c 0,67,68
 2077 479 2077 479 2077 614 c 2,69,-1
 2077 1315 l 2,70,71
 2077 1442 2077 1442 1987 1520 c 0,43,44
1659 3002 m 0,72,73
 1634 3035 1634 3035 1597 3052 c 0,74,75
 1540 3080 1540 3080 1458 3080 c 2,76,-1
 1130 3080 l 2,77,78
 1061 3080 1061 3080 1024 3072 c 0,79,80
 983 3060 983 3060 946 3027 c 0,81,82
 872 2966 872 2966 872 2851 c 2,83,-1
 872 2179 l 2,84,85
 872 2130 872 2130 881 2081 c 1,86,87
 885 2028 885 2028 926 1982 c 0,88,89
 987 1913 987 1913 1102 1913 c 2,90,-1
 1458 1913 l 2,91,92
 1532 1913 1532 1913 1581 1937 c 0,93,94
 1630 1962 1630 1962 1663 2007 c 0,95,96
 1716 2077 1716 2077 1716 2191 c 2,97,-1
 1716 2839 l 2,98,99
 1716 2884 1716 2884 1700 2929 c 0,100,101
 1683 2970 1683 2970 1659 3002 c 0,72,73
EndSplineSet
Validated: 1
EndChar

StartChar: C
Encoding: 67 67 30
Width: 2183
Flags: W
LayerCount: 2
Fore
SplineSet
238 3359 m 0,0,1
 262 3375 262 3375 324 3387 c 0,2,3
 381 3400 381 3400 426 3400 c 2,4,-1
 1855 3400 l 2,5,6
 1925 3400 1925 3400 1966 3396 c 1,7,8
 2003 3387 2003 3387 2032 3355 c 0,9,10
 2060 3318 2060 3318 2068 3285 c 0,11,12
 2073 3248 2073 3248 2073 3187 c 2,13,-1
 2073 2560 l 2,14,15
 2073 2474 2073 2474 2068 2433 c 0,16,17
 2060 2388 2060 2388 2023 2355 c 0,18,19
 1987 2322 1987 2322 1937 2314 c 0,20,21
 1888 2306 1888 2306 1868 2306 c 2,22,-1
 1589 2306 l 2,23,24
 1520 2306 1520 2306 1503 2310 c 0,25,26
 1470 2318 1470 2318 1434 2351 c 0,27,28
 1397 2380 1397 2380 1380 2425 c 1,29,30
 1360 2466 1360 2466 1360 2519 c 2,31,-1
 1360 2859 l 2,32,33
 1360 2904 1360 2904 1348 2941 c 1,34,35
 1331 2978 1331 2978 1282 3015 c 0,36,37
 1221 3064 1221 3064 1102 3064 c 2,38,-1
 745 3064 l 2,39,40
 647 3064 647 3064 582 3019 c 0,41,42
 483 2949 483 2949 483 2818 c 2,43,-1
 483 627 l 2,44,45
 483 578 483 578 487 512 c 0,46,47
 487 446 487 446 532 397 c 0,48,49
 606 315 606 315 745 315 c 2,50,-1
 1438 315 l 2,51,52
 1524 315 1524 315 1569 328 c 0,53,54
 1610 336 1610 336 1659 381 c 0,55,56
 1741 459 1741 459 1741 582 c 2,57,-1
 1741 877 l 2,58,59
 1741 983 1741 983 1778 1044 c 0,60,61
 1810 1102 1810 1102 1913 1102 c 0,62,63
 1991 1102 1991 1102 2032 1040 c 1,64,65
 2068 975 2068 975 2068 885 c 2,66,-1
 2068 258 l 2,67,68
 2068 172 2068 172 2064 143 c 1,69,70
 2056 115 2056 115 2011 70 c 0,71,72
 1942 0 1942 0 1823 0 c 2,73,-1
 446 -4 l 2,74,75
 389 -4 389 -4 332 -4 c 1,76,77
 229 8 229 8 197 53 c 0,78,79
 160 98 160 98 152 143 c 1,80,81
 139 184 139 184 139 250 c 2,82,-1
 139 3150 l 2,83,84
 139 3293 139 3293 238 3359 c 0,0,1
EndSplineSet
Validated: 1
EndChar

StartChar: D
Encoding: 68 68 31
Width: 2462
Flags: W
LayerCount: 2
Fore
SplineSet
209 3342 m 0,0,1
 254 3383 254 3383 311 3396 c 1,2,3
 365 3404 365 3404 463 3404 c 2,4,-1
 1520 3404 l 2,5,6
 1729 3404 1729 3404 1884 3355 c 0,7,8
 2036 3305 2036 3305 2150 3174 c 0,9,10
 2261 3043 2261 3043 2306 2908 c 0,11,12
 2351 2769 2351 2769 2351 2580 c 2,13,-1
 2351 852 l 2,14,15
 2351 672 2351 672 2327 557 c 0,16,17
 2286 369 2286 369 2179 246 c 0,18,19
 2068 119 2068 119 1909 57 c 0,20,21
 1749 -8 1749 -8 1597 -8 c 2,22,-1
 373 -8 l 2,23,24
 303 -8 303 -8 258 8 c 0,25,26
 209 25 209 25 172 78 c 0,27,28
 152 106 152 106 147 164 c 0,29,30
 139 221 139 221 139 258 c 2,31,-1
 139 3117 l 2,32,33
 139 3199 139 3199 156 3252 c 0,34,35
 168 3301 168 3301 209 3342 c 0,0,1
1888 2949 m 1,36,37
 1839 3015 1839 3015 1757 3043 c 0,38,39
 1675 3068 1675 3068 1561 3068 c 2,40,-1
 1159 3068 l 2,41,42
 1094 3068 1094 3068 1057 3060 c 0,43,44
 1016 3047 1016 3047 971 3015 c 0,45,46
 864 2933 864 2933 864 2785 c 2,47,-1
 864 606 l 2,48,49
 864 537 864 537 881 492 c 1,50,51
 893 446 893 446 934 397 c 0,52,53
 1008 311 1008 311 1151 311 c 2,54,-1
 1589 311 l 2,55,56
 1688 311 1688 311 1774 348 c 0,57,58
 1855 385 1855 385 1905 442 c 1,59,60
 2015 586 2015 586 2015 791 c 2,61,-1
 2015 2642 l 2,62,63
 2015 2732 2015 2732 1982 2806 c 0,64,65
 1950 2875 1950 2875 1888 2949 c 1,36,37
EndSplineSet
Validated: 1
EndChar

StartChar: E
Encoding: 69 69 32
Width: 2048
Flags: W
LayerCount: 2
Fore
SplineSet
193 3351 m 0,0,1
 229 3383 229 3383 274 3396 c 0,2,3
 315 3404 315 3404 389 3404 c 2,4,-1
 1724 3404 l 2,5,6
 1810 3404 1810 3404 1872 3363 c 1,7,8
 1929 3318 1929 3318 1929 3240 c 0,9,10
 1929 3154 1929 3154 1872 3117 c 0,11,12
 1815 3076 1815 3076 1724 3076 c 2,13,-1
 778 3076 l 2,14,15
 692 3076 692 3076 631 3052 c 0,16,17
 606 3043 606 3043 565 3015 c 0,18,19
 520 2982 520 2982 500 2933 c 1,20,21
 475 2884 475 2884 475 2834 c 2,22,-1
 475 2183 l 2,23,24
 475 2118 475 2118 483 2068 c 0,25,26
 492 2015 492 2015 528 1970 c 0,27,28
 561 1925 561 1925 631 1909 c 1,29,30
 700 1888 700 1888 799 1888 c 2,31,-1
 1696 1888 l 2,32,33
 1794 1888 1794 1888 1864 1851 c 0,34,35
 1933 1815 1933 1815 1933 1720 c 0,36,37
 1933 1626 1933 1626 1855 1585 c 0,38,39
 1802 1556 1802 1556 1692 1556 c 2,40,-1
 1102 1556 l 2,41,42
 1049 1556 1049 1556 1004 1544 c 0,43,44
 954 1532 954 1532 918 1495 c 0,45,46
 848 1425 848 1425 848 1307 c 2,47,-1
 848 569 l 2,48,49
 848 463 848 463 897 397 c 0,50,51
 934 352 934 352 991 336 c 1,52,53
 1044 315 1044 315 1122 315 c 2,54,-1
 1724 315 l 2,55,56
 1810 315 1810 315 1871.5 278.5 c 128,-1,57
 1933 242 1933 242 1933 152 c 0,58,59
 1933 66 1933 66 1871.5 33 c 128,-1,60
 1810 0 1810 0 1724 0 c 2,61,-1
 492 0 l 2,62,63
 360 0 360 0 303 8 c 0,64,65
 246 12 246 12 201 53 c 0,66,67
 156 90 156 90 147 135 c 0,68,69
 135 176 135 176 135 246 c 2,70,-1
 135 3166 l 2,71,72
 135 3236 135 3236 147 3277 c 0,73,74
 156 3318 156 3318 193 3351 c 0,0,1
EndSplineSet
Validated: 1
EndChar

StartChar: F
Encoding: 70 70 33
Width: 2044
Flags: W
LayerCount: 2
Fore
SplineSet
201 3363 m 0,0,1
 229 3387 229 3387 282.5 3395.5 c 128,-1,2
 336 3404 336 3404 352 3404 c 2,3,-1
 1765 3404 l 2,4,5
 1839 3404 1839 3404 1888 3354.5 c 128,-1,6
 1937 3305 1937 3305 1937 3236 c 0,7,8
 1937 3166 1937 3166 1888 3117 c 128,-1,9
 1839 3068 1839 3068 1765 3068 c 2,10,-1
 1159 3068 l 2,11,12
 1081 3068 1081 3068 1044 3064 c 0,13,14
 1004 3056 1004 3056 958 3023 c 0,15,16
 848 2945 848 2945 848 2826 c 2,17,-1
 848 2183 l 2,18,19
 848 2097 848 2097 856 2060 c 1,20,21
 860 2019 860 2019 897 1978 c 0,22,23
 975 1888 975 1888 1126 1888 c 2,24,-1
 1675 1888 l 2,25,26
 1774 1888 1774 1888 1843 1851 c 0,27,28
 1913 1815 1913 1815 1913 1724 c 0,29,30
 1913 1638 1913 1638 1847 1597 c 0,31,32
 1778 1556 1778 1556 1679 1556 c 2,33,-1
 1110 1556 l 2,34,35
 1044 1556 1044 1556 999 1544 c 0,36,37
 950 1528 950 1528 909 1487 c 0,38,39
 840 1417 840 1417 840 1307 c 2,40,-1
 840 147 l 2,41,42
 840 78 840 78 790.5 29 c 128,-1,43
 741 -20 741 -20 676 -20 c 0,44,45
 610 -20 610 -20 561 29 c 1,46,47
 508 74 508 74 508 139 c 2,48,-1
 508 1552 l 2,49,50
 508 1593 508 1593 508 1638 c 0,51,52
 504 1683 504 1683 479 1724 c 0,53,54
 442 1794 442 1794 319 1835 c 1,55,56
 193 1872 193 1872 168 1913 c 0,57,58
 139 1954 139 1954 135 2003 c 128,-1,59
 131 2052 131 2052 131 2056 c 2,60,-1
 131 3199 l 2,61,62
 131 3310 131 3310 201 3363 c 0,0,1
EndSplineSet
Validated: 1
EndChar

StartChar: G
Encoding: 71 71 34
Width: 2544
Flags: W
LayerCount: 2
Fore
SplineSet
221 3301 m 0,0,1
 246 3334 246 3334 295 3354.5 c 128,-1,2
 344 3375 344 3375 442 3375 c 0,3,4
 504 3375 504 3375 537 3375 c 2,5,-1
 2085 3375 l 2,6,7
 2142 3375 2142 3375 2200 3375 c 1,8,9
 2253 3367 2253 3367 2298 3334 c 0,10,11
 2372 3277 2372 3277 2372 3158 c 2,12,-1
 2372 2654 l 2,13,14
 2372 2621 2372 2621 2372 2605 c 0,15,16
 2372 2535 2372 2535 2367 2523 c 0,17,18
 2363 2515 2363 2515 2339 2486 c 0,19,20
 2314 2454 2314 2454 2261 2445 c 0,21,22
 2204 2433 2204 2433 2187 2433 c 2,23,-1
 1884 2433 l 2,24,25
 1798 2433 1798 2433 1757 2474 c 0,26,27
 1737 2490 1737 2490 1733 2535 c 1,28,29
 1724 2580 1724 2580 1724 2654 c 2,30,-1
 1724 2822 l 2,31,32
 1724 2867 1724 2867 1720 2908 c 1,33,34
 1712 2945 1712 2945 1679 2986 c 1,35,36
 1642 3023 1642 3023 1597 3035 c 0,37,38
 1548 3047 1548 3047 1495 3047 c 2,39,-1
 1114 3047 l 2,40,41
 1024 3047 1024 3047 950 2986 c 1,42,43
 909 2945 909 2945 897 2900 c 0,44,45
 881 2855 881 2855 881 2781 c 2,46,-1
 881 606 l 2,47,48
 881 569 881 569 881 553 c 0,49,50
 881 487 881 487 885 467 c 0,51,52
 889 438 889 438 913 397 c 0,53,54
 934 356 934 356 999 332 c 0,55,56
 1061 307 1061 307 1126 307 c 2,57,-1
 1778 307 l 2,58,59
 1884 307 1884 307 1929 319 c 0,60,61
 1970 332 1970 332 2011 369 c 0,62,63
 2089 442 2089 442 2089 578 c 2,64,-1
 2089 1298 l 2,65,66
 2089 1393 2089 1393 2036 1462 c 0,67,68
 1966 1548 1966 1548 1835 1548 c 2,69,-1
 1630 1548 l 2,70,71
 1556 1548 1556 1548 1499 1597 c 1,72,73
 1438 1642 1438 1642 1438 1712 c 256,74,75
 1438 1782 1438 1782 1499 1827 c 0,76,77
 1561 1872 1561 1872 1634 1872 c 2,78,-1
 2220 1872 l 2,79,80
 2322 1872 2322 1872 2380 1815 c 0,81,82
 2408 1782 2408 1782 2417 1733 c 0,83,84
 2425 1679 2425 1679 2425 1622 c 2,85,-1
 2425 295 l 2,86,87
 2425 246 2425 246 2425 225 c 0,88,89
 2425 160 2425 160 2417 123 c 1,90,91
 2404 86 2404 86 2363 45 c 128,-1,92
 2322 4 2322 4 2269 -8 c 1,93,94
 2216 -25 2216 -25 2138 -25 c 2,95,-1
 504 -25 l 2,96,97
 446 -25 446 -25 418 -25 c 0,98,99
 336 -25 336 -25 295 -12 c 1,100,101
 250 -4 250 -4 217 37 c 0,102,103
 180 78 180 78 172 115 c 1,104,105
 160 147 160 147 160 209 c 0,106,107
 160 254 160 254 160 279 c 2,108,-1
 160 3101 l 2,109,110
 160 3162 160 3162 172 3211 c 0,111,112
 184 3256 184 3256 221 3301 c 0,0,1
EndSplineSet
Validated: 1
EndChar

StartChar: H
Encoding: 72 72 35
Width: 2540
Flags: W
LayerCount: 2
Fore
SplineSet
295 3387 m 256,0,1
 365 3387 365 3387 414 3342 c 1,2,3
 459 3293 459 3293 459 3228 c 2,4,-1
 459 2056 l 2,5,6
 459 1987 459 1987 500 1937 c 1,7,8
 569 1864 569 1864 672 1864 c 2,9,-1
 1438 1864 l 2,10,11
 1511 1864 1511 1864 1556 1876 c 0,12,13
 1597 1884 1597 1884 1642 1921 c 0,14,15
 1704 1970 1704 1970 1704 2064 c 2,16,-1
 1704 3195 l 2,17,18
 1704 3269 1704 3269 1753 3322 c 128,-1,19
 1802 3375 1802 3375 1876 3375 c 256,20,21
 1950 3375 1950 3375 1999 3317.5 c 128,-1,22
 2048 3260 2048 3260 2048 3183 c 2,23,-1
 2048 2122 l 2,24,25
 2048 2048 2048 2048 2064 1995 c 0,26,27
 2077 1942 2077 1942 2113.5 1909 c 128,-1,28
 2150 1876 2150 1876 2245 1851 c 0,29,30
 2335 1827 2335 1827 2376 1774 c 0,31,32
 2417 1716 2417 1716 2417 1626 c 2,33,-1
 2417 188 l 2,34,35
 2417 119 2417 119 2413 86 c 1,36,37
 2404 53 2404 53 2363 25 c 0,38,39
 2343 8 2343 8 2302 4 c 128,-1,40
 2261 0 2261 0 2220 0 c 2,41,-1
 1892 0 l 2,42,43
 1860 0 1860 0 1815 4 c 1,44,45
 1769 4 1769 4 1741 41 c 1,46,47
 1708 74 1708 74 1708 156 c 0,48,49
 1708 184 1708 184 1708 201 c 2,50,-1
 1708 1290 l 2,51,52
 1708 1348 1708 1348 1704 1384 c 1,53,54
 1696 1417 1696 1417 1671 1454 c 0,55,56
 1618 1536 1618 1536 1511 1536 c 2,57,-1
 1094 1536 l 2,58,59
 1040 1536 1040 1536 991 1536 c 0,60,61
 938 1532 938 1532 897 1499 c 0,62,63
 807 1434 807 1434 807 1327 c 2,64,-1
 807 246 l 2,65,66
 807 205 807 205 807 188 c 0,67,68
 807 127 807 127 803 94 c 0,69,70
 795 61 795 61 770 36.5 c 128,-1,71
 745 12 745 12 717 8 c 0,72,73
 684 0 684 0 618 0 c 2,74,-1
 250 0 l 2,75,76
 172 0 172 0 147 29 c 1,77,78
 127 66 127 66 127 139 c 0,79,80
 127 197 127 197 127 225 c 2,81,-1
 127 3228 l 2,82,83
 127 3297 127 3297 176 3342 c 128,-1,84
 225 3387 225 3387 295 3387 c 256,0,1
EndSplineSet
Validated: 1
EndChar

StartChar: I
Encoding: 73 73 36
Width: 983
Flags: W
LayerCount: 2
Fore
SplineSet
537 1847 m 2,0,-1
 537 3195 l 2,1,2
 537 3265 537 3265 582 3318 c 128,-1,3
 627 3371 627 3371 696 3371 c 0,4,5
 766 3371 766 3371 811 3318 c 128,-1,6
 856 3265 856 3265 856 3195 c 2,7,-1
 856 156 l 2,8,9
 856 111 856 111 848 78 c 128,-1,10
 840 45 840 45 811 25 c 0,11,12
 778 0 778 0 700 0 c 0,13,14
 651 0 651 0 627 0 c 2,15,-1
 303 0 l 2,16,17
 201 0 201 0 164 45 c 0,18,19
 143 66 143 66 139 94 c 0,20,21
 135 123 135 123 135 164 c 0,22,23
 135 193 135 193 135 209 c 2,24,-1
 135 1368 l 2,25,26
 135 1434 135 1434 139 1450 c 0,27,28
 147 1487 147 1487 180 1520 c 0,29,30
 209 1552 209 1552 262 1569 c 0,31,32
 414 1614 414 1614 451 1638 c 0,33,34
 537 1696 537 1696 537 1847 c 2,0,-1
EndSplineSet
Validated: 1
EndChar

StartChar: J
Encoding: 74 74 37
Width: 2560
Flags: W
LayerCount: 2
Fore
SplineSet
1741 537 m 2,0,-1
 1741 3183 l 2,1,2
 1741 3269 1741 3269 1786 3338 c 0,3,4
 1827 3404 1827 3404 1909 3404 c 0,5,6
 1999 3404 1999 3404 2044 3338 c 0,7,8
 2085 3273 2085 3273 2085 3178 c 2,9,-1
 2085 2163 l 2,10,11
 2085 2105 2085 2105 2093 2068 c 0,12,13
 2097 2032 2097 2032 2122 1987 c 0,14,15
 2146 1937 2146 1937 2310 1892 c 0,16,17
 2392 1868 2392 1868 2421 1827 c 0,18,19
 2437 1802 2437 1802 2454 1774 c 1,20,21
 2466 1741 2466 1741 2466 1688 c 2,22,-1
 2466 188 l 2,23,24
 2466 143 2466 143 2462 123 c 0,25,26
 2458 94 2458 94 2429 57 c 0,27,28
 2400 16 2400 16 2351 8 c 0,29,30
 2302 -4 2302 -4 2216 -4 c 2,31,-1
 352 0 l 2,32,33
 266 0 266 0 229 8 c 0,34,35
 193 12 193 12 164 53 c 128,-1,36
 135 94 135 94 135 168 c 0,37,38
 135 193 135 193 135 209 c 2,39,-1
 135 868 l 2,40,41
 135 995 135 995 152 1032 c 1,42,43
 164 1069 164 1069 205 1090 c 1,44,45
 246 1106 246 1106 311 1106 c 2,46,-1
 651 1106 l 2,47,48
 762 1106 762 1106 795 1049 c 1,49,50
 836 999 836 999 836 918 c 2,51,-1
 836 520 l 2,52,53
 836 422 836 422 864 381 c 0,54,55
 881 356 881 356 922 335.5 c 128,-1,56
 963 315 963 315 1032 315 c 2,57,-1
 1466 315 l 2,58,59
 1503 315 1503 315 1524 315 c 0,60,61
 1577 315 1577 315 1597 319 c 0,62,63
 1630 328 1630 328 1663 352 c 0,64,65
 1741 414 1741 414 1741 537 c 2,0,-1
EndSplineSet
Validated: 1
EndChar

StartChar: K
Encoding: 75 75 38
Width: 2572
Flags: W
LayerCount: 2
Fore
SplineSet
156 229 m 2,0,-1
 156 3199 l 2,1,2
 156 3281 156 3281 209 3342 c 0,3,4
 262 3404 262 3404 344 3404 c 0,5,6
 422 3404 422 3404 479 3342 c 1,7,8
 532 3277 532 3277 532 3191 c 2,9,-1
 532 2146 l 2,10,11
 532 2101 532 2101 532 2081 c 0,12,13
 532 2036 532 2036 541 2015 c 0,14,15
 553 1982 553 1982 586 1978 c 0,16,17
 590 1978 590 1978 598 1978 c 0,18,19
 618 1978 618 1978 639 1987 c 0,20,21
 664 1999 664 1999 688 2019 c 2,22,-1
 1966 3240 l 2,23,24
 2028 3297 2028 3297 2073 3330 c 0,25,26
 2138 3379 2138 3379 2191 3387 c 0,27,28
 2241 3391 2241 3391 2281 3391 c 0,29,30
 2408 3391 2408 3391 2445 3363 c 0,31,32
 2478 3334 2478 3334 2478 3301 c 0,33,34
 2478 3277 2478 3277 2474 3265 c 0,35,36
 2466 3244 2466 3244 2433 3211 c 2,37,-1
 1221 2052 l 2,38,39
 1188 2023 1188 2023 1163 1991 c 1,40,41
 1147 1962 1147 1962 1143 1946 c 0,42,43
 1143 1937 1143 1937 1147 1933 c 0,44,45
 1159 1896 1159 1896 1225 1896 c 0,46,47
 1257 1896 1257 1896 1274 1896 c 2,48,-1
 2200 1896 l 2,49,50
 2269 1896 2269 1896 2330.5 1884 c 128,-1,51
 2392 1872 2392 1872 2421 1847 c 0,52,53
 2449 1819 2449 1819 2462 1774 c 0,54,55
 2474 1724 2474 1724 2474 1663 c 2,56,-1
 2474 188 l 2,57,58
 2474 111 2474 111 2429 57 c 0,59,60
 2380 0 2380 0 2281 0 c 2,61,-1
 1970 -4 l 2,62,63
 1896 -4 1896 -4 1855 4 c 0,64,65
 1815 8 1815 8 1786 41 c 128,-1,66
 1757 74 1757 74 1753 111 c 1,67,68
 1745 143 1745 143 1745 217 c 2,69,-1
 1745 1331 l 2,70,71
 1745 1409 1745 1409 1737 1446 c 1,72,73
 1724 1483 1724 1483 1688 1511 c 0,74,75
 1651 1540 1651 1540 1614 1548 c 0,76,77
 1573 1556 1573 1556 1528 1556 c 2,78,-1
 1188 1556 l 2,79,80
 1094 1556 1094 1556 1044 1552 c 0,81,82
 991 1544 991 1544 950 1511 c 0,83,84
 877 1450 877 1450 877 1319 c 2,85,-1
 877 225 l 2,86,87
 877 139 877 139 844 78 c 1,88,89
 786 0 786 0 676 0 c 2,90,-1
 332 0 l 2,91,92
 205 0 205 0 176 78 c 0,93,94
 164 102 164 102 160 143 c 0,95,96
 156 180 156 180 156 229 c 2,0,-1
EndSplineSet
Validated: 1
EndChar

StartChar: L
Encoding: 76 76 39
Width: 2044
Flags: W
LayerCount: 2
Fore
SplineSet
553 1880 m 2,0,-1
 553 3215 l 2,1,2
 553 3293 553 3293 598 3351 c 0,3,4
 639 3404 639 3404 709 3404 c 0,5,6
 778 3404 778 3404 823 3346 c 0,7,8
 868 3289 868 3289 868 3215 c 2,9,-1
 868 602 l 2,10,11
 868 561 868 561 868 545 c 0,12,13
 868 463 868 463 872 442 c 0,14,15
 877 422 877 422 897 393 c 0,16,17
 934 344 934 344 983 328 c 0,18,19
 1028 311 1028 311 1102 311 c 2,20,-1
 1700 311 l 2,21,22
 1806 311 1806 311 1876 279 c 0,23,24
 1942 246 1942 246 1942 156 c 256,25,26
 1942 66 1942 66 1876 33 c 0,27,28
 1806 0 1806 0 1700 0 c 2,29,-1
 410 0 l 2,30,31
 328 0 328 0 266 20 c 0,32,33
 201 37 201 37 180 78 c 0,34,35
 160 115 160 115 156 151.5 c 128,-1,36
 152 188 152 188 152 242 c 2,37,-1
 152 1356 l 2,38,39
 152 1442 152 1442 160 1475 c 0,40,41
 164 1503 164 1503 188 1536 c 0,42,43
 213 1569 213 1569 328 1597 c 0,44,45
 438 1626 438 1626 479 1671 c 0,46,47
 553 1757 553 1757 553 1880 c 2,0,-1
EndSplineSet
Validated: 1
EndChar

StartChar: M
Encoding: 77 77 40
Width: 2945
Flags: W
LayerCount: 2
Fore
SplineSet
123 201 m 2,0,-1
 123 3207 l 2,1,2
 123 3240 123 3240 127 3273 c 0,3,4
 127 3301 127 3301 147 3334 c 1,5,6
 193 3391 193 3391 266 3391 c 2,7,-1
 618 3391 l 2,8,9
 709 3391 709 3391 758 3351 c 0,10,11
 803 3310 803 3310 831 3252 c 2,12,-1
 1139 2560 l 1,13,14
 1163 2478 1163 2478 1233 2478 c 0,15,16
 1262 2478 1262 2478 1286 2499 c 0,17,18
 1307 2515 1307 2515 1327 2552 c 2,19,-1
 1733 3252 l 2,20,21
 1749 3281 1749 3281 1778 3310 c 0,22,23
 1806 3334 1806 3334 1823 3351 c 0,24,25
 1872 3387 1872 3387 1950 3387 c 2,26,-1
 2613 3387 l 2,27,28
 2691 3387 2691 3387 2744 3351 c 0,29,30
 2777 3326 2777 3326 2789 3289 c 0,31,32
 2798 3252 2798 3252 2798 3187 c 0,33,34
 2798 3142 2798 3142 2798 3121 c 2,35,-1
 2798 164 l 2,36,37
 2798 57 2798 57 2740 12 c 0,38,39
 2707 -16 2707 -16 2675 -20 c 1,40,41
 2642 -29 2642 -29 2576 -29 c 2,42,-1
 2257 -25 l 2,43,44
 2187 -25 2187 -25 2159 -16 c 1,45,46
 2126 -12 2126 -12 2101 25 c 0,47,48
 2077 57 2077 57 2077 143 c 2,49,-1
 2077 2867 l 2,50,51
 2077 2908 2077 2908 2077 2953 c 1,52,53
 2068 2994 2068 2994 2028 3006 c 0,54,55
 2023 3006 2023 3006 2019 3006 c 0,56,57
 1995 3006 1995 3006 1966 2982 c 0,58,59
 1929 2949 1929 2949 1913 2912 c 1,60,-1
 1360 1970 l 2,61,62
 1331 1917 1331 1917 1298 1888 c 0,63,64
 1262 1855 1262 1855 1217 1855 c 0,65,66
 1114 1855 1114 1855 1069 1962 c 2,67,-1
 618 2941 l 2,68,69
 602 2982 602 2982 573 3011 c 0,70,71
 549 3031 549 3031 524 3031 c 0,72,73
 516 3031 516 3031 508 3031 c 0,74,75
 463 3019 463 3019 451 2982 c 0,76,77
 434 2941 434 2941 434 2879 c 2,78,-1
 434 193 l 2,79,80
 434 111 434 111 393 45 c 0,81,82
 352 -25 352 -25 270 -25 c 0,83,84
 197 -25 197 -25 160 45 c 0,85,86
 123 111 123 111 123 201 c 2,0,-1
950 958 m 0,87,88
 1012 1016 1012 1016 1098 1016 c 2,89,-1
 1417 1016 l 2,90,91
 1499 1016 1499 1016 1556 967 c 0,92,93
 1614 913 1614 913 1614 831 c 2,94,-1
 1614 197 l 2,95,96
 1614 123 1614 123 1610 90 c 0,97,98
 1602 57 1602 57 1565 25 c 0,99,100
 1524 -12 1524 -12 1479 -16 c 1,101,102
 1434 -25 1434 -25 1393 -25 c 2,103,-1
 1094 -25 l 2,104,105
 1020 -25 1020 -25 991 -16 c 1,106,107
 958 -12 958 -12 934 29 c 0,108,109
 909 66 909 66 905 98 c 0,110,111
 897 131 897 131 897 197 c 2,112,-1
 897 815 l 2,113,114
 897 856 897 856 913 897 c 0,115,116
 930 938 930 938 950 958 c 0,87,88
EndSplineSet
Validated: 1
EndChar

StartChar: N
Encoding: 78 78 41
Width: 2576
Flags: W
LayerCount: 2
Fore
SplineSet
139 168 m 2,0,-1
 139 3113 l 2,1,2
 139 3174 139 3174 139 3240 c 1,3,4
 147 3301 147 3301 193 3359 c 0,5,6
 233 3412 233 3412 324 3412 c 2,7,-1
 647 3412 l 2,8,9
 717 3412 717 3412 762 3396 c 1,10,11
 807 3375 807 3375 848 3314 c 1,12,-1
 1913 2015 l 2,13,14
 1974 1937 1974 1937 1978 1933 c 0,15,16
 2011 1905 2011 1905 2048 1905 c 0,17,18
 2060 1905 2060 1905 2073 1909 c 0,19,20
 2105 1917 2105 1917 2118 1946 c 1,21,22
 2126 1974 2126 1974 2126 2028 c 0,23,24
 2126 2081 2126 2081 2126 2105 c 2,25,-1
 2126 3203 l 2,26,27
 2126 3277 2126 3277 2175 3334 c 0,28,29
 2220 3387 2220 3387 2290 3387 c 0,30,31
 2359 3387 2359 3387 2404 3334 c 128,-1,32
 2449 3281 2449 3281 2449 3203 c 2,33,-1
 2449 152 l 2,34,35
 2449 86 2449 86 2400 41 c 0,36,37
 2347 -8 2347 -8 2281 -8 c 0,38,39
 2216 -8 2216 -8 2171 41 c 1,40,41
 2122 86 2122 86 2122 152 c 2,42,-1
 2122 995 l 2,43,44
 2122 1065 2122 1065 2118 1102 c 128,-1,45
 2114 1139 2114 1139 2089 1217 c 0,46,47
 2064 1290 2064 1290 2003 1372 c 2,48,-1
 717 2974 l 2,49,50
 676 3031 676 3031 639 3056 c 0,51,52
 598 3084 598 3084 561 3084 c 0,53,54
 549 3084 549 3084 537 3080 c 0,55,56
 487 3064 487 3064 471 3006 c 0,57,58
 455 2949 455 2949 455 2859 c 2,59,-1
 455 168 l 2,60,61
 455 98 455 98 405.5 49 c 128,-1,62
 356 0 356 0 283 0 c 0,63,64
 221 0 221 0 180 49 c 128,-1,65
 139 98 139 98 139 168 c 2,0,-1
967 983 m 0,66,67
 1024 1040 1024 1040 1110 1040 c 2,68,-1
 1434 1040 l 2,69,70
 1479 1040 1479 1040 1511 1028 c 0,71,72
 1540 1016 1540 1016 1569 991 c 0,73,74
 1630 934 1630 934 1630 852 c 2,75,-1
 1630 221 l 2,76,77
 1630 160 1630 160 1622 119 c 0,78,79
 1610 78 1610 78 1577 49 c 0,80,81
 1544 16 1544 16 1507 8 c 0,82,83
 1466 -4 1466 -4 1409 -4 c 2,84,-1
 1106 -4 l 2,85,86
 1028 -4 1028 -4 999 8 c 0,87,88
 967 20 967 20 950 49 c 1,89,90
 930 74 930 74 922 106 c 0,91,92
 913 139 913 139 913 172 c 256,93,94
 913 205 913 205 913 221 c 2,95,-1
 913 840 l 2,96,97
 913 881 913 881 930 918 c 1,98,99
 942 954 942 954 967 983 c 0,66,67
EndSplineSet
Validated: 1
EndChar

StartChar: O
Encoding: 79 79 42
Width: 2470
Flags: W
LayerCount: 2
Fore
SplineSet
1712 2074 m 1,0,-1
 492 1144 l 1,1,-1
 962 1920 l 1,2,-1
 528 2130 l 1,3,-1
 1696 3046 l 1,4,-1
 1290 2336 l 1,5,-1
 1712 2074 l 1,0,-1
188 3355 m 1,6,7
 225 3391 225 3391 291 3404 c 1,8,9
 356 3412 356 3412 467 3412 c 2,10,-1
 2081 3412 l 2,11,12
 2142 3412 2142 3412 2187 3404 c 128,-1,13
 2232 3396 2232 3396 2261 3371 c 0,14,15
 2327 3318 2327 3318 2327 3207 c 2,16,-1
 2327 229 l 2,17,18
 2327 119 2327 119 2269 57 c 0,19,20
 2232 20 2232 20 2183 12 c 0,21,22
 2134 0 2134 0 2060 0 c 2,23,-1
 430 -4 l 2,24,25
 381 -4 381 -4 356 -4 c 0,26,27
 287 -4 287 -4 254 8 c 1,28,29
 217 16 217 16 184 53 c 0,30,31
 147 90 147 90 139 139 c 0,32,33
 127 188 127 188 127 262 c 2,34,-1
 127 3199 l 2,35,36
 127 3281 127 3281 188 3355 c 1,6,7
741 3084 m 2,37,38
 664 3084 664 3084 614 3072 c 0,39,40
 561 3056 561 3056 520 3015 c 0,41,42
 446 2941 446 2941 446 2806 c 2,43,-1
 446 643 l 2,44,45
 446 537 446 537 467 475 c 0,46,47
 487 410 487 410 553 356 c 0,48,49
 598 324 598 324 655 311 c 0,50,51
 709 299 709 299 774 299 c 2,52,-1
 1307 299 l 2,53,54
 1384 299 1384 299 1454 324 c 0,55,56
 1520 348 1520 348 1548 393 c 0,57,58
 1573 434 1573 434 1581 483 c 0,59,60
 1585 528 1585 528 1585 606 c 2,61,-1
 1585 1724 l 2,62,63
 1585 1774 1585 1774 1593 1806 c 1,64,65
 1597 1839 1597 1839 1638 1896 c 0,66,67
 1679 1950 1679 1950 1786 1970 c 0,68,69
 1888 1987 1888 1987 1941.5 1999 c 128,-1,70
 1995 2011 1995 2011 2003 2052 c 0,71,72
 2007 2093 2007 2093 2007 2126 c 0,73,74
 2007 2175 2007 2175 2007 2200 c 2,75,-1
 2007 2888 l 2,76,77
 2007 2920 2007 2920 1991 2957 c 1,78,79
 1970 2994 1970 2994 1942 3023 c 0,80,81
 1872 3084 1872 3084 1745 3084 c 2,82,-1
 741 3084 l 2,37,38
EndSplineSet
Validated: 1
EndChar

StartChar: P
Encoding: 80 80 43
Width: 2359
Flags: W
LayerCount: 2
Fore
SplineSet
205 3351 m 0,0,1
 242 3383 242 3383 291 3396 c 1,2,3
 340 3404 340 3404 418 3404 c 2,4,-1
 1991 3404 l 2,5,6
 2118 3404 2118 3404 2183 3338 c 0,7,8
 2245 3273 2245 3273 2245 3170 c 2,9,-1
 2245 1855 l 2,10,11
 2245 1790 2245 1790 2241 1737 c 1,12,13
 2232 1679 2232 1679 2175 1622 c 0,14,15
 2138 1581 2138 1581 2081 1573 c 0,16,17
 2023 1561 2023 1561 1921 1561 c 2,18,-1
 1151 1561 l 2,19,20
 1049 1561 1049 1561 1008 1552 c 0,21,22
 963 1544 963 1544 922 1507 c 0,23,24
 877 1466 877 1466 864 1425 c 0,25,26
 852 1380 852 1380 852 1315 c 2,27,-1
 852 188 l 2,28,29
 852 127 852 127 844 94 c 0,30,31
 831 57 831 57 799 29 c 0,32,33
 762 0 762 0 692 0 c 0,34,35
 647 0 647 0 623 0 c 2,36,-1
 340 0 l 1,37,38
 295 -4 295 -4 270 -4 c 0,39,40
 246 -4 246 -4 225 4 c 0,41,42
 201 12 201 12 176 41 c 0,43,44
 135 90 135 90 135 201 c 2,45,-1
 135 3166 l 2,46,47
 135 3285 135 3285 205 3351 c 0,0,1
741 3068 m 2,48,49
 623 3068 623 3068 557 3019 c 0,50,51
 467 2949 467 2949 467 2810 c 2,52,-1
 467 2142 l 2,53,54
 467 2068 467 2068 483 2019 c 0,55,56
 496 1970 496 1970 532 1933 c 0,57,58
 569 1892 569 1892 626.5 1880 c 128,-1,59
 684 1868 684 1868 745 1868 c 2,60,-1
 1638 1868 l 2,61,62
 1786 1868 1786 1868 1851 1950 c 0,63,64
 1913 2028 1913 2028 1913 2109 c 2,65,-1
 1913 2847 l 2,66,67
 1913 2966 1913 2966 1831 3027 c 0,68,69
 1790 3060 1790 3060 1749 3068 c 1,70,71
 1704 3072 1704 3072 1610 3072 c 2,72,-1
 741 3068 l 2,48,49
EndSplineSet
Validated: 1
EndChar

StartChar: Q
Encoding: 81 81 44
Width: 2462
Flags: W
LayerCount: 2
Fore
SplineSet
221 3346 m 0,0,1
 258 3387 258 3387 315 3400 c 1,2,3
 373 3408 373 3408 475 3408 c 2,4,-1
 2036 3408 l 2,5,6
 2081 3408 2081 3408 2105 3408 c 0,7,8
 2175 3408 2175 3408 2208 3404 c 1,9,10
 2236 3396 2236 3396 2277 3359 c 0,11,12
 2359 3289 2359 3289 2359 3154 c 2,13,-1
 2359 254 l 2,14,15
 2359 119 2359 119 2302 74 c 0,16,17
 2269 49 2269 49 2130 25 c 0,18,19
 2011 4 2011 4 2011 -49 c 0,20,21
 2011 -57 2011 -57 2015 -70 c 2,22,-1
 2081 -258 l 2,23,24
 2097 -307 2097 -307 2097 -336 c 0,25,26
 2097 -434 2097 -434 1995 -483 c 0,27,28
 1958 -500 1958 -500 1917 -500 c 0,29,30
 1847 -500 1847 -500 1798 -455 c 128,-1,31
 1749 -410 1749 -410 1716 -332 c 2,32,-1
 1614 -98 l 2,33,34
 1585 -33 1585 -33 1544 -12 c 0,35,36
 1499 8 1499 8 1417 8 c 2,37,-1
 492 8 l 2,38,39
 397 8 397 8 348 16 c 0,40,41
 299 20 299 20 254 49 c 0,42,43
 156 106 156 106 156 229 c 2,44,-1
 156 3183 l 2,45,46
 156 3281 156 3281 221 3346 c 0,0,1
557 3031 m 1,47,48
 528 2998 528 2998 508 2961 c 0,49,50
 487 2925 487 2925 487 2879 c 2,51,-1
 487 2511 l 1,52,-1
 487 2408 l 1,53,54
 496 2372 496 2372 598 2351 c 0,55,56
 696 2331 696 2331 721 2290 c 1,57,58
 741 2249 741 2249 750 2204 c 0,59,60
 758 2154 758 2154 758 2105 c 2,61,-1
 758 512 l 2,62,63
 758 467 758 467 758 446 c 0,64,65
 758 418 758 418 762 401 c 0,66,67
 770 381 770 381 791 360 c 0,68,69
 827 324 827 324 901 324 c 2,70,-1
 1253 324 l 2,71,72
 1294 324 1294 324 1315 324 c 0,73,74
 1384 324 1384 324 1393 356 c 0,75,76
 1397 365 1397 365 1397 373 c 0,77,78
 1397 393 1397 393 1384 418 c 0,79,80
 1356 483 1356 483 1352 487 c 2,81,-1
 1257 725 l 2,82,83
 1245 758 1245 758 1245 791 c 0,84,85
 1245 905 1245 905 1352 958 c 0,86,87
 1384 975 1384 975 1434 975 c 0,88,89
 1548 975 1548 975 1585 897 c 2,90,-1
 1765 508 l 2,91,92
 1790 459 1790 459 1819 410 c 1,93,94
 1843 356 1843 356 1868 352 c 0,95,96
 1876 352 1876 352 1884 352 c 0,97,98
 1913 352 1913 352 1942 373 c 0,99,100
 1978 401 1978 401 2003 450.5 c 128,-1,101
 2028 500 2028 500 2036 549 c 0,102,103
 2044 594 2044 594 2044 664 c 2,104,-1
 2044 2826 l 2,105,106
 2044 2941 2044 2941 1978 3015 c 0,107,108
 1913 3088 1913 3088 1778 3088 c 2,109,-1
 762 3088 l 2,110,111
 688 3088 688 3088 643 3080 c 0,112,113
 598 3068 598 3068 557 3031 c 1,47,48
EndSplineSet
Validated: 1
EndChar

StartChar: R
Encoding: 82 82 45
Width: 2621
Flags: W
LayerCount: 2
Fore
SplineSet
238 3375 m 1,0,1
 262 3396 262 3396 303 3404 c 128,-1,2
 344 3412 344 3412 389 3412 c 2,3,-1
 1888 3412 l 2,4,5
 1933 3412 1933 3412 1978 3412 c 0,6,7
 2023 3408 2023 3408 2073 3371 c 1,8,9
 2118 3330 2118 3330 2118 3219 c 2,10,-1
 2118 2175 l 2,11,12
 2118 2105 2118 2105 2126 2073 c 1,13,14
 2130 2040 2130 2040 2159 1991 c 0,15,16
 2187 1937 2187 1937 2314 1905 c 1,17,18
 2437 1868 2437 1868 2461.5 1839 c 128,-1,19
 2486 1810 2486 1810 2494 1774 c 0,20,21
 2503 1737 2503 1737 2503 1688 c 2,22,-1
 2503 205 l 2,23,24
 2503 131 2503 131 2499 102 c 1,25,26
 2490 74 2490 74 2462 49 c 0,27,28
 2429 25 2429 25 2400 16 c 0,29,30
 2372 4 2372 4 2310 4 c 2,31,-1
 1970 4 l 2,32,33
 1892 4 1892 4 1823 53 c 0,34,35
 1798 74 1798 74 1790 131 c 1,36,37
 1778 184 1778 184 1778 250 c 2,38,-1
 1778 1303 l 2,39,40
 1778 1376 1778 1376 1774 1409 c 1,41,42
 1765 1438 1765 1438 1733 1487 c 0,43,44
 1679 1569 1679 1569 1561 1569 c 2,45,-1
 1151 1569 l 2,46,47
 1065 1569 1065 1569 1028 1565 c 1,48,49
 987 1556 987 1556 946 1520 c 0,50,51
 877 1454 877 1454 877 1327 c 2,52,-1
 877 246 l 2,53,54
 877 213 877 213 877 197 c 0,55,56
 877 127 877 127 872 115 c 0,57,58
 852 86 852 86 844 74 c 0,59,60
 782 0 782 0 676 0 c 2,61,-1
 410 0 l 2,62,63
 328 0 328 0 270 20 c 0,64,65
 213 37 213 37 180 94 c 0,66,67
 164 127 164 127 164 184 c 0,68,69
 164 221 164 221 164 246 c 2,70,-1
 164 3219 l 2,71,72
 164 3326 164 3326 238 3375 c 1,0,1
774 3092 m 2,73,74
 721 3092 721 3092 676 3092 c 0,75,76
 627 3088 627 3088 578 3052 c 0,77,78
 483 2986 483 2986 483 2871 c 2,79,-1
 483 2146 l 2,80,81
 483 2023 483 2023 549 1962 c 0,82,83
 594 1921 594 1921 651 1905 c 1,84,85
 709 1884 709 1884 782 1884 c 2,86,-1
 1470 1884 l 2,87,88
 1565 1884 1565 1884 1618 1901 c 0,89,90
 1667 1917 1667 1917 1716 1970 c 1,91,92
 1778 2048 1778 2048 1778 2175 c 2,93,-1
 1778 2855 l 2,94,95
 1778 2933 1778 2933 1761 2982 c 1,96,97
 1741 3027 1741 3027 1683 3060 c 1,98,99
 1638 3092 1638 3092 1565 3092 c 0,100,101
 1536 3092 1536 3092 1520 3092 c 2,102,-1
 774 3092 l 2,73,74
EndSplineSet
Validated: 1
EndChar

StartChar: S
Encoding: 83 83 46
Width: 2179
Flags: W
LayerCount: 2
Fore
SplineSet
184 3342 m 0,0,1
 213 3375 213 3375 266 3391 c 0,2,3
 319 3404 319 3404 385 3404 c 2,4,-1
 1806 3404 l 2,5,6
 1880 3404 1880 3404 1913 3400 c 1,7,8
 1946 3391 1946 3391 1982 3363 c 0,9,10
 2052 3310 2052 3310 2052 3211 c 2,11,-1
 2052 2560 l 2,12,13
 2052 2478 2052 2478 2011 2420.5 c 128,-1,14
 1970 2363 1970 2363 1896 2363 c 0,15,16
 1815 2363 1815 2363 1769 2421 c 1,17,18
 1720 2474 1720 2474 1720 2560 c 2,19,-1
 1720 2851 l 2,20,21
 1720 2916 1720 2916 1716 2949 c 1,22,23
 1708 2978 1708 2978 1679 3019 c 0,24,25
 1651 3056 1651 3056 1610 3068 c 128,-1,26
 1569 3080 1569 3080 1507 3080 c 2,27,-1
 745 3080 l 2,28,29
 700 3080 700 3080 664 3080 c 0,30,31
 623 3076 623 3076 578 3047 c 0,32,33
 467 2970 467 2970 467 2843 c 2,34,-1
 467 2179 l 2,35,36
 467 2073 467 2073 524 1991 c 0,37,38
 569 1933 569 1933 602 1908.5 c 128,-1,39
 635 1884 635 1884 692 1884 c 2,40,-1
 1769 1884 l 2,41,42
 1872 1884 1872 1884 1921 1880 c 1,43,44
 1966 1872 1966 1872 2011 1831 c 1,45,46
 2052 1786 2052 1786 2052 1712 c 2,47,-1
 2052 242 l 2,48,49
 2052 209 2052 209 2052 193 c 0,50,51
 2052 147 2052 147 2048 118.5 c 128,-1,52
 2044 90 2044 90 2015 53 c 0,53,54
 1987 16 1987 16 1942 8 c 0,55,56
 1892 -4 1892 -4 1810 -4 c 2,57,-1
 340 -4 l 2,58,59
 295 -4 295 -4 258 4 c 0,60,61
 217 12 217 12 180 53 c 0,62,63
 164 74 164 74 160 115 c 0,64,65
 156 152 156 152 156 205 c 2,66,-1
 156 889 l 2,67,68
 156 975 156 975 205 1028 c 0,69,70
 250 1077 250 1077 373 1077 c 2,71,-1
 655 1077 l 2,72,73
 729 1077 729 1077 786 1024 c 0,74,75
 844 971 844 971 844 868 c 2,76,-1
 844 573 l 2,77,78
 844 463 844 463 889 393 c 0,79,80
 950 299 950 299 1077 299 c 2,81,-1
 1470 303 l 2,82,83
 1589 303 1589 303 1663 365 c 0,84,85
 1737 422 1737 422 1737 524 c 2,86,-1
 1737 1290 l 2,87,88
 1737 1372 1737 1372 1729 1421 c 1,89,90
 1716 1466 1716 1466 1679 1503 c 128,-1,91
 1642 1540 1642 1540 1589 1552 c 0,92,93
 1536 1565 1536 1565 1470 1565 c 2,94,-1
 422 1565 l 2,95,96
 319 1565 319 1565 279 1573 c 1,97,98
 238 1577 238 1577 197 1610 c 0,99,100
 156 1638 156 1638 147 1692 c 0,101,102
 135 1741 135 1741 135 1819 c 2,103,-1
 135 3178 l 2,104,105
 135 3215 135 3215 143 3256 c 0,106,107
 147 3297 147 3297 184 3342 c 0,0,1
EndSplineSet
Validated: 1
EndChar

StartChar: T
Encoding: 84 84 47
Width: 2470
Flags: W
LayerCount: 2
Fore
SplineSet
102 3215 m 0,0,1
 102 3293 102 3293 168 3342 c 0,2,3
 229 3387 229 3387 315 3387 c 2,4,-1
 2183 3387 l 2,5,6
 2257 3387 2257 3387 2314 3342 c 0,7,8
 2372 3297 2372 3297 2372 3228 c 0,9,10
 2372 3158 2372 3158 2318 3105 c 0,11,12
 2265 3052 2265 3052 2195 3052 c 2,13,-1
 1823 3052 l 2,14,15
 1761 3052 1761 3052 1745 3047 c 0,16,17
 1716 3039 1716 3039 1675 3006 c 0,18,19
 1614 2953 1614 2953 1614 2847 c 2,20,-1
 1614 180 l 2,21,22
 1614 111 1614 111 1597 66 c 0,23,24
 1577 16 1577 16 1536 -4 c 0,25,26
 1491 -25 1491 -25 1413 -25 c 2,27,-1
 1106 -25 l 2,28,29
 1036 -25 1036 -25 1008 -16 c 1,30,31
 975 -12 975 -12 946 25 c 0,32,33
 913 61 913 61 909 102 c 0,34,35
 901 143 901 143 901 184 c 2,36,-1
 901 2814 l 2,37,38
 901 2933 901 2933 844 2994 c 0,39,40
 811 3027 811 3027 762 3043 c 0,41,42
 713 3056 713 3056 647 3056 c 2,43,-1
 307 3056 l 2,44,45
 225 3056 225 3056 164 3101 c 0,46,47
 102 3142 102 3142 102 3215 c 0,0,1
EndSplineSet
Validated: 1
EndChar

StartChar: U
Encoding: 85 85 48
Width: 2191
Flags: W
LayerCount: 2
Fore
SplineSet
172 197 m 2,0,-1
 172 3199 l 2,1,2
 172 3285 172 3285 209 3342 c 0,3,4
 246 3400 246 3400 328 3400 c 0,5,6
 401 3400 401 3400 438 3342 c 0,7,8
 475 3281 475 3281 475 3195 c 2,9,-1
 475 594 l 2,10,11
 475 496 475 496 483 451 c 1,12,13
 487 401 487 401 516 373 c 0,14,15
 590 299 590 299 692 299 c 2,16,-1
 1102 299 l 2,17,18
 1139 299 1139 299 1151 299 c 0,19,20
 1200 299 1200 299 1217 303 c 0,21,22
 1245 311 1245 311 1282 336 c 0,23,24
 1335 373 1335 373 1356 422 c 1,25,26
 1372 471 1372 471 1372 553 c 2,27,-1
 1372 3105 l 2,28,29
 1372 3154 1372 3154 1372 3178 c 0,30,31
 1372 3248 1372 3248 1384 3289 c 0,32,33
 1393 3330 1393 3330 1429.5 3358.5 c 128,-1,34
 1466 3387 1466 3387 1519.5 3395.5 c 128,-1,35
 1573 3404 1573 3404 1589 3404 c 2,36,-1
 1892 3404 l 2,37,38
 1954 3404 1954 3404 2003 3363 c 128,-1,39
 2052 3322 2052 3322 2068 3265 c 0,40,41
 2081 3207 2081 3207 2081 3121 c 2,42,-1
 2081 283 l 2,43,44
 2081 238 2081 238 2081 217 c 0,45,46
 2081 147 2081 147 2077 119 c 1,47,48
 2068 90 2068 90 2040 57 c 0,49,50
 1987 0 1987 0 1880 0 c 2,51,-1
 467 0 l 1,52,53
 401 -4 401 -4 369 -4 c 0,54,55
 328 -4 328 -4 295 4 c 128,-1,56
 262 12 262 12 233 41 c 0,57,58
 172 98 172 98 172 197 c 2,0,-1
EndSplineSet
Validated: 1
EndChar

StartChar: V
Encoding: 86 86 49
Width: 2183
Flags: W
LayerCount: 2
Fore
SplineSet
139 1311 m 2,0,-1
 139 3219 l 2,1,2
 139 3297 139 3297 184 3355 c 0,3,4
 225 3408 225 3408 303 3408 c 0,5,6
 377 3408 377 3408 414 3355 c 0,7,8
 451 3297 451 3297 451 3215 c 2,9,-1
 451 1458 l 1,10,-1
 451 1274 l 1,11,12
 455 1241 455 1241 475 1212 c 0,13,14
 492 1184 492 1184 512 1155 c 2,15,-1
 983 418 l 2,16,17
 995 393 995 393 1019.5 364.5 c 128,-1,18
 1044 336 1044 336 1065 324 c 0,19,20
 1073 319 1073 319 1085 319 c 0,21,22
 1090 318 1090 318 1095 318 c 0,23,24
 1107 318 1107 318 1118 324 c 0,25,26
 1147 336 1147 336 1171 356 c 2,27,-1
 1257 438 l 2,28,29
 1286 463 1286 463 1307 512 c 1,30,31
 1356 606 1356 606 1356 684 c 2,32,-1
 1356 3187 l 2,33,34
 1356 3260 1356 3260 1364 3293 c 0,35,36
 1368 3326 1368 3326 1401 3359 c 0,37,38
 1430 3387 1430 3387 1470 3400 c 0,39,40
 1511 3412 1511 3412 1556 3412 c 2,41,-1
 1876 3412 l 2,42,43
 1929 3412 1929 3412 1974 3400 c 1,44,45
 2015 3383 2015 3383 2035.5 3354.5 c 128,-1,46
 2056 3326 2056 3326 2064 3289 c 0,47,48
 2073 3252 2073 3252 2073 3219 c 0,49,50
 2073 3183 2073 3183 2073 3166 c 2,51,-1
 2073 1044 l 2,52,53
 2073 983 2073 983 2073 954 c 0,54,55
 2073 881 2073 881 2044 827 c 0,56,57
 2015 774 2015 774 1966 733 c 2,58,-1
 1270 78 l 2,59,60
 1225 33 1225 33 1184 16 c 0,61,62
 1143 0 1143 0 1069 0 c 0,63,64
 979 0 979 0 934 12 c 0,65,66
 885 25 885 25 852 78 c 2,67,-1
 188 1102 l 2,68,69
 176 1118 176 1118 164 1147 c 0,70,71
 152 1171 152 1171 143 1204 c 0,72,73
 139 1225 139 1225 139 1257 c 0,74,75
 139 1290 139 1290 139 1311 c 2,0,-1
EndSplineSet
Validated: 1
EndChar

StartChar: W
Encoding: 87 87 50
Width: 2949
Flags: W
LayerCount: 2
Fore
SplineSet
197 3305 m 0,0,1
 254 3387 254 3387 356 3387 c 2,2,-1
 668 3387 l 2,3,4
 778 3387 778 3387 823 3334 c 128,-1,5
 868 3281 868 3281 868 3195 c 2,6,-1
 868 1245 l 2,7,8
 868 1200 868 1200 868 1176 c 0,9,10
 868 1122 868 1122 872 1077 c 1,11,12
 872 1028 872 1028 893 1028 c 0,13,14
 905 1028 905 1028 926 1081 c 0,15,16
 930 1098 930 1098 946 1135 c 1,17,-1
 1188 1921 l 2,18,19
 1208 1991 1208 1991 1257 2040 c 0,20,21
 1307 2089 1307 2089 1384 2089 c 0,22,23
 1466 2089 1466 2089 1515.5 2048 c 128,-1,24
 1565 2007 1565 2007 1602 1921 c 2,25,-1
 2273 446 l 2,26,27
 2310 360 2310 360 2335 324 c 0,28,29
 2367 270 2367 270 2396 270 c 0,30,31
 2404 270 2404 270 2413 274 c 0,32,33
 2454 295 2454 295 2466 332 c 0,34,35
 2474 365 2474 365 2474 430 c 2,36,-1
 2474 3166 l 2,37,38
 2474 3248 2474 3248 2519 3313.5 c 128,-1,39
 2564 3379 2564 3379 2638 3379 c 256,40,41
 2712 3379 2712 3379 2761 3322 c 1,42,43
 2806 3260 2806 3260 2806 3178 c 2,44,-1
 2806 201 l 2,45,46
 2806 127 2806 127 2802 98 c 1,47,48
 2793 70 2793 70 2760.5 33 c 128,-1,49
 2728 -4 2728 -4 2691 -12 c 1,50,51
 2654 -25 2654 -25 2593 -25 c 2,52,-1
 2290 -29 l 2,53,54
 2208 -29 2208 -29 2159 4 c 0,55,56
 2109 33 2109 33 2073 106 c 2,57,-1
 1479 1368 l 2,58,59
 1458 1413 1458 1413 1434 1462 c 1,60,61
 1405 1511 1405 1511 1389 1511 c 0,62,63
 1372 1511 1372 1511 1348 1458 c 0,64,65
 1323 1401 1323 1401 1311 1364 c 2,66,-1
 991 274 l 2,67,68
 979 238 979 238 958 197 c 0,69,70
 926 127 926 127 893 90 c 0,71,72
 856 49 856 49 799 16 c 0,73,74
 737 -20 737 -20 692 -20 c 2,75,-1
 344 -20 l 2,76,77
 250 -20 250 -20 193 45 c 0,78,79
 176 66 176 66 168 98 c 0,80,81
 160 127 160 127 160 156 c 0,82,83
 160 184 160 184 160 201 c 2,84,-1
 160 3150 l 2,85,86
 160 3211 160 3211 168 3240 c 0,87,88
 172 3269 172 3269 197 3305 c 0,0,1
1364 3322 m 0,89,90
 1425 3379 1425 3379 1511 3379 c 2,91,-1
 1831 3379 l 2,92,93
 1909 3379 1909 3379 1970 3330 c 1,94,95
 2028 3277 2028 3277 2028 3195 c 2,96,-1
 2028 2560 l 2,97,98
 2028 2494 2028 2494 2019 2458 c 0,99,100
 2011 2421 2011 2421 1978 2388 c 0,101,102
 1942 2355 1942 2355 1905 2347 c 0,103,104
 1864 2335 1864 2335 1806 2335 c 2,105,-1
 1507 2335 l 2,106,107
 1466 2335 1466 2335 1421 2343 c 1,108,109
 1372 2347 1372 2347 1348 2388 c 0,110,111
 1323 2425 1323 2425 1319 2462 c 0,112,113
 1311 2499 1311 2499 1311 2560 c 2,114,-1
 1311 3178 l 2,115,116
 1311 3219 1311 3219 1327 3260 c 128,-1,117
 1343 3301 1343 3301 1364 3322 c 0,89,90
EndSplineSet
Validated: 1
EndChar

StartChar: X
Encoding: 88 88 51
Width: 2224
Flags: W
LayerCount: 2
Fore
SplineSet
225 1262 m 0,0,1
 266 1315 266 1315 537 1524 c 0,2,3
 733 1675 733 1675 733 1802 c 0,4,5
 733 1942 733 1942 598 2048 c 2,6,-1
 291 2286 l 1,7,8
 221 2347 221 2347 184 2421 c 1,9,10
 164 2474 164 2474 164 2535 c 0,11,12
 164 2585 164 2585 164 2613 c 2,13,-1
 164 3232 l 2,14,15
 164 3297 164 3297 213 3351 c 0,16,17
 258 3400 258 3400 332 3400 c 0,18,19
 401 3400 401 3400 446 3351 c 1,20,21
 487 3297 487 3297 487 3224 c 2,22,-1
 487 2703 l 2,23,24
 487 2666 487 2666 492 2634 c 1,25,26
 492 2601 492 2601 504 2564 c 0,27,28
 532 2499 532 2499 590 2454 c 2,29,-1
 971 2163 l 1,30,31
 1049 2109 1049 2109 1139 2109 c 0,32,33
 1225 2109 1225 2109 1303 2163 c 2,34,-1
 1659 2429 l 2,35,36
 1675 2437 1675 2437 1704 2465.5 c 128,-1,37
 1733 2494 1733 2494 1745 2515 c 0,38,39
 1790 2589 1790 2589 1790 2703 c 2,40,-1
 1790 3232 l 2,41,42
 1790 3297 1790 3297 1839 3346 c 0,43,44
 1884 3391 1884 3391 1950 3391 c 0,45,46
 2011 3391 2011 3391 2060 3350.5 c 128,-1,47
 2109 3310 2109 3310 2109 3252 c 2,48,-1
 2109 2572 l 2,49,50
 2109 2466 2109 2466 2081 2396 c 0,51,52
 2068 2359 2068 2359 2023 2314 c 0,53,54
 2007 2298 2007 2298 1974 2273 c 2,55,-1
 1700 2056 l 2,56,57
 1622 1995 1622 1995 1573 1925 c 0,58,59
 1520 1855 1520 1855 1520 1802 c 0,60,61
 1520 1737 1520 1737 1548 1679 c 0,62,63
 1573 1622 1573 1622 1671 1548 c 2,64,-1
 1970 1311 l 1,65,66
 2040 1266 2040 1266 2068 1204 c 0,67,68
 2093 1139 2093 1139 2093 1053 c 2,69,-1
 2093 135 l 2,70,71
 2093 57 2093 57 2060 12 c 0,72,73
 2028 -37 2028 -37 1946 -37 c 256,74,75
 1864 -37 1864 -37 1819 8 c 0,76,77
 1769 53 1769 53 1769 127 c 2,78,-1
 1769 852 l 2,79,80
 1769 901 1769 901 1769 922 c 0,81,82
 1769 946 1769 946 1769 971 c 1,83,84
 1761 1004 1761 1004 1757 1032 c 0,85,86
 1753 1061 1753 1061 1728.5 1098 c 128,-1,87
 1704 1135 1704 1135 1671 1155 c 1,88,-1
 1405 1360 l 2,89,90
 1364 1393 1364 1393 1307 1425 c 0,91,92
 1221 1479 1221 1479 1126 1479 c 0,93,94
 1061 1479 1061 1479 1024 1462 c 0,95,96
 983 1446 983 1446 909 1397 c 1,97,-1
 594 1167 l 2,98,99
 545 1135 545 1135 508 1073 c 1,100,101
 496 1044 496 1044 487 1004 c 0,102,103
 479 963 479 963 479 889 c 2,104,-1
 479 152 l 2,105,106
 479 82 479 82 434 28.5 c 128,-1,107
 389 -25 389 -25 315 -25 c 0,108,109
 246 -25 246 -25 201 33 c 1,110,111
 152 86 152 86 152 160 c 2,112,-1
 152 987 l 2,113,114
 152 1081 152 1081 168 1147 c 0,115,116
 180 1208 180 1208 225 1262 c 0,0,1
EndSplineSet
Validated: 1
EndChar

StartChar: Y
Encoding: 89 89 52
Width: 2187
Flags: W
LayerCount: 2
Fore
SplineSet
160 2142 m 2,0,-1
 160 3211 l 2,1,2
 160 3346 160 3346 283 3367 c 0,3,4
 295 3371 295 3371 307 3371 c 0,5,6
 365 3371 365 3371 406 3330 c 0,7,8
 459 3281 459 3281 459 3211 c 2,9,-1
 459 2339 l 2,10,11
 459 2245 459 2245 471 2187 c 1,12,13
 479 2126 479 2126 492 2097 c 1,14,15
 500 2068 500 2068 537 2040 c 2,16,-1
 901 1753 l 2,17,18
 958 1712 958 1712 1008 1692 c 1,19,20
 1057 1667 1057 1667 1118 1667 c 0,21,22
 1176 1667 1176 1667 1221 1688 c 1,23,24
 1266 1704 1266 1704 1319 1745 c 2,25,-1
 1630 1982 l 2,26,27
 1671 2015 1671 2015 1700 2048 c 0,28,29
 1724 2077 1724 2077 1740.5 2118 c 128,-1,30
 1757 2159 1757 2159 1761 2200 c 128,-1,31
 1765 2241 1765 2241 1765 2302 c 2,32,-1
 1765 3219 l 2,33,34
 1765 3285 1765 3285 1810 3338 c 0,35,36
 1851 3387 1851 3387 1921 3387 c 256,37,38
 1991 3387 1991 3387 2036 3342 c 1,39,40
 2077 3293 2077 3293 2077 3224 c 2,41,-1
 2077 2105 l 2,42,43
 2077 2019 2077 2019 2044 1949.5 c 128,-1,44
 2011 1880 2011 1880 1933 1819 c 2,45,-1
 1671 1630 l 2,46,47
 1647 1614 1647 1614 1626 1593 c 0,48,49
 1602 1569 1602 1569 1569 1528 c 0,50,51
 1516 1454 1516 1454 1491 1384 c 1,52,53
 1462 1315 1462 1315 1462 1225 c 2,54,-1
 1462 205 l 2,55,56
 1462 66 1462 66 1413 20 c 0,57,58
 1360 -25 1360 -25 1257 -25 c 2,59,-1
 999 -25 l 2,60,61
 901 -25 901 -25 864 -16 c 0,62,63
 823 -8 823 -8 803 25 c 1,64,65
 778 57 778 57 770 102 c 128,-1,66
 762 147 762 147 762 184 c 2,67,-1
 762 1225 l 2,68,69
 762 1319 762 1319 758 1368 c 1,70,71
 750 1413 750 1413 717 1470 c 0,72,73
 664 1573 664 1573 565 1642 c 1,74,-1
 324 1823 l 2,75,76
 270 1864 270 1864 237.5 1900.5 c 128,-1,77
 205 1937 205 1937 188 1970 c 1,78,79
 168 1999 168 1999 164 2040 c 0,80,81
 160 2077 160 2077 160 2142 c 2,0,-1
EndSplineSet
Validated: 1
EndChar

StartChar: Z
Encoding: 90 90 53
Width: 2433
Flags: W
LayerCount: 2
Fore
SplineSet
299 2273 m 256,0,1
 221 2273 221 2273 180 2335 c 0,2,3
 139 2392 139 2392 139 2474 c 2,4,-1
 139 3133 l 2,5,6
 139 3207 139 3207 147 3240 c 0,7,8
 152 3269 152 3269 184 3305 c 0,9,10
 213 3338 213 3338 258 3350.5 c 128,-1,11
 303 3363 303 3363 348 3363 c 0,12,13
 389 3363 389 3363 410 3363 c 2,14,-1
 2093 3363 l 2,15,16
 2122 3363 2122 3363 2167 3363 c 0,17,18
 2212 3359 2212 3359 2232 3330 c 0,19,20
 2253 3297 2253 3297 2253 3265 c 0,21,22
 2253 3232 2253 3232 2241 3199 c 0,23,24
 2236 3191 2236 3191 2204 3129 c 2,25,-1
 684 401 l 2,26,27
 659 360 659 360 655 344 c 128,-1,28
 651 328 651 328 651 315 c 0,29,30
 650 310 650 310 650 305 c 0,31,32
 650 295 650 295 655 287 c 0,33,34
 664 274 664 274 696 266 c 0,35,36
 725 258 725 258 786 258 c 2,37,-1
 1430 258 l 2,38,39
 1470 258 1470 258 1503 262 c 0,40,41
 1532 262 1532 262 1552 279 c 0,42,43
 1573 295 1573 295 1581 327.5 c 128,-1,44
 1589 360 1589 360 1589 401 c 2,45,-1
 1589 918 l 2,46,47
 1589 967 1589 967 1597 999 c 0,48,49
 1602 1028 1602 1028 1622 1053 c 0,50,51
 1663 1094 1663 1094 1769 1094 c 2,52,-1
 2126 1094 l 2,53,54
 2183 1094 2183 1094 2228 1085 c 0,55,56
 2269 1073 2269 1073 2290 1053 c 0,57,58
 2310 1028 2310 1028 2314 995 c 0,59,60
 2318 963 2318 963 2318 913 c 2,61,-1
 2318 205 l 2,62,63
 2318 143 2318 143 2306 102 c 0,64,65
 2290 61 2290 61 2253 28.5 c 128,-1,66
 2216 -4 2216 -4 2183 -12 c 1,67,68
 2150 -25 2150 -25 2085 -25 c 2,69,-1
 393 -29 l 2,70,71
 295 -29 295 -29 254 -20 c 1,72,73
 213 -16 213 -16 172 25 c 0,74,75
 147 45 147 45 147 98 c 0,76,77
 147 139 147 139 168 180 c 2,78,-1
 1647 2871 l 2,79,80
 1667 2912 1667 2912 1679 2945 c 0,81,82
 1692 2974 1692 2974 1692 2994 c 0,83,84
 1692 3015 1692 3015 1679 3027 c 0,85,86
 1659 3047 1659 3047 1581 3047 c 0,87,88
 1552 3047 1552 3047 1536 3047 c 2,89,-1
 717 3047 l 2,90,91
 623 3047 623 3047 561 3006 c 0,92,93
 520 2982 520 2982 487 2925 c 0,94,95
 451 2867 451 2867 451 2810 c 2,96,-1
 451 2474 l 2,97,98
 451 2392 451 2392 414 2335 c 0,99,100
 377 2273 377 2273 299 2273 c 256,0,1
EndSplineSet
Validated: 1
EndChar

StartChar: cent
Encoding: 162 162 54
Width: 1413
Flags: W
LayerCount: 2
Fore
SplineSet
180 2978 m 1,0,1
 225 3006 225 3006 303 3006 c 2,2,-1
 459 3006 l 2,3,4
 537 3006 537 3006 557 3023 c 0,5,6
 578 3039 578 3039 578 3097 c 2,7,-1
 578 3252 l 2,8,9
 578 3301 578 3301 614 3338 c 0,10,11
 651 3375 651 3375 692 3375 c 0,12,13
 737 3375 737 3375 774 3342 c 0,14,15
 811 3310 811 3310 811 3256 c 2,16,-1
 811 3097 l 2,17,18
 811 3047 811 3047 840 3023 c 0,19,20
 852 3011 852 3011 881 3006 c 1,21,22
 905 3006 905 3006 934 3006 c 2,23,-1
 1143 3006 l 2,24,25
 1233 3006 1233 3006 1290 2957 c 0,26,27
 1343 2908 1343 2908 1343 2818 c 2,28,-1
 1343 2523 l 2,29,30
 1343 2482 1343 2482 1343 2445 c 0,31,32
 1339 2408 1339 2408 1311 2363 c 0,33,34
 1303 2343 1303 2343 1266 2322 c 0,35,36
 1225 2302 1225 2302 1200 2302 c 2,37,-1
 1040 2302 l 2,38,39
 991 2302 991 2302 950 2335 c 0,40,41
 905 2367 905 2367 897 2417 c 0,42,43
 889 2462 889 2462 889 2482 c 0,44,45
 889 2519 889 2519 889 2540 c 0,46,47
 889 2597 889 2597 885 2634 c 1,48,49
 877 2666 877 2666 860 2666 c 0,50,51
 823 2666 823 2666 823 2597 c 0,52,53
 823 2527 823 2527 823 2490 c 1,54,55
 803 2380 803 2380 692 2380 c 0,56,57
 643 2380 643 2380 606 2408 c 0,58,59
 569 2437 569 2437 569 2482 c 2,60,-1
 569 2646 l 2,61,62
 569 2740 569 2740 487 2740 c 0,63,64
 434 2740 434 2740 405.5 2719.5 c 128,-1,65
 377 2699 377 2699 377 2634 c 2,66,-1
 377 1274 l 2,67,68
 377 1126 377 1126 479 1126 c 0,69,70
 578 1126 578 1126 578 1217 c 2,71,-1
 578 1372 l 2,72,73
 578 1425 578 1425 610 1462 c 0,74,75
 639 1495 639 1495 688 1495 c 256,76,77
 737 1495 737 1495 770 1462 c 0,78,79
 803 1430 803 1430 803 1376 c 2,80,-1
 803 1225 l 2,81,82
 803 1163 803 1163 848 1147 c 1,83,84
 889 1126 889 1126 950 1126 c 0,85,86
 1016 1126 1016 1126 1053 1146.5 c 128,-1,87
 1090 1167 1090 1167 1090 1225 c 2,88,-1
 1090 1425 l 2,89,90
 1090 1487 1090 1487 1122 1528 c 0,91,92
 1151 1565 1151 1565 1204 1565 c 0,93,94
 1262 1565 1262 1565 1294 1528 c 0,95,96
 1327 1491 1327 1491 1327 1430 c 2,97,-1
 1327 1036 l 2,98,99
 1327 995 1327 995 1323 975 c 0,100,101
 1319 950 1319 950 1294 926 c 0,102,103
 1253 885 1253 885 1171 885 c 2,104,-1
 934 885 l 2,105,106
 868 885 868 885 836 860 c 0,107,108
 799 831 799 831 799 786 c 2,109,-1
 799 614 l 2,110,111
 799 565 799 565 770 528 c 0,112,113
 741 492 741 492 692 492 c 0,114,115
 647 492 647 492 610 524 c 0,116,117
 573 557 573 557 573 610 c 2,118,-1
 573 750 l 2,119,120
 573 827 573 827 553 856 c 0,121,122
 532 881 532 881 499.5 885 c 128,-1,123
 467 889 467 889 422 889 c 2,124,-1
 266 889 l 2,125,126
 201 889 201 889 164 926 c 0,127,128
 123 963 123 963 123 1044 c 2,129,-1
 123 2851 l 2,130,131
 123 2929 123 2929 180 2978 c 1,0,1
EndSplineSet
Validated: 1
EndChar

StartChar: sterling
Encoding: 163 163 55
Width: 2281
Flags: W
LayerCount: 2
Fore
SplineSet
782 2482 m 0,0,1
 807 2482 807 2482 815 2572 c 0,2,3
 819 2658 819 2658 819 2691 c 2,4,-1
 819 3080 l 2,5,6
 819 3154 819 3154 864 3207 c 0,7,8
 905 3256 905 3256 971 3256 c 0,9,10
 1036 3256 1036 3256 1081 3207 c 128,-1,11
 1126 3158 1126 3158 1126 3088 c 2,12,-1
 1126 2236 l 1,13,-1
 1126 2081 l 1,14,15
 1135 2003 1135 2003 1163 1966 c 2,16,-1
 1872 1094 l 2,17,18
 1913 1040 1913 1040 1913 975 c 0,19,20
 1913 922 1913 922 1876 889 c 0,21,22
 1835 852 1835 852 1786 852 c 0,23,24
 1708 852 1708 852 1663 909 c 2,25,-1
 1253 1405 l 2,26,27
 1233 1430 1233 1430 1204 1454 c 0,28,29
 1176 1479 1176 1479 1155 1479 c 0,30,31
 1139 1479 1139 1479 1130 1462 c 0,32,33
 1118 1438 1118 1438 1118 1376 c 0,34,35
 1118 1327 1118 1327 1118 1307 c 2,36,-1
 1118 549 l 2,37,38
 1118 496 1118 496 1122 471 c 0,39,40
 1126 442 1126 442 1151 401 c 0,41,42
 1176 356 1176 356 1233 319 c 0,43,44
 1286 283 1286 283 1348 283 c 2,45,-1
 2019 283 l 2,46,47
 2085 283 2085 283 2138 246 c 1,48,49
 2187 205 2187 205 2187 139 c 0,50,51
 2187 78 2187 78 2138 41 c 0,52,53
 2085 0 2085 0 2011 0 c 2,54,-1
 721 0 l 1,55,56
 659 -4 659 -4 631 -4 c 0,57,58
 586 -4 586 -4 565 0 c 0,59,60
 532 8 532 8 504 33 c 0,61,62
 438 90 438 90 438 209 c 2,63,-1
 438 1327 l 2,64,65
 438 1397 438 1397 471 1458 c 0,66,67
 492 1495 492 1495 561 1520 c 0,68,69
 729 1573 729 1573 766 1622 c 0,70,71
 799 1667 799 1667 811 1757 c 0,72,73
 819 1843 819 1843 819 1868 c 0,74,75
 815 1909 815 1909 815 1917 c 0,76,77
 811 1942 811 1942 799 1966 c 0,78,79
 795 1974 795 1974 766 2011 c 2,80,-1
 152 2761 l 2,81,82
 115 2810 115 2810 115 2867 c 0,83,84
 115 2929 115 2929 151.5 2965.5 c 128,-1,85
 188 3002 188 3002 242 3002 c 0,86,87
 324 3002 324 3002 369 2945 c 2,88,-1
 705 2540 l 2,89,90
 729 2511 729 2511 737 2503 c 0,91,92
 762 2482 762 2482 782 2482 c 0,0,1
EndSplineSet
Validated: 1
EndChar

StartChar: bullet
Encoding: 165 165 56
Width: 1356
Flags: W
LayerCount: 2
Fore
SplineSet
152 1868 m 0,0,1
 213 1954 213 1954 340 1954 c 2,2,-1
 995 1954 l 2,3,4
 1098 1954 1098 1954 1176 1888 c 0,5,6
 1221 1851 1221 1851 1237 1802 c 0,7,8
 1253 1749 1253 1749 1253 1679 c 2,9,-1
 1253 1036 l 2,10,11
 1253 942 1253 942 1212 885 c 0,12,13
 1155 799 1155 799 1044 799 c 2,14,-1
 307 799 l 2,15,16
 262 799 262 799 225 819 c 0,17,18
 188 840 188 840 160 877 c 1,19,20
 127 913 127 913 119 954 c 1,21,22
 106 995 106 995 106 1065 c 2,23,-1
 106 1724 l 2,24,25
 106 1802 106 1802 152 1868 c 0,0,1
EndSplineSet
Validated: 1
EndChar

StartChar: endash
Encoding: 208 208 58
Width: 2740
Flags: W
LayerCount: 2
Fore
SplineSet
303 1737 m 0,0,1
 332 1765 332 1765 381 1773.5 c 128,-1,2
 430 1782 430 1782 487 1782 c 2,3,-1
 2130 1782 l 2,4,5
 2187 1782 2187 1782 2245 1782 c 1,6,7
 2294 1794 2294 1794 2339 1802 c 0,8,9
 2384 1806 2384 1806 2462 1851 c 0,10,11
 2540 1892 2540 1892 2576 1892 c 0,12,13
 2605 1892 2605 1892 2646 1864 c 0,14,15
 2683 1835 2683 1835 2683 1778 c 0,16,17
 2683 1757 2683 1757 2674.5 1720 c 128,-1,18
 2666 1683 2666 1683 2658 1663 c 2,19,-1
 2535 1286 l 1,20,21
 2523 1225 2523 1225 2474 1196 c 0,22,23
 2425 1163 2425 1163 2380 1159 c 0,24,25
 2331 1151 2331 1151 2232 1151 c 2,26,-1
 688 1151 l 2,27,28
 631 1151 631 1151 586 1151 c 0,29,30
 541 1147 541 1147 475 1126 c 0,31,32
 451 1118 451 1118 360 1073 c 0,33,34
 266 1024 266 1024 217 1024 c 0,35,36
 193 1024 193 1024 168 1036 c 0,37,38
 111 1069 111 1069 111 1139 c 0,39,40
 111 1163 111 1163 127 1229 c 2,41,-1
 233 1630 l 2,42,43
 238 1651 238 1651 262 1688 c 0,44,45
 287 1720 287 1720 303 1737 c 0,0,1
EndSplineSet
Validated: 1
EndChar

StartChar: emdash
Encoding: 209 209 59
Width: 1946
Flags: W
LayerCount: 2
Fore
SplineSet
303 1737 m 0,0,1
 332 1765 332 1765 381 1773.5 c 128,-1,2
 430 1782 430 1782 487 1782 c 2,3,-1
 1184 1782 l 2,4,5
 1298 1782 1298 1782 1380 1794 c 128,-1,6
 1462 1806 1462 1806 1614 1876 c 0,7,8
 1683 1909 1683 1909 1720 1909 c 256,9,10
 1757 1909 1757 1909 1794 1884 c 0,11,12
 1810 1876 1810 1876 1819 1860 c 0,13,14
 1835 1831 1835 1831 1835 1794 c 0,15,16
 1835 1765 1835 1765 1827 1729 c 0,17,18
 1815 1692 1815 1692 1810 1667 c 2,19,-1
 1700 1348 l 2,20,21
 1683 1298 1683 1298 1667 1257 c 0,22,23
 1647 1212 1647 1212 1614 1188 c 0,24,25
 1577 1163 1577 1163 1548 1159 c 0,26,27
 1516 1151 1516 1151 1466 1151 c 0,28,29
 1434 1151 1434 1151 1413 1151 c 2,30,-1
 688 1151 l 2,31,32
 631 1151 631 1151 586 1151 c 0,33,34
 541 1147 541 1147 475 1126 c 0,35,36
 451 1118 451 1118 360 1073 c 0,37,38
 266 1024 266 1024 217 1024 c 0,39,40
 193 1024 193 1024 168 1036 c 0,41,42
 111 1069 111 1069 111 1139 c 0,43,44
 111 1163 111 1163 127 1229 c 2,45,-1
 233 1630 l 2,46,47
 238 1651 238 1651 262 1688 c 0,48,49
 287 1720 287 1720 303 1737 c 0,0,1
EndSplineSet
Validated: 1
EndChar

StartChar: quotedblleft
Encoding: 210 210 60
Width: 1671
Flags: W
LayerCount: 2
Fore
SplineSet
705 2343 m 0,0,1
 688 2318 688 2318 651 2306 c 0,2,3
 610 2290 610 2290 537 2290 c 2,4,-1
 283 2290 l 2,5,6
 246 2290 246 2290 213 2294 c 0,7,8
 180 2294 180 2294 156 2322 c 0,9,10
 111 2367 111 2367 111 2466 c 2,11,-1
 111 2912 l 2,12,13
 111 3060 111 3060 193 3178 c 0,14,15
 270 3293 270 3293 393 3351 c 0,16,17
 451 3375 451 3375 524 3383 c 0,18,19
 594 3391 594 3391 635 3391 c 1,20,21
 664 3387 664 3387 692 3355 c 0,22,23
 717 3326 717 3326 717 3301 c 0,24,25
 717 3297 717 3297 717 3293 c 0,26,27
 717 3265 717 3265 598 3187 c 128,-1,28
 479 3109 479 3109 479 2986 c 0,29,30
 479 2912 479 2912 524 2888 c 1,31,32
 606 2859 606 2859 688 2830 c 1,33,34
 717 2806 717 2806 725 2765 c 128,-1,35
 733 2724 733 2724 733 2666 c 2,36,-1
 733 2445 l 2,37,38
 733 2388 733 2388 705 2343 c 0,0,1
1528 2343 m 0,39,40
 1507 2310 1507 2310 1466 2302 c 0,41,42
 1421 2290 1421 2290 1356 2290 c 2,43,-1
 1106 2290 l 2,44,45
 1069 2290 1069 2290 1036 2294 c 0,46,47
 1004 2294 1004 2294 979 2322 c 0,48,49
 934 2363 934 2363 934 2466 c 2,50,-1
 934 2912 l 2,51,52
 934 3060 934 3060 1016 3178 c 0,53,54
 1094 3293 1094 3293 1217 3351 c 0,55,56
 1274 3375 1274 3375 1348 3383 c 0,57,58
 1417 3391 1417 3391 1458 3391 c 1,59,60
 1487 3387 1487 3387 1516 3355 c 0,61,62
 1540 3326 1540 3326 1540 3301 c 0,63,64
 1540 3297 1540 3297 1540 3293 c 0,65,66
 1540 3265 1540 3265 1421 3187 c 0,67,68
 1303 3109 1303 3109 1303 2986 c 0,69,70
 1303 2912 1303 2912 1348 2888 c 1,71,72
 1430 2859 1430 2859 1511 2830 c 1,73,74
 1540 2806 1540 2806 1548 2765 c 128,-1,75
 1556 2724 1556 2724 1556 2666 c 2,76,-1
 1556 2445 l 2,77,78
 1556 2388 1556 2388 1528 2343 c 0,39,40
EndSplineSet
Validated: 1
EndChar

StartChar: quotedblright
Encoding: 211 211 61
Width: 1622
Flags: W
LayerCount: 2
Fore
SplineSet
135 3383 m 1,0,1
 160 3416 160 3416 205 3428 c 0,2,3
 246 3437 246 3437 307 3437 c 2,4,-1
 557 3437 l 2,5,6
 590 3437 590 3437 627 3437 c 1,7,8
 659 3432 659 3432 688 3404 c 0,9,10
 733 3359 733 3359 733 3260 c 2,11,-1
 733 2814 l 2,12,13
 733 2671 733 2671 651 2552 c 0,14,15
 565 2433 565 2433 446 2380 c 0,16,17
 393 2355 393 2355 328 2347 c 0,18,19
 258 2335 258 2335 209 2335 c 1,20,21
 180 2339 180 2339 152 2372 c 0,22,23
 127 2400 127 2400 127 2425 c 0,24,25
 127 2429 127 2429 127 2433 c 0,26,27
 127 2458 127 2458 246 2539.5 c 128,-1,28
 365 2621 365 2621 365 2740 c 0,29,30
 365 2839 365 2839 270 2859 c 0,31,32
 176 2879 176 2879 151.5 2899.5 c 128,-1,33
 127 2920 127 2920 119 2961 c 128,-1,34
 111 3002 111 3002 111 3060 c 2,35,-1
 111 3281 l 2,36,37
 111 3338 111 3338 135 3383 c 1,0,1
954 3383 m 1,38,39
 979 3416 979 3416 1024 3428 c 0,40,41
 1065 3437 1065 3437 1126 3437 c 2,42,-1
 1376 3437 l 2,43,44
 1409 3437 1409 3437 1446 3437 c 1,45,46
 1479 3432 1479 3432 1507 3404 c 0,47,48
 1552 3359 1552 3359 1552 3260 c 2,49,-1
 1552 2814 l 2,50,51
 1552 2671 1552 2671 1470 2552 c 0,52,53
 1384 2433 1384 2433 1266 2380 c 0,54,55
 1212 2355 1212 2355 1147 2347 c 0,56,57
 1077 2335 1077 2335 1028 2335 c 1,58,59
 999 2339 999 2339 971 2372 c 0,60,61
 946 2400 946 2400 946 2425 c 0,62,63
 946 2429 946 2429 946 2433 c 0,64,65
 946 2458 946 2458 1065 2539.5 c 128,-1,66
 1184 2621 1184 2621 1184 2740 c 0,67,68
 1184 2839 1184 2839 1089.5 2859 c 128,-1,69
 995 2879 995 2879 970.5 2899.5 c 128,-1,70
 946 2920 946 2920 938 2961 c 128,-1,71
 930 3002 930 3002 930 3060 c 2,72,-1
 930 3281 l 2,73,74
 930 3338 930 3338 954 3383 c 1,38,39
EndSplineSet
Validated: 1
EndChar

StartChar: q
Encoding: 113 113 62
Width: 1600
Flags: W
LayerCount: 2
Fore
SplineSet
144 2008 m 0,0,1
 168 2033 168 2033 205 2040 c 0,2,3
 242 2045 242 2045 309 2045 c 2,4,-1
 1323 2045 l 2,5,6
 1352 2045 1352 2045 1368 2045 c 0,7,8
 1414 2045 1414 2045 1435 2043 c 0,9,10
 1453 2038 1453 2038 1480 2016 c 0,11,12
 1533 1974 1533 1974 1533 1893 c 2,13,-1
 1533 152 l 2,14,15
 1533 71 1533 71 1496 44 c 0,16,17
 1475 29 1475 29 1384 15 c 0,18,19
 1307 2 1307 2 1307 -29 c 0,20,21
 1307 -34 1307 -34 1310 -42 c 2,22,-1
 1352 -155 l 2,23,24
 1363 -184 1363 -184 1363 -202 c 0,25,26
 1363 -260 1363 -260 1297 -290 c 0,27,28
 1273 -300 1273 -300 1246 -300 c 0,29,30
 1200 -300 1200 -300 1168.5 -273 c 128,-1,31
 1137 -246 1137 -246 1115 -199 c 2,32,-1
 1049 -59 l 2,33,34
 1030 -20 1030 -20 1003 -7 c 0,35,36
 974 5 974 5 921 5 c 2,37,-1
 320 5 l 2,38,39
 258 5 258 5 226 10 c 0,40,41
 194 12 194 12 165 29 c 0,42,43
 101 64 101 64 101 137 c 2,44,-1
 101 1910 l 2,45,46
 101 1969 101 1969 144 2008 c 0,0,1
362 1819 m 0,47,48
 343 1799 343 1799 330 1777 c 128,-1,49
 317 1755 317 1755 317 1728 c 2,50,-1
 317 1507 l 1,51,-1
 317 1445 l 1,52,53
 322 1423 322 1423 389 1411 c 0,54,55
 452 1399 452 1399 469 1374 c 0,56,57
 482 1350 482 1350 487 1323 c 0,58,59
 493 1293 493 1293 493 1263 c 2,60,-1
 493 307 l 2,61,62
 493 280 493 280 493 268 c 0,63,64
 493 251 493 251 495 241 c 0,65,66
 500 229 500 229 514 216 c 0,67,68
 537 194 537 194 586 194 c 2,69,-1
 814 194 l 2,70,71
 841 194 841 194 855 194 c 0,72,73
 899 194 899 194 905 214 c 0,74,75
 908 219 908 219 908 224 c 0,76,77
 908 236 908 236 899 251 c 0,78,79
 881 290 881 290 879 292 c 2,80,-1
 817 435 l 2,81,82
 809 455 809 455 809 475 c 0,83,84
 809 543 809 543 879 575 c 0,85,86
 899 585 899 585 932 585 c 0,87,88
 1006 585 1006 585 1030 538 c 2,89,-1
 1147 305 l 2,90,91
 1163 275 1163 275 1182 246 c 1,92,93
 1198 214 1198 214 1214 211 c 0,94,95
 1219 211 1219 211 1224 211 c 0,96,97
 1243 211 1243 211 1262 224 c 0,98,99
 1286 241 1286 241 1302 270.5 c 128,-1,100
 1318 300 1318 300 1323 329 c 0,101,102
 1328 356 1328 356 1328 398 c 2,103,-1
 1328 1696 l 2,104,105
 1328 1765 1328 1765 1285.5 1809 c 128,-1,106
 1243 1853 1243 1853 1156 1853 c 2,107,-1
 495 1853 l 2,108,109
 447 1853 447 1853 418 1848 c 0,110,111
 389 1841 389 1841 362 1819 c 0,47,48
EndSplineSet
Validated: 1
EndChar

StartChar: w
Encoding: 119 119 63
Width: 1917
Flags: W
LayerCount: 2
Fore
SplineSet
128 1983 m 0,0,1
 165 2033 165 2033 231 2033 c 2,2,-1
 434 2033 l 2,3,4
 506 2033 506 2033 535 2001 c 128,-1,5
 564 1969 564 1969 564 1917 c 2,6,-1
 564 747 l 2,7,8
 564 720 564 720 564 706 c 0,9,10
 564 673 564 673 567 646 c 0,11,12
 567 617 567 617 580 617 c 0,13,14
 588 617 588 617 602 649 c 0,15,16
 604 659 604 659 615 681 c 2,17,-1
 772 1153 l 2,18,19
 785 1195 785 1195 817 1224 c 0,20,21
 849 1254 849 1254 899 1254 c 0,22,23
 953 1254 953 1254 985 1229 c 128,-1,24
 1017 1204 1017 1204 1041 1153 c 2,25,-1
 1477 268 l 2,26,27
 1501 216 1501 216 1518 194 c 0,28,29
 1538 162 1538 162 1557 162 c 0,30,31
 1562 162 1562 162 1568 164 c 0,32,33
 1595 177 1595 177 1603 199 c 0,34,35
 1608 219 1608 219 1608 258 c 2,36,-1
 1608 1900 l 2,37,38
 1608 1949 1608 1949 1637 1988.5 c 128,-1,39
 1666 2028 1666 2028 1714 2028 c 0,40,41
 1763 2028 1763 2028 1794 1994 c 0,42,43
 1824 1956 1824 1956 1824 1907 c 2,44,-1
 1824 121 l 2,45,46
 1824 76 1824 76 1821 59 c 0,47,48
 1815 42 1815 42 1794 20 c 128,-1,49
 1773 -2 1773 -2 1749 -7 c 0,50,51
 1725 -15 1725 -15 1685 -15 c 2,52,-1
 1488 -17 l 2,53,54
 1435 -17 1435 -17 1403 1.5 c 128,-1,55
 1371 20 1371 20 1347 64 c 2,56,-1
 961 821 l 2,57,58
 948 848 948 848 932 877 c 0,59,60
 913 907 913 907 903 907 c 0,61,62
 892 907 892 907 876 875 c 0,63,64
 860 841 860 841 852 819 c 2,65,-1
 644 164 l 2,66,67
 636 143 636 143 623 118 c 0,68,69
 602 76 602 76 580 54 c 0,70,71
 556 29 556 29 519 10 c 0,72,73
 479 -12 479 -12 450 -12 c 2,74,-1
 224 -12 l 2,75,76
 162 -12 162 -12 125 27 c 0,77,78
 114 40 114 40 109 59 c 0,79,80
 104 76 104 76 104 94 c 0,81,82
 104 110 104 110 104 121 c 2,83,-1
 104 1890 l 2,84,85
 104 1927 104 1927 109 1944 c 0,86,87
 112 1962 112 1962 128 1983 c 0,0,1
886 1994 m 0,88,89
 926 2028 926 2028 982 2028 c 2,90,-1
 1190 2028 l 2,91,92
 1241 2028 1241 2028 1279.5 1997.5 c 128,-1,93
 1318 1967 1318 1967 1318 1917 c 2,94,-1
 1318 1536 l 2,95,96
 1318 1497 1318 1497 1312 1475 c 0,97,98
 1307 1453 1307 1453 1286 1433 c 0,99,100
 1262 1413 1262 1413 1238 1408 c 0,101,102
 1211 1401 1211 1401 1174 1401 c 2,103,-1
 979 1401 l 2,104,105
 953 1401 953 1401 924 1406 c 0,106,107
 892 1408 892 1408 876 1433 c 0,108,109
 860 1455 860 1455 857 1477 c 0,110,111
 852 1500 852 1500 852 1536 c 2,112,-1
 852 1907 l 2,113,114
 852 1932 852 1932 862 1956 c 0,115,116
 873 1981 873 1981 886 1994 c 0,88,89
EndSplineSet
Validated: 1
EndChar

StartChar: e
Encoding: 101 101 64
Width: 1331
Flags: W
LayerCount: 2
Fore
SplineSet
125 2011 m 0,0,1
 149 2030 149 2030 178 2038 c 0,2,3
 205 2043 205 2043 253 2043 c 2,4,-1
 1120 2043 l 2,5,6
 1176 2043 1176 2043 1217 2018 c 0,7,8
 1254 1991 1254 1991 1254 1944 c 0,9,10
 1254 1893 1254 1893 1217 1871 c 0,11,12
 1180 1846 1180 1846 1120 1846 c 2,13,-1
 506 1846 l 2,14,15
 450 1846 450 1846 410 1831 c 0,16,17
 394 1826 394 1826 367 1809 c 0,18,19
 338 1789 338 1789 325 1760 c 0,20,21
 309 1731 309 1731 309 1701 c 2,22,-1
 309 1310 l 2,23,24
 309 1271 309 1271 314 1241 c 0,25,26
 320 1209 320 1209 342.5 1182 c 128,-1,27
 365 1155 365 1155 410 1146 c 0,28,29
 455 1133 455 1133 519 1133 c 2,30,-1
 1102 1133 l 2,31,32
 1166 1133 1166 1133 1211 1111 c 128,-1,33
 1256 1089 1256 1089 1256 1032 c 0,34,35
 1256 976 1256 976 1206 951 c 0,36,37
 1171 934 1171 934 1100 934 c 2,38,-1
 716 934 l 2,39,40
 682 934 682 934 653 927 c 0,41,42
 620 919 620 919 597 897 c 0,43,44
 551 855 551 855 551 784 c 2,45,-1
 551 341 l 2,46,47
 551 278 551 278 583 238 c 0,48,49
 607 211 607 211 644 202 c 1,50,51
 678 189 678 189 729 189 c 2,52,-1
 1120 189 l 2,53,54
 1176 189 1176 189 1217 167 c 0,55,56
 1256 145 1256 145 1256 91 c 0,57,58
 1256 40 1256 40 1217 20 c 0,59,60
 1176 0 1176 0 1120 0 c 2,61,-1
 320 0 l 2,62,63
 234 0 234 0 197 5 c 0,64,65
 160 7 160 7 131 32 c 0,66,67
 101 54 101 54 96 81 c 0,68,69
 88 106 88 106 88 148 c 2,70,-1
 88 1900 l 2,71,72
 88 1942 88 1942 96 1967 c 0,73,74
 101 1991 101 1991 125 2011 c 0,0,1
EndSplineSet
Validated: 1
EndChar

StartChar: r
Encoding: 114 114 65
Width: 1703
Flags: W
LayerCount: 2
Fore
SplineSet
155 2025 m 0,0,1
 170 2038 170 2038 197 2043 c 128,-1,2
 224 2048 224 2048 253 2048 c 2,3,-1
 1227 2048 l 2,4,5
 1256 2048 1256 2048 1286 2048 c 0,6,7
 1315 2045 1315 2045 1347 2023 c 1,8,9
 1376 1998 1376 1998 1376 1932 c 2,10,-1
 1376 1305 l 2,11,12
 1376 1263 1376 1263 1382 1244 c 1,13,14
 1384 1224 1384 1224 1403 1195 c 0,15,16
 1421 1162 1421 1162 1504 1143 c 0,17,18
 1584 1121 1584 1121 1600 1103.5 c 128,-1,19
 1616 1086 1616 1086 1621 1065 c 0,20,21
 1627 1042 1627 1042 1627 1013 c 2,22,-1
 1627 123 l 2,23,24
 1627 79 1627 79 1624 61 c 0,25,26
 1618 44 1618 44 1600 29 c 0,27,28
 1579 15 1579 15 1560 10 c 0,29,30
 1542 2 1542 2 1501 2 c 2,31,-1
 1280 2 l 2,32,33
 1230 2 1230 2 1185 32 c 0,34,35
 1169 44 1169 44 1163 79 c 0,36,37
 1156 110 1156 110 1156 150 c 2,38,-1
 1156 782 l 2,39,40
 1156 826 1156 826 1153 846 c 0,41,42
 1147 863 1147 863 1126 892 c 0,43,44
 1091 942 1091 942 1014 942 c 2,45,-1
 748 942 l 2,46,47
 692 942 692 942 668 939 c 0,48,49
 641 934 641 934 615 912 c 0,50,51
 570 873 570 873 570 796 c 2,52,-1
 570 148 l 2,53,54
 570 128 570 128 570 118 c 0,55,56
 570 76 570 76 567 69 c 0,57,58
 554 52 554 52 549 44 c 0,59,60
 508 0 508 0 439 0 c 2,61,-1
 266 0 l 2,62,63
 213 0 213 0 175 12 c 0,64,65
 138 22 138 22 117 56 c 0,66,67
 107 76 107 76 107 110 c 0,68,69
 107 133 107 133 107 148 c 2,70,-1
 107 1932 l 2,71,72
 107 1996 107 1996 155 2025 c 0,0,1
503 1856 m 2,73,74
 469 1856 469 1856 439 1856 c 0,75,76
 407 1853 407 1853 376 1831 c 0,77,78
 314 1792 314 1792 314 1723 c 2,79,-1
 314 1288 l 2,80,81
 314 1214 314 1214 357 1177 c 0,82,83
 386 1153 386 1153 423 1143 c 0,84,85
 461 1131 461 1131 508 1131 c 2,86,-1
 955 1131 l 2,87,88
 1017 1131 1017 1131 1052 1141 c 0,89,90
 1083 1150 1083 1150 1115 1182 c 0,91,92
 1156 1229 1156 1229 1156 1305 c 2,93,-1
 1156 1713 l 2,94,95
 1156 1760 1156 1760 1144 1789 c 0,96,97
 1131 1816 1131 1816 1094 1836 c 0,98,99
 1065 1856 1065 1856 1017 1856 c 0,100,101
 998 1856 998 1856 988 1856 c 2,102,-1
 503 1856 l 2,73,74
EndSplineSet
Validated: 1
EndChar

StartChar: t
Encoding: 116 116 66
Width: 1605
Flags: W
LayerCount: 2
Fore
SplineSet
66 1929 m 0,0,1
 66 1976 66 1976 109 2006 c 0,2,3
 149 2033 149 2033 205 2033 c 2,4,-1
 1419 2033 l 2,5,6
 1467 2033 1467 2033 1504 2006 c 0,7,8
 1542 1979 1542 1979 1542 1937 c 256,9,10
 1542 1895 1542 1895 1506 1863 c 0,11,12
 1472 1831 1472 1831 1427 1831 c 2,13,-1
 1185 1831 l 2,14,15
 1144 1831 1144 1831 1134 1828 c 0,16,17
 1115 1824 1115 1824 1089 1804 c 0,18,19
 1049 1772 1049 1772 1049 1708 c 2,20,-1
 1049 108 l 2,21,22
 1049 67 1049 67 1038 40 c 0,23,24
 1025 10 1025 10 998 -2 c 0,25,26
 969 -15 969 -15 918 -15 c 2,27,-1
 719 -15 l 2,28,29
 673 -15 673 -15 655 -10 c 0,30,31
 634 -7 634 -7 615 15 c 0,32,33
 593 37 593 37 591 61 c 0,34,35
 586 86 586 86 586 110 c 2,36,-1
 586 1689 l 2,37,38
 586 1760 586 1760 549 1797 c 0,39,40
 527 1816 527 1816 495 1826 c 0,41,42
 463 1834 463 1834 420 1834 c 2,43,-1
 200 1834 l 2,44,45
 146 1834 146 1834 107 1861 c 0,46,47
 66 1886 66 1886 66 1929 c 0,0,1
EndSplineSet
Validated: 1
EndChar

StartChar: y
Encoding: 121 121 67
Width: 1421
Flags: W
LayerCount: 2
Fore
SplineSet
104 1285 m 2,0,-1
 104 1927 l 2,1,2
 104 2008 104 2008 184 2021 c 0,3,4
 192 2023 192 2023 200 2023 c 0,5,6
 237 2023 237 2023 264 1998 c 0,7,8
 298 1969 298 1969 298 1927 c 2,9,-1
 298 1404 l 2,10,11
 298 1347 298 1347 306 1312 c 0,12,13
 311 1276 311 1276 320 1258 c 0,14,15
 325 1241 325 1241 349 1224 c 2,16,-1
 586 1052 l 2,17,18
 623 1027 623 1027 655 1015 c 0,19,20
 687 1000 687 1000 727 1000 c 0,21,22
 764 1000 764 1000 794 1013 c 0,23,24
 823 1023 823 1023 857 1047 c 2,25,-1
 1059 1189 l 2,26,27
 1086 1209 1086 1209 1105 1229 c 0,28,29
 1120 1246 1120 1246 1131 1271 c 128,-1,30
 1142 1296 1142 1296 1144 1320 c 0,31,32
 1147 1345 1147 1345 1147 1381 c 2,33,-1
 1147 1932 l 2,34,35
 1147 1971 1147 1971 1176 2003 c 0,36,37
 1203 2033 1203 2033 1248 2033 c 0,38,39
 1294 2033 1294 2033 1323 2006 c 0,40,41
 1350 1976 1350 1976 1350 1935 c 2,42,-1
 1350 1263 l 2,43,44
 1350 1212 1350 1212 1328 1170 c 0,45,46
 1307 1128 1307 1128 1256 1092 c 2,47,-1
 1086 978 l 2,48,49
 1070 969 1070 969 1057 956 c 0,50,51
 1041 942 1041 942 1020 917 c 0,52,53
 985 873 985 873 969 831 c 0,54,55
 950 789 950 789 950 735 c 2,56,-1
 950 123 l 2,57,58
 950 40 950 40 918 12 c 0,59,60
 884 -15 884 -15 817 -15 c 2,61,-1
 649 -15 l 2,62,63
 586 -15 586 -15 562 -10 c 0,64,65
 535 -5 535 -5 522 15 c 0,66,67
 506 34 506 34 500 61 c 0,68,69
 495 88 495 88 495 110 c 2,70,-1
 495 735 l 2,71,72
 495 792 495 792 493 821 c 1,73,74
 487 848 487 848 466 882 c 0,75,76
 432 944 432 944 367 985 c 2,77,-1
 211 1094 l 2,78,79
 175 1119 175 1119 155 1141 c 0,80,81
 133 1162 133 1162 122 1182 c 0,82,83
 109 1200 109 1200 107 1224 c 0,84,85
 104 1246 104 1246 104 1285 c 2,0,-1
EndSplineSet
Validated: 1
EndChar

StartChar: u
Encoding: 117 117 68
Width: 1424
Flags: W
LayerCount: 2
Fore
SplineSet
112 118 m 2,0,-1
 112 1920 l 2,1,2
 112 1971 112 1971 136 2005.5 c 128,-1,3
 160 2040 160 2040 213 2040 c 0,4,5
 261 2040 261 2040 285 2006 c 0,6,7
 309 1969 309 1969 309 1917 c 2,8,-1
 309 356 l 2,9,10
 309 298 309 298 314 271 c 0,11,12
 317 241 317 241 335 224 c 0,13,14
 383 179 383 179 450 179 c 2,15,-1
 716 179 l 2,16,17
 740 179 740 179 748 179 c 0,18,19
 780 179 780 179 791 182 c 0,20,21
 809 187 809 187 833 202 c 0,22,23
 868 224 868 224 881 253 c 0,24,25
 892 283 892 283 892 332 c 2,26,-1
 892 1863 l 2,27,28
 892 1893 892 1893 892 1907 c 0,29,30
 892 1949 892 1949 898.5 1973.5 c 128,-1,31
 905 1998 905 1998 929 2015.5 c 128,-1,32
 953 2033 953 2033 987.5 2038 c 128,-1,33
 1022 2043 1022 2043 1033 2043 c 2,34,-1
 1230 2043 l 2,35,36
 1270 2043 1270 2043 1302 2018 c 0,37,38
 1334 1994 1334 1994 1344 1959 c 0,39,40
 1352 1925 1352 1925 1352 1873 c 2,41,-1
 1352 170 l 2,42,43
 1352 143 1352 143 1352 130 c 0,44,45
 1352 88 1352 88 1350 71 c 0,46,47
 1344 54 1344 54 1326 34 c 0,48,49
 1291 0 1291 0 1222 0 c 2,50,-1
 304 0 l 2,51,52
 261 -2 261 -2 240 -2 c 0,53,54
 213 -2 213 -2 192 2 c 0,55,56
 170 7 170 7 151 25 c 0,57,58
 112 59 112 59 112 118 c 2,0,-1
EndSplineSet
Validated: 1
EndChar

StartChar: i
Encoding: 105 105 69
Width: 639
Flags: W
LayerCount: 2
Fore
SplineSet
349 1108 m 2,0,-1
 349 1917 l 2,1,2
 349 1959 349 1959 378 1991 c 128,-1,3
 407 2023 407 2023 452 2023 c 0,4,5
 498 2023 498 2023 527 1991 c 128,-1,6
 556 1959 556 1959 556 1917 c 2,7,-1
 556 94 l 2,8,9
 556 67 556 67 551 47 c 128,-1,10
 546 27 546 27 527 15 c 0,11,12
 506 0 506 0 455 0 c 0,13,14
 423 0 423 0 407 0 c 2,15,-1
 197 0 l 2,16,17
 131 0 131 0 107 27 c 0,18,19
 93 40 93 40 90 56 c 0,20,21
 88 74 88 74 88 98 c 0,22,23
 88 116 88 116 88 125 c 2,24,-1
 88 821 l 2,25,26
 88 861 88 861 90 870 c 0,27,28
 96 892 96 892 117 912 c 0,29,30
 136 931 136 931 170 942 c 0,31,32
 269 969 269 969 293 983 c 0,33,34
 349 1018 349 1018 349 1108 c 2,0,-1
EndSplineSet
Validated: 1
EndChar

StartChar: o
Encoding: 111 111 70
Width: 1605
Flags: W
LayerCount: 2
Fore
SplineSet
122 2013 m 0,0,1
 146 2035 146 2035 189 2043 c 0,2,3
 231 2048 231 2048 304 2048 c 2,4,-1
 1352 2048 l 2,5,6
 1392 2048 1392 2048 1421 2043 c 0,7,8
 1451 2038 1451 2038 1469 2023 c 0,9,10
 1512 1991 1512 1991 1512 1925 c 2,11,-1
 1512 137 l 2,12,13
 1512 71 1512 71 1475 34 c 0,14,15
 1451 12 1451 12 1419 7 c 0,16,17
 1387 0 1387 0 1339 0 c 2,18,-1
 279 -2 l 2,19,20
 248 -2 248 -2 231 -2 c 0,21,22
 187 -2 187 -2 165 5 c 0,23,24
 141 10 141 10 120 32 c 0,25,26
 96 54 96 54 90 83 c 0,27,28
 83 113 83 113 83 157 c 2,29,-1
 83 1920 l 2,30,31
 83 1969 83 1969 122 2013 c 0,0,1
482 1851 m 2,32,33
 432 1851 432 1851 399 1844 c 0,34,35
 365 1834 365 1834 338 1809 c 0,36,37
 290 1765 290 1765 290 1684 c 2,38,-1
 290 386 l 2,39,40
 290 322 290 322 304 285 c 0,41,42
 317 246 317 246 359 214 c 0,43,44
 389 194 389 194 426 187 c 0,45,46
 461 179 461 179 503 179 c 2,47,-1
 849 179 l 2,48,49
 899 179 899 179 945 194 c 0,50,51
 988 209 988 209 1006 236 c 0,52,53
 1022 260 1022 260 1027 290 c 0,54,55
 1030 317 1030 317 1030 364 c 2,56,-1
 1030 1035 l 2,57,58
 1030 1065 1030 1065 1035 1084 c 0,59,60
 1038 1104 1038 1104 1065 1138 c 0,61,62
 1091 1170 1091 1170 1161 1182 c 0,63,64
 1227 1192 1227 1192 1262 1199.5 c 128,-1,65
 1297 1207 1297 1207 1302 1231 c 0,66,67
 1304 1256 1304 1256 1304 1276 c 0,68,69
 1304 1305 1304 1305 1304 1320 c 2,70,-1
 1304 1733 l 2,71,72
 1304 1752 1304 1752 1294 1774 c 0,73,74
 1280 1797 1280 1797 1262 1814 c 0,75,76
 1217 1851 1217 1851 1134 1851 c 2,77,-1
 482 1851 l 2,32,33
EndSplineSet
Validated: 1
EndChar

StartChar: p
Encoding: 112 112 71
Width: 1533
Flags: W
LayerCount: 2
Fore
SplineSet
133 2011 m 0,0,1
 157 2030 157 2030 189 2038 c 0,2,3
 221 2043 221 2043 272 2043 c 2,4,-1
 1294 2043 l 2,5,6
 1376 2043 1376 2043 1419 2003 c 0,7,8
 1459 1964 1459 1964 1459 1902 c 2,9,-1
 1459 1113 l 2,10,11
 1459 1074 1459 1074 1456 1042 c 0,12,13
 1451 1008 1451 1008 1414 973 c 0,14,15
 1389 949 1389 949 1352 944 c 0,16,17
 1315 937 1315 937 1248 937 c 2,18,-1
 748 937 l 2,19,20
 682 937 682 937 655 931 c 0,21,22
 626 927 626 927 599 904 c 0,23,24
 570 880 570 880 562 855 c 0,25,26
 554 828 554 828 554 789 c 2,27,-1
 554 113 l 2,28,29
 554 76 554 76 549 56 c 0,30,31
 540 34 540 34 519 17 c 0,32,33
 495 0 495 0 450 0 c 0,34,35
 420 0 420 0 405 0 c 2,36,-1
 221 0 l 2,37,38
 192 -2 192 -2 175 -2 c 0,39,40
 160 -2 160 -2 146 2 c 0,41,42
 131 7 131 7 114 25 c 0,43,44
 88 54 88 54 88 121 c 2,45,-1
 88 1900 l 2,46,47
 88 1971 88 1971 133 2011 c 0,0,1
482 1841 m 2,48,49
 405 1841 405 1841 362 1812 c 0,50,51
 304 1770 304 1770 304 1686 c 2,52,-1
 304 1285 l 2,53,54
 304 1241 304 1241 314 1212 c 0,55,56
 322 1182 322 1182 346 1160 c 0,57,58
 370 1135 370 1135 407 1128 c 0,59,60
 445 1121 445 1121 484 1121 c 2,61,-1
 1065 1121 l 2,62,63
 1161 1121 1161 1121 1203 1170 c 0,64,65
 1243 1217 1243 1217 1243 1266 c 2,66,-1
 1243 1708 l 2,67,68
 1243 1780 1243 1780 1190 1816 c 0,69,70
 1163 1836 1163 1836 1137 1841 c 0,71,72
 1107 1844 1107 1844 1046 1844 c 2,73,-1
 482 1841 l 2,48,49
EndSplineSet
Validated: 1
EndChar

StartChar: a
Encoding: 97 97 72
Width: 1608
Flags: W
LayerCount: 2
Fore
SplineSet
378 2006 m 0,0,1
 402 2028 402 2028 434 2035 c 0,2,3
 466 2043 466 2043 503 2043 c 2,4,-1
 1360 2043 l 2,5,6
 1400 2043 1400 2043 1440 2043 c 1,7,8
 1477 2038 1477 2038 1515 2011 c 1,9,10
 1552 1976 1552 1976 1552 1920 c 2,11,-1
 1552 110 l 2,12,13
 1552 74 1552 74 1536 47 c 0,14,15
 1509 2 1509 2 1448 2 c 256,16,17
 1387 2 1387 2 1363 40 c 0,18,19
 1336 76 1336 76 1336 113 c 2,20,-1
 1336 774 l 2,21,22
 1336 819 1336 819 1328 850 c 0,23,24
 1318 880 1318 880 1288 907 c 0,25,26
 1248 944 1248 944 1163 944 c 2,27,-1
 732 944 l 2,28,29
 708 944 708 944 677.5 941.5 c 128,-1,30
 647 939 647 939 620 922 c 0,31,32
 591 904 591 904 573 873 c 0,33,34
 551 841 551 841 551 811 c 2,35,-1
 551 128 l 2,36,37
 551 47 551 47 493 20 c 0,38,39
 450 0 450 0 357 0 c 0,40,41
 322 0 322 0 304 0 c 0,42,43
 282 0 282 0 264 0 c 0,44,45
 242 0 242 0 224 -2 c 0,46,47
 157 -2 157 -2 128 20 c 0,48,49
 88 49 88 49 88 130 c 2,50,-1
 88 848 l 2,51,52
 88 882 88 882 96 900 c 0,53,54
 101 917 101 917 117 937 c 0,55,56
 122 942 122 942 248 993 c 0,57,58
 341 1030 341 1030 341 1121 c 2,59,-1
 341 1890 l 2,60,61
 341 1932 341 1932 349 1956 c 0,62,63
 354 1981 354 1981 378 2006 c 0,0,1
711 1871 m 2,64,65
 678 1871 678 1871 649 1871 c 0,66,67
 620 1868 620 1868 591 1848 c 0,68,69
 535 1814 535 1814 535 1738 c 2,70,-1
 535 1305 l 2,71,72
 535 1271 535 1271 537 1239 c 0,73,74
 537 1207 537 1207 567 1185 c 1,75,76
 593 1160 593 1160 628 1155 c 0,77,78
 660 1148 660 1148 716 1148 c 2,79,-1
 1163 1148 l 2,80,81
 1219 1148 1219 1148 1262 1160 c 0,82,83
 1302 1170 1302 1170 1321 1197 c 0,84,85
 1336 1224 1336 1224 1341 1251 c 0,86,87
 1344 1278 1344 1278 1344 1323 c 2,88,-1
 1344 1731 l 2,89,90
 1344 1774 1344 1774 1341 1799 c 0,91,92
 1336 1821 1336 1821 1312 1846 c 128,-1,93
 1288 1871 1288 1871 1230 1871 c 0,94,95
 1209 1871 1209 1871 1195 1871 c 2,96,-1
 711 1871 l 2,64,65
EndSplineSet
Validated: 1
EndChar

StartChar: s
Encoding: 115 115 73
Width: 1416
Flags: W
LayerCount: 2
Fore
SplineSet
120 2006 m 0,0,1
 138 2025 138 2025 173 2035 c 0,2,3
 207 2043 207 2043 250 2043 c 2,4,-1
 1174 2043 l 2,5,6
 1222 2043 1222 2043 1243 2040 c 0,7,8
 1265 2035 1265 2035 1288 2018 c 0,9,10
 1334 1986 1334 1986 1334 1927 c 2,11,-1
 1334 1536 l 2,12,13
 1334 1487 1334 1487 1307 1452.5 c 128,-1,14
 1280 1418 1280 1418 1232 1418 c 0,15,16
 1180 1418 1180 1418 1150 1453 c 0,17,18
 1118 1485 1118 1485 1118 1536 c 2,19,-1
 1118 1711 l 2,20,21
 1118 1750 1118 1750 1115 1770 c 0,22,23
 1110 1787 1110 1787 1091 1812 c 0,24,25
 1073 1834 1073 1834 1046 1841 c 0,26,27
 1020 1848 1020 1848 979 1848 c 2,28,-1
 484 1848 l 2,29,30
 455 1848 455 1848 432 1848 c 0,31,32
 405 1846 405 1846 376 1828 c 0,33,34
 304 1782 304 1782 304 1706 c 2,35,-1
 304 1308 l 2,36,37
 304 1244 304 1244 341 1195 c 0,38,39
 370 1160 370 1160 391 1146 c 0,40,41
 413 1131 413 1131 450 1131 c 2,42,-1
 1150 1131 l 2,43,44
 1217 1131 1217 1131 1248 1128 c 0,45,46
 1278 1123 1278 1123 1307 1099 c 0,47,48
 1334 1072 1334 1072 1334 1027 c 2,49,-1
 1334 145 l 2,50,51
 1334 125 1334 125 1334 116 c 0,52,53
 1334 88 1334 88 1331 71 c 128,-1,54
 1328 54 1328 54 1309.5 32 c 128,-1,55
 1291 10 1291 10 1262 5 c 0,56,57
 1230 -2 1230 -2 1176 -2 c 2,58,-1
 221 -2 l 2,59,60
 192 -2 192 -2 168 2 c 0,61,62
 141 7 141 7 117 32 c 0,63,64
 107 44 107 44 104 69 c 0,65,66
 101 91 101 91 101 123 c 2,67,-1
 101 533 l 2,68,69
 101 585 101 585 133 617 c 0,70,71
 162 646 162 646 242 646 c 2,72,-1
 426 646 l 2,73,74
 474 646 474 646 511 615 c 0,75,76
 549 583 549 583 549 521 c 2,77,-1
 549 344 l 2,78,79
 549 278 549 278 578 236 c 0,80,81
 617 179 617 179 700 179 c 2,82,-1
 955 182 l 2,83,84
 1033 182 1033 182 1081 219 c 0,85,86
 1129 253 1129 253 1129 314 c 2,87,-1
 1129 774 l 2,88,89
 1129 823 1129 823 1124 853 c 1,90,91
 1115 880 1115 880 1091 902 c 128,-1,92
 1067 924 1067 924 1033 931 c 0,93,94
 998 939 998 939 955 939 c 2,95,-1
 274 939 l 2,96,97
 207 939 207 939 181 944 c 0,98,99
 155 946 155 946 128 966 c 0,100,101
 101 983 101 983 96 1015 c 0,102,103
 88 1045 88 1045 88 1092 c 2,104,-1
 88 1907 l 2,105,106
 88 1929 88 1929 93 1954 c 0,107,108
 96 1979 96 1979 120 2006 c 0,0,1
EndSplineSet
Validated: 1
EndChar

StartChar: d
Encoding: 100 100 74
Width: 1600
Flags: W
LayerCount: 2
Fore
SplineSet
136 2006 m 0,0,1
 165 2030 165 2030 202 2038 c 0,2,3
 237 2043 237 2043 301 2043 c 2,4,-1
 988 2043 l 2,5,6
 1124 2043 1124 2043 1223.5 2013 c 128,-1,7
 1323 1983 1323 1983 1397 1905 c 0,8,9
 1469 1826 1469 1826 1499 1745 c 0,10,11
 1528 1662 1528 1662 1528 1548 c 2,12,-1
 1528 511 l 2,13,14
 1528 403 1528 403 1512 334 c 0,15,16
 1486 221 1486 221 1416 148 c 0,17,18
 1344 71 1344 71 1241 34 c 0,19,20
 1137 -5 1137 -5 1038 -5 c 2,21,-1
 242 -5 l 2,22,23
 197 -5 197 -5 168 5 c 0,24,25
 136 15 136 15 112 47 c 0,26,27
 99 64 99 64 96 98 c 0,28,29
 90 133 90 133 90 155 c 2,30,-1
 90 1871 l 2,31,32
 90 1920 90 1920 101 1952 c 0,33,34
 109 1981 109 1981 136 2006 c 0,0,1
1227 1770 m 0,35,36
 1195 1809 1195 1809 1142 1826 c 0,37,38
 1089 1841 1089 1841 1014 1841 c 2,39,-1
 753 1841 l 2,40,41
 711 1841 711 1841 687 1836 c 0,42,43
 660 1828 660 1828 631 1809 c 0,44,45
 562 1760 562 1760 562 1671 c 2,46,-1
 562 364 l 2,47,48
 562 322 562 322 573 295 c 0,49,50
 580 268 580 268 607 238 c 0,51,52
 655 187 655 187 748 187 c 2,53,-1
 1033 187 l 2,54,55
 1097 187 1097 187 1153 209 c 0,56,57
 1206 231 1206 231 1238 265 c 0,58,59
 1310 352 1310 352 1310 475 c 2,60,-1
 1310 1585 l 2,61,62
 1310 1639 1310 1639 1288 1684 c 0,63,64
 1267 1725 1267 1725 1227 1770 c 0,35,36
EndSplineSet
Validated: 1
EndChar

StartChar: f
Encoding: 102 102 75
Width: 1328
Flags: W
LayerCount: 2
Fore
SplineSet
131 2018 m 0,0,1
 149 2033 149 2033 183.5 2038 c 128,-1,2
 218 2043 218 2043 229 2043 c 2,3,-1
 1147 2043 l 2,4,5
 1195 2043 1195 2043 1227 2013 c 128,-1,6
 1259 1983 1259 1983 1259 1942 c 0,7,8
 1259 1900 1259 1900 1227 1870.5 c 128,-1,9
 1195 1841 1195 1841 1147 1841 c 2,10,-1
 753 1841 l 2,11,12
 703 1841 703 1841 678 1839 c 0,13,14
 653 1834 653 1834 623 1814 c 0,15,16
 551 1767 551 1767 551 1696 c 2,17,-1
 551 1310 l 2,18,19
 551 1258 551 1258 556 1236 c 0,20,21
 559 1212 559 1212 583 1187 c 0,22,23
 634 1133 634 1133 732 1133 c 2,24,-1
 1089 1133 l 2,25,26
 1153 1133 1153 1133 1198 1111 c 128,-1,27
 1243 1089 1243 1089 1243 1035 c 0,28,29
 1243 983 1243 983 1200 958 c 0,30,31
 1156 934 1156 934 1091 934 c 2,32,-1
 721 934 l 2,33,34
 678 934 678 934 649 927 c 0,35,36
 617 917 617 917 591 892 c 0,37,38
 546 850 546 850 546 784 c 2,39,-1
 546 88 l 2,40,41
 546 47 546 47 514 17 c 0,42,43
 482 -12 482 -12 439 -12 c 256,44,45
 396 -12 396 -12 365 17 c 1,46,47
 330 44 330 44 330 83 c 2,48,-1
 330 931 l 2,49,50
 330 956 330 956 330 983 c 0,51,52
 328 1010 328 1010 311 1035 c 0,53,54
 287 1077 287 1077 207 1101 c 0,55,56
 125 1123 125 1123 109 1148 c 0,57,58
 90 1173 90 1173 87.5 1202 c 128,-1,59
 85 1231 85 1231 85 1234 c 2,60,-1
 85 1920 l 2,61,62
 85 1986 85 1986 131 2018 c 0,0,1
EndSplineSet
Validated: 1
EndChar

StartChar: g
Encoding: 103 103 76
Width: 1653
Flags: W
LayerCount: 2
Fore
SplineSet
144 1981 m 0,0,1
 160 2001 160 2001 192 2013 c 128,-1,2
 224 2025 224 2025 287 2025 c 0,3,4
 328 2025 328 2025 349 2025 c 2,5,-1
 1355 2025 l 2,6,7
 1392 2025 1392 2025 1430 2025 c 1,8,9
 1464 2021 1464 2021 1493 2001 c 0,10,11
 1542 1967 1542 1967 1542 1895 c 2,12,-1
 1542 1593 l 2,13,14
 1542 1573 1542 1573 1542 1563 c 0,15,16
 1542 1521 1542 1521 1538 1514 c 0,17,18
 1536 1509 1536 1509 1520 1492 c 0,19,20
 1504 1473 1504 1473 1469 1467 c 0,21,22
 1432 1460 1432 1460 1421 1460 c 2,23,-1
 1224 1460 l 2,24,25
 1169 1460 1169 1460 1142 1485 c 0,26,27
 1129 1494 1129 1494 1126 1521 c 0,28,29
 1120 1548 1120 1548 1120 1593 c 2,30,-1
 1120 1693 l 2,31,32
 1120 1720 1120 1720 1118 1745 c 0,33,34
 1113 1767 1113 1767 1091 1792 c 0,35,36
 1067 1814 1067 1814 1038 1821 c 0,37,38
 1006 1828 1006 1828 972 1828 c 2,39,-1
 724 1828 l 2,40,41
 666 1828 666 1828 617 1792 c 1,42,43
 591 1767 591 1767 583 1740 c 0,44,45
 573 1713 573 1713 573 1669 c 2,46,-1
 573 364 l 2,47,48
 573 341 573 341 573 332 c 0,49,50
 573 292 573 292 575 280 c 0,51,52
 578 263 578 263 593 238 c 0,53,54
 607 214 607 214 648.5 199 c 128,-1,55
 690 184 690 184 732 184 c 2,56,-1
 1156 184 l 2,57,58
 1224 184 1224 184 1254 191 c 0,59,60
 1280 199 1280 199 1307 221 c 0,61,62
 1358 265 1358 265 1358 347 c 2,63,-1
 1358 779 l 2,64,65
 1358 836 1358 836 1323 877 c 0,66,67
 1278 929 1278 929 1193 929 c 2,68,-1
 1059 929 l 2,69,70
 1011 929 1011 929 974 958 c 0,71,72
 935 985 935 985 935 1027 c 256,73,74
 935 1069 935 1069 974 1096 c 0,75,76
 1014 1123 1014 1123 1062 1123 c 2,77,-1
 1443 1123 l 2,78,79
 1509 1123 1509 1123 1547 1089 c 0,80,81
 1565 1069 1565 1069 1571 1040 c 0,82,83
 1576 1008 1576 1008 1576 973 c 2,84,-1
 1576 177 l 2,85,86
 1576 148 1576 148 1576 135 c 0,87,88
 1576 96 1576 96 1571 74 c 0,89,90
 1562 52 1562 52 1535.5 27 c 128,-1,91
 1509 2 1509 2 1475 -5 c 0,92,93
 1440 -15 1440 -15 1389 -15 c 2,94,-1
 328 -15 l 2,95,96
 290 -15 290 -15 272 -15 c 0,97,98
 218 -15 218 -15 192 -7 c 0,99,100
 162 -2 162 -2 141 22 c 0,101,102
 117 47 117 47 112 69 c 0,103,104
 104 88 104 88 104 125 c 0,105,106
 104 152 104 152 104 167 c 2,107,-1
 104 1861 l 2,108,109
 104 1898 104 1898 112 1927 c 0,110,111
 120 1954 120 1954 144 1981 c 0,0,1
EndSplineSet
Validated: 1
EndChar

StartChar: h
Encoding: 104 104 77
Width: 1651
Flags: W
LayerCount: 2
Fore
SplineSet
192 2033 m 0,0,1
 237 2033 237 2033 269 2006 c 1,2,3
 298 1976 298 1976 298 1937 c 2,4,-1
 298 1234 l 2,5,6
 298 1192 298 1192 325 1162 c 0,7,8
 370 1119 370 1119 437 1119 c 2,9,-1
 935 1119 l 2,10,11
 982 1119 982 1119 1011 1126 c 0,12,13
 1038 1131 1038 1131 1067 1153 c 0,14,15
 1107 1182 1107 1182 1107 1239 c 2,16,-1
 1107 1917 l 2,17,18
 1107 1962 1107 1962 1139 1993.5 c 128,-1,19
 1171 2025 1171 2025 1219 2025 c 256,20,21
 1267 2025 1267 2025 1299 1990.5 c 128,-1,22
 1331 1956 1331 1956 1331 1910 c 2,23,-1
 1331 1273 l 2,24,25
 1331 1229 1331 1229 1340.5 1197 c 128,-1,26
 1350 1165 1350 1165 1373.5 1145.5 c 128,-1,27
 1397 1126 1397 1126 1459 1111 c 0,28,29
 1518 1096 1518 1096 1544 1065 c 0,30,31
 1571 1030 1571 1030 1571 976 c 2,32,-1
 1571 113 l 2,33,34
 1571 71 1571 71 1568 52 c 0,35,36
 1562 32 1562 32 1536 15 c 0,37,38
 1523 5 1523 5 1496 2 c 0,39,40
 1469 0 1469 0 1443 0 c 2,41,-1
 1230 0 l 2,42,43
 1209 0 1209 0 1180 2 c 0,44,45
 1150 2 1150 2 1131 25 c 1,46,47
 1110 44 1110 44 1110 94 c 0,48,49
 1110 110 1110 110 1110 121 c 2,50,-1
 1110 774 l 2,51,52
 1110 809 1110 809 1107 831 c 0,53,54
 1102 850 1102 850 1086 873 c 0,55,56
 1052 922 1052 922 982 922 c 2,57,-1
 711 922 l 2,58,59
 676 922 676 922 644 922 c 0,60,61
 610 919 610 919 583 900 c 0,62,63
 524 861 524 861 524 796 c 2,64,-1
 524 148 l 2,65,66
 524 123 524 123 524 113 c 0,67,68
 524 76 524 76 522 56 c 0,69,70
 517 37 517 37 500 22 c 0,71,72
 484 7 484 7 466 5 c 0,73,74
 445 0 445 0 402 0 c 2,75,-1
 162 0 l 2,76,77
 112 0 112 0 96 17 c 1,78,79
 83 40 83 40 83 83 c 0,80,81
 83 118 83 118 83 135 c 2,82,-1
 83 1937 l 2,83,84
 83 1979 83 1979 114 2006 c 0,85,86
 146 2033 146 2033 192 2033 c 0,0,1
EndSplineSet
Validated: 1
EndChar

StartChar: j
Encoding: 106 106 78
Width: 1664
Flags: W
LayerCount: 2
Fore
SplineSet
1131 322 m 2,0,-1
 1131 1910 l 2,1,2
 1131 1962 1131 1962 1161 2003 c 0,3,4
 1187 2043 1187 2043 1241 2043 c 0,5,6
 1299 2043 1299 2043 1328 2003 c 0,7,8
 1355 1964 1355 1964 1355 1907 c 2,9,-1
 1355 1298 l 2,10,11
 1355 1263 1355 1263 1360 1241 c 0,12,13
 1363 1219 1363 1219 1379 1192 c 0,14,15
 1395 1162 1395 1162 1501 1135 c 0,16,17
 1555 1121 1555 1121 1573 1096 c 0,18,19
 1584 1081 1584 1081 1595 1065 c 1,20,21
 1603 1045 1603 1045 1603 1013 c 2,22,-1
 1603 113 l 2,23,24
 1603 86 1603 86 1600 74 c 0,25,26
 1597 56 1597 56 1579 34 c 0,27,28
 1560 10 1560 10 1528 5 c 0,29,30
 1496 -2 1496 -2 1440 -2 c 2,31,-1
 229 0 l 2,32,33
 173 0 173 0 149 5 c 0,34,35
 125 7 125 7 106.5 31.5 c 128,-1,36
 88 56 88 56 88 101 c 0,37,38
 88 116 88 116 88 125 c 2,39,-1
 88 521 l 2,40,41
 88 597 88 597 99 619 c 0,42,43
 107 642 107 642 133 654 c 0,44,45
 160 664 160 664 202 664 c 2,46,-1
 423 664 l 2,47,48
 495 664 495 664 517 630 c 1,49,50
 543 599 543 599 543 551 c 2,51,-1
 543 312 l 2,52,53
 543 253 543 253 562 229 c 0,54,55
 573 214 573 214 599 202 c 0,56,57
 626 189 626 189 671 189 c 2,58,-1
 953 189 l 2,59,60
 977 189 977 189 990 189 c 0,61,62
 1025 189 1025 189 1038 191 c 0,63,64
 1059 197 1059 197 1081 211 c 0,65,66
 1131 248 1131 248 1131 322 c 2,0,-1
EndSplineSet
Validated: 1
EndChar

StartChar: k
Encoding: 107 107 79
Width: 1672
Flags: W
LayerCount: 2
Fore
SplineSet
101 137 m 2,0,-1
 101 1920 l 2,1,2
 101 1969 101 1969 135.5 2006 c 128,-1,3
 170 2043 170 2043 224 2043 c 0,4,5
 274 2043 274 2043 311 2006 c 0,6,7
 346 1967 346 1967 346 1915 c 2,8,-1
 346 1288 l 2,9,10
 346 1261 346 1261 346 1249 c 0,11,12
 346 1222 346 1222 352 1209 c 0,13,14
 359 1189 359 1189 381 1187 c 0,15,16
 383 1187 383 1187 389 1187 c 0,17,18
 402 1187 402 1187 415 1192 c 0,19,20
 432 1200 432 1200 447 1212 c 2,21,-1
 1278 1944 l 2,22,23
 1318 1979 1318 1979 1347 1998 c 0,24,25
 1389 2028 1389 2028 1424 2033 c 0,26,27
 1456 2035 1456 2035 1482 2035 c 0,28,29
 1565 2035 1565 2035 1589 2018 c 0,30,31
 1610 2001 1610 2001 1610 1981 c 0,32,33
 1610 1967 1610 1967 1608 1959 c 0,34,35
 1603 1947 1603 1947 1581 1927 c 2,36,-1
 794 1231 l 2,37,38
 772 1214 772 1214 756 1195 c 0,39,40
 745 1177 745 1177 743 1168 c 0,41,42
 743 1162 743 1162 745 1160 c 0,43,44
 753 1138 753 1138 796 1138 c 0,45,46
 817 1138 817 1138 828 1138 c 2,47,-1
 1430 1138 l 2,48,49
 1475 1138 1475 1138 1515 1130.5 c 128,-1,50
 1555 1123 1555 1123 1573 1108 c 0,51,52
 1592 1092 1592 1092 1600 1065 c 0,53,54
 1608 1035 1608 1035 1608 998 c 2,55,-1
 1608 113 l 2,56,57
 1608 67 1608 67 1579 34 c 0,58,59
 1547 0 1547 0 1482 0 c 2,60,-1
 1280 -2 l 2,61,62
 1232 -2 1232 -2 1206 1.5 c 128,-1,63
 1180 5 1180 5 1161 24.5 c 128,-1,64
 1142 44 1142 44 1139 67 c 0,65,66
 1134 86 1134 86 1134 130 c 2,67,-1
 1134 799 l 2,68,69
 1134 846 1134 846 1129 868 c 0,70,71
 1120 890 1120 890 1096.5 907 c 128,-1,72
 1073 924 1073 924 1049 929 c 0,73,74
 1022 934 1022 934 993 934 c 2,75,-1
 772 934 l 2,76,77
 711 934 711 934 677.5 930.5 c 128,-1,78
 644 927 644 927 617 907 c 0,79,80
 570 870 570 870 570 792 c 2,81,-1
 570 135 l 2,82,83
 570 83 570 83 549 47 c 1,84,85
 511 0 511 0 439 0 c 2,86,-1
 216 0 l 2,87,88
 133 0 133 0 114 47 c 0,89,90
 107 61 107 61 104 86 c 0,91,92
 101 108 101 108 101 137 c 2,0,-1
EndSplineSet
Validated: 1
EndChar

StartChar: l
Encoding: 108 108 80
Width: 1328
Flags: W
LayerCount: 2
Fore
SplineSet
359 1128 m 2,0,-1
 359 1929 l 2,1,2
 359 1976 359 1976 389 2011 c 0,3,4
 415 2043 415 2043 461 2043 c 0,5,6
 506 2043 506 2043 535 2008 c 0,7,8
 564 1974 564 1974 564 1929 c 2,9,-1
 564 361 l 2,10,11
 564 337 564 337 564 327 c 0,12,13
 564 278 564 278 567 265 c 0,14,15
 570 253 570 253 583 236 c 0,16,17
 607 206 607 206 639 197 c 0,18,19
 668 187 668 187 716 187 c 2,20,-1
 1105 187 l 2,21,22
 1174 187 1174 187 1219 167 c 0,23,24
 1262 148 1262 148 1262 94 c 256,25,26
 1262 40 1262 40 1219 20 c 0,27,28
 1174 0 1174 0 1105 0 c 2,29,-1
 266 0 l 2,30,31
 213 0 213 0 173 12 c 0,32,33
 131 22 131 22 117 47 c 0,34,35
 104 69 104 69 101 91 c 0,36,37
 99 113 99 113 99 145 c 2,38,-1
 99 814 l 2,39,40
 99 865 99 865 104 885 c 0,41,42
 107 902 107 902 122 922 c 0,43,44
 138 942 138 942 213 958 c 0,45,46
 285 976 285 976 311 1003 c 0,47,48
 359 1054 359 1054 359 1128 c 2,0,-1
EndSplineSet
Validated: 1
EndChar

StartChar: z
Encoding: 122 122 81
Width: 1581
Flags: W
LayerCount: 2
Fore
SplineSet
194 1364 m 0,0,1
 144 1364 144 1364 117 1401 c 0,2,3
 90 1435 90 1435 90 1485 c 2,4,-1
 90 1880 l 2,5,6
 90 1925 90 1925 96 1944 c 0,7,8
 99 1962 99 1962 120 1983 c 0,9,10
 138 2003 138 2003 167.5 2010.5 c 128,-1,11
 197 2018 197 2018 226 2018 c 0,12,13
 253 2018 253 2018 266 2018 c 2,14,-1
 1360 2018 l 2,15,16
 1379 2018 1379 2018 1408 2018 c 0,17,18
 1438 2016 1438 2016 1451 1997.5 c 128,-1,19
 1464 1979 1464 1979 1464 1959 c 0,20,21
 1464 1940 1464 1940 1456 1920 c 0,22,23
 1453 1915 1453 1915 1432 1878 c 2,24,-1
 445 241 l 2,25,26
 428 216 428 216 426 206 c 0,27,28
 423 197 423 197 423 189 c 0,29,30
 422 186 422 186 422 183 c 0,31,32
 422 177 422 177 426 172 c 0,33,34
 432 164 432 164 451.5 159.5 c 128,-1,35
 471 155 471 155 511 155 c 2,36,-1
 929 155 l 2,37,38
 955 155 955 155 977 157 c 0,39,40
 996 157 996 157 1009 167 c 128,-1,41
 1022 177 1022 177 1027 197 c 0,42,43
 1033 216 1033 216 1033 241 c 2,44,-1
 1033 551 l 2,45,46
 1033 580 1033 580 1038 599 c 0,47,48
 1041 617 1041 617 1054 632 c 0,49,50
 1081 657 1081 657 1150 657 c 2,51,-1
 1382 657 l 2,52,53
 1419 657 1419 657 1448 651 c 0,54,55
 1475 644 1475 644 1488 632 c 0,56,57
 1501 617 1501 617 1504 597 c 0,58,59
 1506 578 1506 578 1506 548 c 2,60,-1
 1506 123 l 2,61,62
 1506 86 1506 86 1499 61 c 1,63,64
 1488 37 1488 37 1464 17 c 0,65,66
 1440 -2 1440 -2 1419 -7 c 0,67,68
 1397 -15 1397 -15 1355 -15 c 2,69,-1
 255 -17 l 2,70,71
 192 -17 192 -17 165 -12 c 0,72,73
 138 -10 138 -10 112 15 c 0,74,75
 96 27 96 27 96 59 c 0,76,77
 96 83 96 83 109 108 c 2,78,-1
 1070 1723 l 2,79,80
 1083 1747 1083 1747 1091 1767 c 0,81,82
 1100 1785 1100 1785 1100 1797 c 256,83,84
 1100 1809 1100 1809 1091 1816 c 0,85,86
 1078 1828 1078 1828 1027 1828 c 0,87,88
 1009 1828 1009 1828 998 1828 c 2,89,-1
 466 1828 l 2,90,91
 405 1828 405 1828 365 1804 c 0,92,93
 338 1789 338 1789 317 1755 c 0,94,95
 293 1720 293 1720 293 1686 c 2,96,-1
 293 1485 l 2,97,98
 293 1435 293 1435 269 1401 c 0,99,100
 245 1364 245 1364 194 1364 c 0,0,1
EndSplineSet
Validated: 1
EndChar

StartChar: x
Encoding: 120 120 82
Width: 1445
Flags: W
LayerCount: 2
Fore
SplineSet
146 757 m 0,0,1
 173 789 173 789 349 915 c 0,2,3
 476 1005 476 1005 476 1081 c 0,4,5
 476 1165 476 1165 389 1229 c 2,6,-1
 189 1372 l 2,7,8
 144 1408 144 1408 120 1453 c 0,9,10
 107 1485 107 1485 107 1521 c 0,11,12
 107 1551 107 1551 107 1568 c 2,13,-1
 107 1940 l 2,14,15
 107 1979 107 1979 138 2011 c 0,16,17
 168 2040 168 2040 216 2040 c 0,18,19
 261 2040 261 2040 290 2011 c 0,20,21
 317 1979 317 1979 317 1935 c 2,22,-1
 317 1622 l 2,23,24
 317 1600 317 1600 320 1581 c 0,25,26
 320 1561 320 1561 328 1539 c 0,27,28
 346 1500 346 1500 383 1473 c 2,29,-1
 631 1298 l 2,30,31
 682 1266 682 1266 740 1266 c 0,32,33
 796 1266 796 1266 847 1298 c 2,34,-1
 1078 1458 l 2,35,36
 1089 1462 1089 1462 1107 1480 c 0,37,38
 1126 1497 1126 1497 1134 1509 c 0,39,40
 1163 1554 1163 1554 1163 1622 c 2,41,-1
 1163 1940 l 2,42,43
 1163 1979 1163 1979 1195 2008 c 0,44,45
 1224 2035 1224 2035 1267 2035 c 0,46,47
 1307 2035 1307 2035 1339 2010.5 c 128,-1,48
 1371 1986 1371 1986 1371 1952 c 2,49,-1
 1371 1543 l 2,50,51
 1371 1480 1371 1480 1352 1438 c 0,52,53
 1344 1416 1344 1416 1315 1389 c 0,54,55
 1304 1379 1304 1379 1283 1364 c 2,56,-1
 1105 1234 l 2,57,58
 1054 1197 1054 1197 1022 1155 c 0,59,60
 988 1113 988 1113 988 1081 c 0,61,62
 988 1042 988 1042 1006 1008 c 0,63,64
 1022 973 1022 973 1086 929 c 2,65,-1
 1280 787 l 1,66,67
 1326 760 1326 760 1344 723 c 0,68,69
 1360 684 1360 684 1360 632 c 2,70,-1
 1360 81 l 2,71,72
 1360 34 1360 34 1339 7 c 0,73,74
 1318 -22 1318 -22 1265 -22 c 0,75,76
 1211 -22 1211 -22 1182 5 c 0,77,78
 1150 32 1150 32 1150 76 c 2,79,-1
 1150 511 l 2,80,81
 1150 541 1150 541 1150 553 c 0,82,83
 1150 568 1150 568 1150 583 c 1,84,85
 1144 602 1144 602 1142 619 c 0,86,87
 1139 637 1139 637 1124 659 c 0,88,89
 1107 681 1107 681 1086 693 c 2,90,-1
 913 816 l 2,91,92
 886 836 886 836 849 855 c 0,93,94
 794 888 794 888 732 888 c 0,95,96
 690 888 690 888 666 877 c 0,97,98
 639 868 639 868 591 838 c 2,99,-1
 386 700 l 2,100,101
 354 681 354 681 330 644 c 0,102,103
 322 627 322 627 317 602 c 0,104,105
 311 578 311 578 311 533 c 2,106,-1
 311 91 l 2,107,108
 311 49 311 49 282 17 c 128,-1,109
 253 -15 253 -15 205 -15 c 0,110,111
 160 -15 160 -15 131 20 c 1,112,113
 99 52 99 52 99 96 c 2,114,-1
 99 592 l 2,115,116
 99 649 99 649 109 688 c 0,117,118
 117 725 117 725 146 757 c 0,0,1
EndSplineSet
Validated: 1
EndChar

StartChar: c
Encoding: 99 99 83
Width: 1419
Flags: W
LayerCount: 2
Fore
SplineSet
155 2016 m 0,0,1
 170 2025 170 2025 211 2033 c 0,2,3
 248 2040 248 2040 277 2040 c 2,4,-1
 1206 2040 l 2,5,6
 1251 2040 1251 2040 1278 2038 c 0,7,8
 1302 2033 1302 2033 1321 2013 c 0,9,10
 1339 1991 1339 1991 1344 1971 c 0,11,12
 1347 1949 1347 1949 1347 1913 c 2,13,-1
 1347 1536 l 2,14,15
 1347 1485 1347 1485 1344 1460 c 0,16,17
 1339 1433 1339 1433 1315 1413 c 128,-1,18
 1291 1393 1291 1393 1259 1388.5 c 128,-1,19
 1227 1384 1227 1384 1214 1384 c 2,20,-1
 1033 1384 l 2,21,22
 988 1384 988 1384 977 1386 c 0,23,24
 955 1391 955 1391 932 1411 c 0,25,26
 908 1428 908 1428 897 1455 c 0,27,28
 884 1480 884 1480 884 1512 c 2,29,-1
 884 1716 l 2,30,31
 884 1743 884 1743 876 1765 c 0,32,33
 865 1787 865 1787 833 1809 c 0,34,35
 794 1839 794 1839 716 1839 c 2,36,-1
 484 1839 l 2,37,38
 420 1839 420 1839 378 1812 c 0,39,40
 314 1770 314 1770 314 1691 c 2,41,-1
 314 376 l 2,42,43
 314 347 314 347 317 307 c 0,44,45
 317 268 317 268 346 238 c 0,46,47
 394 189 394 189 484 189 c 2,48,-1
 935 189 l 2,49,50
 990 189 990 189 1020 197 c 0,51,52
 1046 202 1046 202 1078 229 c 0,53,54
 1131 275 1131 275 1131 349 c 2,55,-1
 1131 526 l 2,56,57
 1131 590 1131 590 1156 627 c 0,58,59
 1176 661 1176 661 1243 661 c 0,60,61
 1294 661 1294 661 1321 624 c 1,62,63
 1344 585 1344 585 1344 531 c 2,64,-1
 1344 155 l 2,65,66
 1344 103 1344 103 1341 86 c 0,67,68
 1336 69 1336 69 1307 42 c 0,69,70
 1262 0 1262 0 1185 0 c 2,71,-1
 290 -2 l 2,72,73
 253 -2 253 -2 216 -2 c 0,74,75
 149 5 149 5 128 32 c 0,76,77
 104 59 104 59 99 86 c 1,78,79
 90 110 90 110 90 150 c 2,80,-1
 90 1890 l 2,81,82
 90 1976 90 1976 155 2016 c 0,0,1
EndSplineSet
Validated: 1
EndChar

StartChar: v
Encoding: 118 118 84
Width: 1419
Flags: W
LayerCount: 2
Fore
SplineSet
90 787 m 2,0,-1
 90 1932 l 2,1,2
 90 1979 90 1979 120 2013 c 0,3,4
 146 2045 146 2045 197 2045 c 0,5,6
 245 2045 245 2045 269 2013 c 0,7,8
 293 1979 293 1979 293 1929 c 2,9,-1
 293 875 l 1,10,-1
 293 765 l 2,11,12
 296 745 296 745 309 727 c 0,13,14
 320 711 320 711 333 693 c 2,15,-1
 639 251 l 2,16,17
 647 236 647 236 662.5 219 c 128,-1,18
 678 202 678 202 692 194 c 0,19,20
 697 191 697 191 705 191 c 0,21,22
 708 190 708 190 711 190 c 0,23,24
 719 190 719 190 727 194 c 0,25,26
 745 202 745 202 761 214 c 2,27,-1
 817 263 l 2,28,29
 836 278 836 278 849 307 c 0,30,31
 881 364 881 364 881 410 c 2,32,-1
 881 1913 l 2,33,34
 881 1956 881 1956 886 1976 c 0,35,36
 889 1996 889 1996 911 2016 c 0,37,38
 929 2033 929 2033 955 2040 c 0,39,40
 982 2048 982 2048 1011 2048 c 2,41,-1
 1219 2048 l 2,42,43
 1254 2048 1254 2048 1283 2040 c 0,44,45
 1310 2030 1310 2030 1323 2013 c 128,-1,46
 1336 1996 1336 1996 1341 1974 c 0,47,48
 1347 1952 1347 1952 1347 1932 c 0,49,50
 1347 1910 1347 1910 1347 1900 c 2,51,-1
 1347 627 l 2,52,53
 1347 590 1347 590 1347 572 c 0,54,55
 1347 529 1347 529 1328 496 c 0,56,57
 1310 464 1310 464 1278 440 c 2,58,-1
 825 47 l 2,59,60
 796 20 796 20 769 10 c 0,61,62
 743 0 743 0 695 0 c 0,63,64
 636 0 636 0 607 7 c 0,65,66
 575 15 575 15 554 47 c 2,67,-1
 122 661 l 2,68,69
 114 671 114 671 107 688 c 0,70,71
 99 703 99 703 93 723 c 0,72,73
 90 735 90 735 90 754 c 0,74,75
 90 774 90 774 90 787 c 2,0,-1
EndSplineSet
Validated: 1
EndChar

StartChar: b
Encoding: 98 98 85
Width: 1627
Flags: W
LayerCount: 2
Fore
SplineSet
1374 1175 m 0,0,1
 1389 1162 1389 1162 1459 1141 c 0,2,3
 1525 1119 1525 1119 1533 1111 c 0,4,5
 1568 1081 1568 1081 1568 1013 c 2,6,-1
 1568 167 l 2,7,8
 1568 113 1568 113 1562 88 c 0,9,10
 1555 61 1555 61 1523 34 c 0,11,12
 1501 15 1501 15 1477 10 c 0,13,14
 1451 2 1451 2 1411 2 c 0,15,16
 1382 2 1382 2 1365 2 c 2,17,-1
 282 2 l 2,18,19
 264 2 264 2 250 2 c 0,20,21
 216 2 216 2 187 10 c 0,22,23
 155 15 155 15 128 37 c 0,24,25
 88 71 88 71 88 148 c 2,26,-1
 88 1917 l 2,27,28
 88 1954 88 1954 99 1976 c 0,29,30
 107 1996 107 1996 125 2013 c 0,31,32
 162 2045 162 2045 237 2045 c 2,33,-1
 1169 2045 l 2,34,35
 1222 2045 1222 2045 1246 2043 c 0,36,37
 1267 2038 1267 2038 1299 2011 c 1,38,39
 1328 1981 1328 1981 1328 1927 c 2,40,-1
 1328 1263 l 2,41,42
 1328 1209 1328 1209 1374 1175 c 0,0,1
1291 912 m 0,43,44
 1267 931 1267 931 1235 939 c 0,45,46
 1203 944 1203 944 1158 944 c 2,47,-1
 761 944 l 2,48,49
 700 944 700 944 673 942 c 0,50,51
 644 937 644 937 615 912 c 0,52,53
 564 870 564 870 564 804 c 2,54,-1
 564 359 l 2,55,56
 564 322 564 322 573 295 c 0,57,58
 580 265 580 265 607 240.5 c 128,-1,59
 634 216 634 216 673 206 c 0,60,61
 711 194 711 194 745 194 c 2,62,-1
 1131 194 l 2,63,64
 1190 194 1190 194 1227 204 c 0,65,66
 1262 211 1262 211 1294 238 c 0,67,68
 1350 287 1350 287 1350 368 c 2,69,-1
 1350 789 l 2,70,71
 1350 865 1350 865 1291 912 c 0,43,44
1078 1801 m 0,72,73
 1062 1821 1062 1821 1038 1831 c 0,74,75
 1001 1848 1001 1848 948 1848 c 2,76,-1
 734 1848 l 2,77,78
 690 1848 690 1848 666 1844 c 0,79,80
 639 1836 639 1836 615 1816 c 0,81,82
 567 1780 567 1780 567 1711 c 2,83,-1
 567 1308 l 2,84,85
 567 1278 567 1278 573 1249 c 1,86,87
 575 1217 575 1217 602 1189 c 0,88,89
 641 1148 641 1148 716 1148 c 2,90,-1
 948 1148 l 2,91,92
 996 1148 996 1148 1027 1162 c 0,93,94
 1059 1177 1059 1177 1081 1204 c 0,95,96
 1115 1246 1115 1246 1115 1315 c 2,97,-1
 1115 1704 l 2,98,99
 1115 1731 1115 1731 1105 1758 c 0,100,101
 1094 1782 1094 1782 1078 1801 c 0,72,73
EndSplineSet
Validated: 1
EndChar

StartChar: n
Encoding: 110 110 86
Width: 1674
Flags: W
LayerCount: 2
Fore
SplineSet
90 101 m 2,0,-1
 90 1868 l 2,1,2
 90 1905 90 1905 90 1944 c 1,3,4
 96 1981 96 1981 125 2016 c 0,5,6
 151 2048 151 2048 211 2048 c 2,7,-1
 420 2048 l 2,8,9
 466 2048 466 2048 495 2038 c 0,10,11
 524 2025 524 2025 551 1989 c 2,12,-1
 1243 1209 l 2,13,14
 1283 1162 1283 1162 1286 1160 c 0,15,16
 1307 1143 1307 1143 1331 1143 c 0,17,18
 1339 1143 1339 1143 1347 1146 c 0,19,20
 1368 1150 1368 1150 1376 1168 c 0,21,22
 1382 1185 1382 1185 1382 1217 c 256,23,24
 1382 1249 1382 1249 1382 1263 c 2,25,-1
 1382 1922 l 2,26,27
 1382 1967 1382 1967 1414 2001 c 0,28,29
 1443 2033 1443 2033 1488 2033 c 256,30,31
 1533 2033 1533 2033 1562 2001 c 0,32,33
 1592 1969 1592 1969 1592 1922 c 2,34,-1
 1592 91 l 2,35,36
 1592 52 1592 52 1560 25 c 0,37,38
 1525 -5 1525 -5 1482 -5 c 0,39,40
 1440 -5 1440 -5 1411 25 c 1,41,42
 1379 52 1379 52 1379 91 c 2,43,-1
 1379 597 l 2,44,45
 1379 639 1379 639 1376 661 c 0,46,47
 1374 684 1374 684 1358 730 c 0,48,49
 1341 774 1341 774 1302 823 c 2,50,-1
 466 1785 l 2,51,52
 439 1819 439 1819 415 1834 c 0,53,54
 389 1851 389 1851 365 1851 c 0,55,56
 357 1851 357 1851 349 1848 c 0,57,58
 317 1839 317 1839 306 1804 c 0,59,60
 296 1770 296 1770 296 1716 c 2,61,-1
 296 101 l 2,62,63
 296 59 296 59 264 29 c 0,64,65
 231 0 231 0 184 0 c 0,66,67
 144 0 144 0 117 29 c 0,68,69
 90 59 90 59 90 101 c 2,0,-1
628 590 m 0,70,71
 666 624 666 624 721 624 c 2,72,-1
 932 624 l 2,73,74
 961 624 961 624 982 617 c 0,75,76
 1001 610 1001 610 1020 595 c 0,77,78
 1059 560 1059 560 1059 511 c 2,79,-1
 1059 133 l 2,80,81
 1059 96 1059 96 1054 71 c 0,82,83
 1046 47 1046 47 1024.5 28.5 c 128,-1,84
 1003 10 1003 10 979 5 c 0,85,86
 953 -2 953 -2 916 -2 c 2,87,-1
 719 -2 l 2,88,89
 668 -2 668 -2 649 5 c 0,90,91
 628 12 628 12 617 29 c 0,92,93
 604 44 604 44 598.5 63.5 c 128,-1,94
 593 83 593 83 593 103 c 256,95,96
 593 123 593 123 593 133 c 2,97,-1
 593 504 l 2,98,99
 593 529 593 529 604 551 c 0,100,101
 612 572 612 572 628 590 c 0,70,71
EndSplineSet
Validated: 1
EndChar

StartChar: m
Encoding: 109 109 87
Width: 1914
Flags: W
LayerCount: 2
Fore
SplineSet
80 121 m 2,0,-1
 80 1925 l 2,1,2
 80 1944 80 1944 83 1964 c 0,3,4
 83 1981 83 1981 96 2001 c 0,5,6
 125 2035 125 2035 173 2035 c 2,7,-1
 402 2035 l 2,8,9
 461 2035 461 2035 493 2011 c 0,10,11
 522 1986 522 1986 540 1952 c 2,12,-1
 740 1536 l 1,13,14
 756 1487 756 1487 801 1487 c 0,15,16
 820 1487 820 1487 836 1500 c 0,17,18
 849 1509 849 1509 862 1531 c 2,19,-1
 1126 1952 l 2,20,21
 1137 1969 1137 1969 1156 1986 c 0,22,23
 1174 2001 1174 2001 1185 2011 c 0,24,25
 1217 2033 1217 2033 1267 2033 c 2,26,-1
 1698 2033 l 2,27,28
 1749 2033 1749 2033 1783 2011 c 0,29,30
 1805 1996 1805 1996 1813 1974 c 0,31,32
 1818 1952 1818 1952 1818 1913 c 0,33,34
 1818 1886 1818 1886 1818 1873 c 2,35,-1
 1818 98 l 2,36,37
 1818 34 1818 34 1781 7 c 0,38,39
 1759 -10 1759 -10 1738 -12 c 0,40,41
 1717 -17 1717 -17 1674 -17 c 2,42,-1
 1467 -15 l 2,43,44
 1421 -15 1421 -15 1403 -10 c 0,45,46
 1382 -7 1382 -7 1365 15 c 0,47,48
 1350 34 1350 34 1350 86 c 2,49,-1
 1350 1720 l 2,50,51
 1350 1745 1350 1745 1350 1772 c 1,52,53
 1344 1797 1344 1797 1318 1804 c 0,54,55
 1315 1804 1315 1804 1312 1804 c 0,56,57
 1297 1804 1297 1804 1278 1789 c 0,58,59
 1254 1770 1254 1770 1243 1747 c 2,60,-1
 884 1182 l 2,61,62
 865 1150 865 1150 844 1133 c 0,63,64
 820 1113 820 1113 791 1113 c 0,65,66
 724 1113 724 1113 695 1177 c 2,67,-1
 402 1765 l 2,68,69
 391 1789 391 1789 372 1807 c 0,70,71
 357 1819 357 1819 341 1819 c 0,72,73
 335 1819 335 1819 330 1819 c 0,74,75
 301 1812 301 1812 293 1789 c 0,76,77
 282 1765 282 1765 282 1728 c 2,78,-1
 282 116 l 2,79,80
 282 67 282 67 255 27 c 0,81,82
 229 -15 229 -15 175 -15 c 0,83,84
 128 -15 128 -15 104 27 c 0,85,86
 80 67 80 67 80 121 c 2,0,-1
617 575 m 0,87,88
 658 610 658 610 714 610 c 2,89,-1
 921 610 l 2,90,91
 974 610 974 610 1011 580 c 0,92,93
 1049 548 1049 548 1049 499 c 2,94,-1
 1049 118 l 2,95,96
 1049 74 1049 74 1046 54 c 0,97,98
 1041 34 1041 34 1017 15 c 0,99,100
 990 -7 990 -7 961 -10 c 0,101,102
 932 -15 932 -15 905 -15 c 2,103,-1
 711 -15 l 2,104,105
 663 -15 663 -15 644 -10 c 0,106,107
 623 -7 623 -7 607 16.5 c 128,-1,108
 591 40 591 40 588 59 c 0,109,110
 583 79 583 79 583 118 c 2,111,-1
 583 489 l 2,112,113
 583 514 583 514 593 538 c 0,114,115
 604 563 604 563 617 575 c 0,87,88
EndSplineSet
Validated: 1
EndChar
